<?xml version="1.0" encoding="utf-8"?>
<!-- Generator: Adobe Illustrator 23.0.2, SVG Export Plug-In . SVG Version: 6.00 Build 0)  -->
<svg version="1.1" id="Layer_1" xmlns="http://www.w3.org/2000/svg" xmlns:xlink="http://www.w3.org/1999/xlink" x="0px" y="0px"
	 viewBox="0 0 841.9 595.3" style="enable-background:new 0 0 841.9 595.3;" xml:space="preserve">
<style type="text/css">
	.st0{fill:#005EB3;}
	.st1{fill:#0072D9;}
	.st2{fill:#F2BA49;}
	.st3{fill:#FFD34D;}
	.st4{fill:#1B243C;}
	.st5{fill:#0A3557;}
	.st6{fill:#2C3E50;}
	.st7{fill:#FF8946;}
	.st8{fill:#FFFFFF;}
</style>
<g>
	<polygon class="st0" points="414.6,359.4 405.1,383.7 412.7,380.9 416.3,388.1 425.8,363.8 	"/>
	<polygon class="st1" points="421.8,359.4 431.3,383.7 423.7,380.9 420,388.1 410.6,363.8 	"/>
	<path class="st2" d="M432.1,360.4L432.1,360.4c-0.6-0.5-0.8-1.4-0.3-2c0.6-0.8,0.2-1.9-0.7-2.2c-0.8-0.3-1.2-1.1-0.9-1.8v0
		c0.3-0.9-0.4-1.9-1.4-1.9c-0.8,0-1.4-0.6-1.4-1.4c0-1-1-1.7-1.9-1.4c-0.8,0.2-1.6-0.2-1.8-0.9c-0.3-0.9-1.4-1.3-2.2-0.7
		c-0.6,0.5-1.5,0.3-2-0.3c-0.6-0.8-1.8-0.8-2.3,0c-0.5,0.6-1.4,0.8-2,0.3c-0.8-0.6-1.9-0.2-2.2,0.7c-0.3,0.8-1.1,1.2-1.8,0.9h0
		c-0.9-0.3-1.9,0.4-1.9,1.4c0,0.8-0.6,1.4-1.4,1.4c-1,0-1.7,1-1.4,1.9v0c0.2,0.8-0.2,1.6-0.9,1.8c-0.9,0.3-1.3,1.4-0.7,2.2
		c0.5,0.6,0.3,1.5-0.3,2l0,0c-0.8,0.6-0.8,1.8,0,2.3c0.6,0.5,0.8,1.4,0.3,2c-0.6,0.8-0.2,1.9,0.7,2.2c0.8,0.3,1.2,1.1,0.9,1.8
		c-0.3,0.9,0.4,1.9,1.4,1.9c0.8,0,1.4,0.6,1.4,1.4c0,1,1,1.7,1.9,1.4h0c0.8-0.2,1.6,0.2,1.8,0.9c0.3,0.9,1.4,1.3,2.2,0.7
		c0.6-0.5,1.5-0.3,2,0.3l0,0c0.6,0.8,1.8,0.8,2.3,0l0,0c0.5-0.6,1.4-0.8,2-0.3c0.8,0.6,1.9,0.2,2.2-0.7c0.3-0.8,1.1-1.2,1.8-0.9
		c0.9,0.3,1.9-0.4,1.9-1.4c0-0.8,0.6-1.4,1.4-1.4c1,0,1.7-1,1.4-1.9c-0.2-0.8,0.2-1.6,0.9-1.8c0.9-0.3,1.3-1.4,0.7-2.2
		c-0.5-0.6-0.3-1.5,0.3-2l0,0C432.9,362.2,432.9,361,432.1,360.4z"/>
	<circle class="st3" cx="418.2" cy="361.6" r="12.2"/>
	<g>
		<path class="st2" d="M418.2,372c-5.7,0-10.4-4.7-10.4-10.4c0-5.7,4.7-10.4,10.4-10.4s10.4,4.7,10.4,10.4
			C428.6,367.3,423.9,372,418.2,372z M418.2,352c-5.3,0-9.6,4.3-9.6,9.6s4.3,9.6,9.6,9.6c5.3,0,9.6-4.3,9.6-9.6S423.5,352,418.2,352
			z"/>
	</g>
	<g>
		<rect x="412.8" y="358.5" class="st2" width="10.8" height="0.8"/>
	</g>
	<g>
		<rect x="412.8" y="361.2" class="st2" width="10.8" height="0.8"/>
	</g>
	<g>
		<rect x="412.8" y="363.9" class="st2" width="10.8" height="0.8"/>
	</g>
	<polygon class="st2" points="404.8,350.7 404.8,349.5 404.1,349.5 404.1,350.7 402.9,350.7 402.9,351.4 404.1,351.4 404.1,352.6 
		404.8,352.6 404.8,351.4 406,351.4 406,350.7 	"/>
	<polygon class="st3" points="434.2,355.6 434.2,354.6 433.7,354.6 433.7,355.6 432.7,355.6 432.7,356.1 433.7,356.1 433.7,357.1 
		434.2,357.1 434.2,356.1 435.2,356.1 435.2,355.6 	"/>
	<circle class="st3" cx="430.8" cy="373.8" r="1"/>
	<path class="st3" d="M406.5,373.5c0,0.4-0.3,0.7-0.7,0.7s-0.7-0.3-0.7-0.7s0.3-0.7,0.7-0.7S406.5,373.1,406.5,373.5z"/>
	<path class="st2" d="M405.4,370.4c0,0.6-0.5,1.1-1.1,1.1c-0.6,0-1.1-0.5-1.1-1.1c0-0.6,0.5-1.1,1.1-1.1
		C404.9,369.4,405.4,369.8,405.4,370.4z"/>
	<path class="st2" d="M432.8,352.6c0,0.4-0.3,0.7-0.7,0.7c-0.4,0-0.7-0.3-0.7-0.7c0-0.4,0.3-0.7,0.7-0.7
		C432.4,351.9,432.8,352.2,432.8,352.6z"/>
</g>
<rect y="616.5" class="st4" width="841.9" height="595.3"/>
<g>
	<g>
		<path class="st5" d="M349.1,322.9c-5.4,0-10.7-0.8-15.8-2.4c-5.1-1.6-9.6-3.9-13.6-7.1c-3.7-3.1-6.7-7-8.8-11.6
			c-2.2-4.6-3.3-9.9-3.4-16h32c0,2.5,0.5,4.4,1.5,6c1,1.5,2.2,2.7,3.5,3.5c1.4,0.8,2.8,1.3,4.4,1.5c1.6,0.1,3,0.1,4.3-0.2
			c1.5-0.4,2.7-1.1,3.6-2.1c0.9-1,1.4-2.2,1.4-3.6s-0.6-2.8-1.7-4.3c-1.1-1.5-3.3-3.1-6.4-4.6c-4.1-2.2-9.8-4-17.1-5.6
			c-3.4-0.9-6.7-2-9.6-3.4c-3-1.4-5.6-3-7.9-5c-3.1-2.7-5.5-5.9-7.1-9.9c-1.6-3.9-2.3-8.7-2.1-14.3c0.2-4.9,1.5-9.2,4-12.7
			c2.5-3.6,5.5-6.6,9.3-8.9c3.7-2.4,7.9-4.1,12.5-5.2c4.6-1.1,9.1-1.7,13.6-1.7c7.7,0,14.1,0.8,19.4,2.4c5.3,1.6,9.6,3.8,13,6.6
			c3.4,2.8,5.9,6.3,7.6,10.2c1.7,4,2.7,8.3,2.9,13h-29.9c0-1.9-0.4-3.4-1.3-4.7c-0.8-1.3-1.9-2.3-3.2-3c-1.3-0.7-2.7-1.2-4.1-1.4
			c-1.5-0.2-2.8-0.2-4.1-0.1c-2.1,0.2-3.8,0.8-5.3,1.8c-1.5,1-2.2,2.5-2.2,4.5c0,2,1.1,3.6,3.2,4.8c2.2,1.2,6,2.4,11.6,3.6
			c5.1,1.1,10.1,2.6,15,4.4c4.9,1.9,9.3,4.2,13.2,7.1c3.9,2.9,7,6.3,9.4,10.2c2.4,3.9,3.5,8.4,3.5,13.6c0,5.9-1.2,11-3.5,15.3
			c-2.4,4.3-5.6,7.9-9.7,10.8c-4.1,2.9-9,5-14.5,6.4C361.3,322.2,355.3,322.9,349.1,322.9z"/>
		<path class="st5" d="M400.9,320.4l29.5-103H471l29.3,103h-35.2l-4.3-18.7h-22.7l-4.7,18.7H400.9z M441.9,277H457l-7.4-32.1
			L441.9,277z"/>
		<path class="st5" d="M511.1,320.4v-103h34.8v75.9h28.4v27.1H511.1z"/>
		<path class="st5" d="M589,320.4v-103H662V245h-37.9v11.9h33.6v24.7h-33.6v11.6H662v27.1H589z"/>
		<path class="st5" d="M717.4,322.9c-5.4,0-10.7-0.8-15.8-2.4c-5.1-1.6-9.6-3.9-13.6-7.1c-3.7-3.1-6.7-7-8.8-11.6
			c-2.2-4.6-3.3-9.9-3.4-16h32c0,2.5,0.5,4.4,1.5,6c1,1.5,2.2,2.7,3.5,3.5c1.4,0.8,2.8,1.3,4.4,1.5c1.6,0.1,3,0.1,4.3-0.2
			c1.5-0.4,2.7-1.1,3.6-2.1c0.9-1,1.4-2.2,1.4-3.6s-0.6-2.8-1.7-4.3c-1.1-1.5-3.3-3.1-6.4-4.6c-4.1-2.2-9.8-4-17.1-5.6
			c-3.4-0.9-6.7-2-9.6-3.4c-3-1.4-5.6-3-7.9-5c-3.1-2.7-5.5-5.9-7.1-9.9c-1.6-3.9-2.3-8.7-2.1-14.3c0.2-4.9,1.5-9.2,4-12.7
			c2.5-3.6,5.5-6.6,9.3-8.9c3.7-2.4,7.9-4.1,12.5-5.2c4.6-1.1,9.1-1.7,13.6-1.7c7.7,0,14.1,0.8,19.4,2.4c5.3,1.6,9.6,3.8,13,6.6
			c3.4,2.8,5.9,6.3,7.6,10.2c1.7,4,2.7,8.3,2.9,13h-29.9c0-1.9-0.4-3.4-1.3-4.7c-0.8-1.3-1.9-2.3-3.2-3c-1.3-0.7-2.7-1.2-4.1-1.4
			c-1.5-0.2-2.9-0.2-4.1-0.1c-2.1,0.2-3.8,0.8-5.3,1.8c-1.5,1-2.2,2.5-2.2,4.5c0,2,1.1,3.6,3.2,4.8c2.2,1.2,6,2.4,11.6,3.6
			c5.1,1.1,10.1,2.6,15,4.4c4.9,1.9,9.3,4.2,13.2,7.1c3.9,2.9,7,6.3,9.4,10.2c2.4,3.9,3.5,8.4,3.5,13.6c0,5.9-1.2,11-3.5,15.3
			c-2.4,4.3-5.6,7.9-9.7,10.8c-4.1,2.9-9,5-14.5,6.4C729.6,322.2,723.7,322.9,717.4,322.9z"/>
	</g>
	<g>
		<path class="st6" d="M321.6,370c-0.6-0.6-1.4-1.4-2.3-2.3c-2.3,1.7-5.1,2.8-8.4,2.8c-5.6,0-10.1-2.9-10.1-8.9
			c0-4.6,3.1-7.1,6.6-8.9c-1.2-2.2-2-4.5-2-6.6c0-4.1,3.6-7.3,8.7-7.3c4.3,0,8,2.3,8,6.5c0,4.7-3.7,6.7-7.5,8.4
			c0.9,1.2,1.8,2.4,2.6,3.3c0.9,1.1,1.7,2.2,2.6,3.2c1.3-2,2.2-4.2,2.8-6l4.6,2.2c-1.1,2.4-2.5,5-4.3,7.3c1.8,2,3.8,4,5.9,6.2H321.6
			z M316.2,364.4c-1.4-1.5-2.7-3-3.4-3.9c-1-1.2-2.1-2.6-3.1-4c-1.6,1.1-2.7,2.6-2.7,4.7c0,3,2.2,4.8,4.7,4.8
			C313.3,366,314.8,365.4,316.2,364.4z M312.5,350.6c2.6-1.2,4.6-2.6,4.6-4.8c0-1.6-1.2-2.6-2.7-2.6c-1.8,0-3.2,1.3-3.2,3.3
			C311.2,347.7,311.7,349.1,312.5,350.6z"/>
		<path class="st6" d="M344.3,370v-30.6h14.3c6.7,0,10.3,4.5,10.3,9.9c0,5.3-3.7,9.8-10.3,9.8h-7.8V370H344.3z M362.2,349.3
			c0-2.6-2-4.1-4.5-4.1h-6.9v8.2h6.9C360.2,353.4,362.2,351.8,362.2,349.3z"/>
		<path class="st6" d="M390.2,370l-6-10.9h-4.8V370h-6.5v-30.6h14.3c6.4,0,10.3,4.2,10.3,9.9c0,5.4-3.4,8.3-6.7,9.1l6.9,11.7H390.2z
			 M390.9,349.2c0-2.5-2-4.1-4.5-4.1h-6.9v8.3h6.9C388.9,353.4,390.9,351.9,390.9,349.2z"/>
		<path class="st6" d="M464.2,370V348l-8.6,22.1h-2.8l-8.6-22.1V370h-6.5v-30.6h9.1l7.4,19.1l7.4-19.1h9.2V370H464.2z"/>
		<path class="st6" d="M475.4,354.7c0-9.2,6.7-15.8,16-15.8c9.2,0,16,6.6,16,15.8c0,9.2-6.7,15.8-16,15.8
			C482.1,370.6,475.4,364,475.4,354.7z M500.6,354.7c0-5.7-3.6-10.1-9.3-10.1c-5.7,0-9.3,4.3-9.3,10.1c0,5.7,3.6,10.1,9.3,10.1
			C497,364.8,500.6,360.4,500.6,354.7z"/>
		<path class="st6" d="M517.9,370v-24.9H509v-5.7h24.4v5.7h-8.9V370H517.9z"/>
		<path class="st6" d="M537.6,370v-30.6h6.5V370H537.6z"/>
		<path class="st6" d="M548.7,354.7c0-9.2,6.7-15.8,16-15.8c9.2,0,16,6.6,16,15.8c0,9.2-6.7,15.8-16,15.8
			C555.4,370.6,548.7,364,548.7,354.7z M574,354.7c0-5.7-3.6-10.1-9.3-10.1c-5.7,0-9.3,4.3-9.3,10.1c0,5.7,3.6,10.1,9.3,10.1
			C570.3,364.8,574,360.4,574,354.7z"/>
		<path class="st6" d="M606.4,370l-14.6-20v20h-6.5v-30.6h6.7l14.2,19.2v-19.2h6.5V370H606.4z"/>
		<path class="st6" d="M616.6,365.7l3.6-5.1c2.2,2.2,5.5,4.2,9.7,4.2c3.6,0,5.3-1.6,5.3-3.4c0-5.3-17.6-1.6-17.6-13.1
			c0-5.1,4.4-9.3,11.6-9.3c4.9,0,8.9,1.5,11.9,4.3l-3.6,4.9c-2.5-2.3-5.8-3.4-8.9-3.4c-2.8,0-4.3,1.2-4.3,3c0,4.8,17.6,1.6,17.6,13
			c0,5.6-4,9.8-12.3,9.8C623.7,370.6,619.5,368.6,616.6,365.7z"/>
		<path class="st6" d="M655.9,365.7l3.6-5.1c2.2,2.2,5.5,4.2,9.7,4.2c3.6,0,5.3-1.6,5.3-3.4c0-5.3-17.6-1.6-17.6-13.1
			c0-5.1,4.4-9.3,11.6-9.3c4.9,0,8.9,1.5,11.9,4.3l-3.6,4.9c-2.5-2.3-5.8-3.4-8.9-3.4c-2.8,0-4.3,1.2-4.3,3c0,4.8,17.6,1.6,17.6,13
			c0,5.6-4,9.8-12.3,9.8C663.1,370.6,658.8,368.6,655.9,365.7z"/>
		<path class="st6" d="M702.9,370l-6-10.9h-4.8V370h-6.5v-30.6h14.3c6.4,0,10.3,4.2,10.3,9.9c0,5.4-3.4,8.3-6.7,9.1l6.9,11.7H702.9z
			 M703.5,349.2c0-2.5-2-4.1-4.5-4.1h-6.9v8.3h6.9C701.6,353.4,703.5,351.9,703.5,349.2z"/>
		<path class="st6" d="M714.8,370v-30.6h6.6v24.9h12.9v5.7H714.8z"/>
		<path class="st6" d="M736.6,365.7l3.6-5.1c2.2,2.2,5.5,4.2,9.7,4.2c3.6,0,5.3-1.6,5.3-3.4c0-5.3-17.6-1.6-17.6-13.1
			c0-5.1,4.4-9.3,11.6-9.3c4.9,0,8.9,1.5,11.9,4.3l-3.6,4.9c-2.5-2.3-5.8-3.4-8.9-3.4c-2.8,0-4.3,1.2-4.3,3c0,4.8,17.6,1.6,17.6,13
			c0,5.6-4,9.8-12.3,9.8C743.8,370.6,739.5,368.6,736.6,365.7z"/>
	</g>
	<g>
		<path class="st5" d="M108.9,202.9c19.2-20.6,46.5-33.4,74.6-34.7c31.4-1.9,63.1,10.6,84.9,33.3c13.9,14.3,23.9,32.4,28.4,51.8
			c6.8,28.7,1.5,60-14.4,84.8c-5.2-5.1-10.4-10.3-15.6-15.5c7.9-14,12-30,11.6-46c-0.3-17.6-6.1-35-16.2-49.4
			c-10.9-15.4-26.7-27.3-44.7-33.2c-17.1-5.7-35.9-6-53.2-1c-20.3,5.9-38.2,19.3-49.6,37c-18.3,27.5-19.1,65.2-2.2,93.5
			c8.6,14.6,21.4,26.8,36.5,34.5c19.1,9.8,41.9,12.3,62.7,6.9c15.3-3.9,29.5-12.1,40.7-23.3c5,5,10.1,10.1,15.1,15.1
			c-10.8,10.8-23.9,19.4-38.1,24.9c-21.8,8.5-46.4,9.8-69,3.6c-26.5-7.1-50-24.6-64.5-47.9c-12.6-19.9-18.4-44-16.5-67.5
			C81.2,245,91.8,221,108.9,202.9z"/>
	</g>
	<g>
		<path class="st5" d="M240.6,274.8c10.5-0.5,21-1.1,31.5-1.6c-3.5,9.5-7.1,18.9-10.6,28.3c-0.9-2.7-1.8-5.4-2.6-8.1
			c-7.2,4.8-14.5,9.3-21.7,14.2c0.1,11.5,0,23.1,0,34.6c-9.6,7.1-20.7,12.1-32.4,14.5c0-9.4,0-18.8,0-28.2
			c-3.6,2.4-7.3,4.7-10.9,7.2c0,7.5,0,14.9,0,22.4c-8.3,0.4-16.6-0.4-24.7-2.4c-0.2-8.4,0.4-16.9-0.3-25.3c-2.3-2.7-5-5-7.4-7.5
			c-0.6,0.3-1.9,1-2.5,1.3c-0.1,9.4,0,18.8,0,28.2c-6.8-2.8-13.3-6.6-19.1-11.1c0-2.5,0-5,0-7.4c-2.1,1.1-4.3,2.1-6.4,3.2
			c9.9-9.4,19.8-18.7,29.6-28c6.2,5.4,12.5,10.9,18.7,16.3c22.4-15,44.8-30,67.3-44.9C246.2,278.5,243.4,276.7,240.6,274.8z"/>
	</g>
	<g>
		<path class="st7" d="M211.3,215.2c6-0.4,12-0.2,18-0.2c4.3,0,7.9,3.9,7.9,8.1c0.1,3.7,0.3,7.4-0.2,11.1c-0.6,3.7-4,6.6-7.8,6.7
			c-5.5,0.1-11.1,0.1-16.6,0c-3.8-0.1-7.4-3.1-7.8-7c-0.3-4-0.3-8,0-11.9C205.2,218.7,208,215.8,211.3,215.2z"/>
	</g>
	<g>
		<path class="st7" d="M208.3,255.7c3.6-3.2,8.8-2.4,13.2-2.6c3.9,0.2,8.3-0.4,11.6,2.1c2.7,2,4.1,5.3,4.1,8.6
			c0.1,6.2,0,12.4,0,18.6c-10.8,7.2-21.4,14.7-32.5,21.5c-0.2-13,0-26-0.1-39.1C204.5,261.5,205.6,257.9,208.3,255.7z"/>
	</g>
	<g>
		<path class="st7" d="M173.3,254.9c5-0.5,10.1-0.3,15.2-0.2c3.2,0,5.6,3.2,5.3,6.3c-0.1,4,1.3,9.7-3.1,12.1
			c-5.5,1.3-11.3,0.8-16.9,0.3c-2.3-0.1-4.3-2.3-4.5-4.6c-0.3-3.2-0.3-6.4,0-9.5C169.6,257.2,171.4,255.4,173.3,254.9z"/>
	</g>
	<g>
		<path class="st7" d="M143.2,283c3.8-0.4,7.6-0.2,11.4-0.1c2.8-0.1,4.7,2.7,4.3,5.3c-0.1,2.9,0.8,7.3-2.7,8.6
			c-3.7,1-7.7,0.4-11.6,0.5c-2.7,0.1-5-2.4-4.9-5.1C139.5,289,139.2,283.9,143.2,283z"/>
	</g>
	<g>
		<path class="st7" d="M169.3,290.1c-0.1-3.6,3-6.9,6.6-7.2c3.5-0.2,7.1-0.2,10.7,0c3.8,0,7.2,3.5,7.2,7.3c0.1,7.1,0,14.3,0,21.4
			c-4,2.4-7.5,5.6-11.8,7.5c-4.4-3.4-8.4-7.3-12.7-10.9C169.3,302.2,169.2,296.1,169.3,290.1z"/>
	</g>
	<g>
		<path class="st7" d="M139.9,309.5c0.2-3,2.8-5.7,5.9-5.5c4.3,0,9.5-1.1,12.7,2.7c-6,6-12.2,11.9-18.6,17.6
			C139.8,319.4,139.5,314.4,139.9,309.5z"/>
	</g>
</g>
<g>
	<g>
		<polygon class="st0" points="414.6,971.1 405.1,995.3 412.7,992.5 416.3,999.7 425.8,975.5 		"/>
		<polygon class="st1" points="421.8,971.1 431.3,995.3 423.7,992.5 420,999.7 410.6,975.5 		"/>
		<path class="st2" d="M432.1,972.1L432.1,972.1c-0.6-0.5-0.8-1.4-0.3-2c0.6-0.8,0.2-1.9-0.7-2.2c-0.8-0.3-1.2-1.1-0.9-1.8l0,0
			c0.3-0.9-0.4-1.9-1.4-1.9c-0.8,0-1.4-0.6-1.4-1.4c0-1-1-1.7-1.9-1.4c-0.8,0.2-1.6-0.2-1.8-0.9c-0.3-0.9-1.4-1.3-2.2-0.7
			c-0.6,0.5-1.5,0.3-2-0.3c-0.6-0.8-1.8-0.8-2.3,0c-0.5,0.6-1.4,0.8-2,0.3c-0.8-0.6-1.9-0.2-2.2,0.7c-0.3,0.8-1.1,1.2-1.8,0.9h0
			c-0.9-0.3-1.9,0.4-1.9,1.4c0,0.8-0.6,1.4-1.4,1.4c-1,0-1.7,1-1.4,1.9l0,0c0.2,0.8-0.2,1.6-0.9,1.8c-0.9,0.3-1.3,1.4-0.7,2.2
			c0.5,0.6,0.3,1.5-0.3,2l0,0c-0.8,0.6-0.8,1.8,0,2.3c0.6,0.5,0.8,1.4,0.3,2c-0.6,0.8-0.2,1.9,0.7,2.2c0.8,0.3,1.2,1.1,0.9,1.8
			c-0.3,0.9,0.4,1.9,1.4,1.9c0.8,0,1.4,0.7,1.4,1.4c0,1,1,1.7,1.9,1.4h0c0.8-0.2,1.6,0.2,1.8,0.9c0.3,0.9,1.4,1.3,2.2,0.7
			c0.6-0.5,1.5-0.3,2,0.3l0,0c0.6,0.8,1.8,0.8,2.3,0l0,0c0.5-0.6,1.4-0.8,2-0.3c0.8,0.6,1.9,0.2,2.2-0.7c0.3-0.8,1.1-1.2,1.8-0.9
			c0.9,0.3,1.9-0.4,1.9-1.4c0-0.8,0.6-1.4,1.4-1.4c1,0,1.7-1,1.4-1.9c-0.2-0.8,0.2-1.6,0.9-1.8c0.9-0.3,1.3-1.4,0.7-2.2
			c-0.5-0.6-0.3-1.5,0.3-2l0,0C432.9,973.8,432.9,972.6,432.1,972.1z"/>
		<circle class="st3" cx="418.2" cy="973.2" r="12.2"/>
		<g>
			<path class="st2" d="M418.2,983.6c-5.7,0-10.4-4.7-10.4-10.4c0-5.7,4.7-10.4,10.4-10.4s10.4,4.7,10.4,10.4
				C428.6,979,423.9,983.6,418.2,983.6z M418.2,963.7c-5.3,0-9.6,4.3-9.6,9.6c0,5.3,4.3,9.6,9.6,9.6c5.3,0,9.6-4.3,9.6-9.6
				C427.8,968,423.5,963.7,418.2,963.7z"/>
		</g>
		<g>
			<rect x="412.8" y="970.2" class="st2" width="10.8" height="0.8"/>
		</g>
		<g>
			<rect x="412.8" y="972.8" class="st2" width="10.8" height="0.8"/>
		</g>
		<g>
			<rect x="412.8" y="975.5" class="st2" width="10.8" height="0.8"/>
		</g>
		<polygon class="st2" points="404.8,962.3 404.8,961.1 404.1,961.1 404.1,962.3 402.9,962.3 402.9,963 404.1,963 404.1,964.2 
			404.8,964.2 404.8,963 406,963 406,962.3 		"/>
		<polygon class="st3" points="434.2,967.2 434.2,966.2 433.7,966.2 433.7,967.2 432.7,967.2 432.7,967.8 433.7,967.8 433.7,968.7 
			434.2,968.7 434.2,967.8 435.2,967.8 435.2,967.2 		"/>
		<circle class="st3" cx="430.8" cy="985.5" r="1"/>
		<path class="st3" d="M406.5,985.1c0,0.4-0.3,0.7-0.7,0.7s-0.7-0.3-0.7-0.7s0.3-0.7,0.7-0.7S406.5,984.8,406.5,985.1z"/>
		<path class="st2" d="M405.4,982.1c0,0.6-0.5,1.1-1.1,1.1c-0.6,0-1.1-0.5-1.1-1.1c0-0.6,0.5-1.1,1.1-1.1
			C404.9,981,405.4,981.5,405.4,982.1z"/>
		<path class="st2" d="M432.8,964.2c0,0.4-0.3,0.7-0.7,0.7c-0.4,0-0.7-0.3-0.7-0.7s0.3-0.7,0.7-0.7
			C432.4,963.5,432.8,963.8,432.8,964.2z"/>
	</g>
	<g>
		<g>
			<path class="st8" d="M349.1,934.6c-5.4,0-10.7-0.8-15.8-2.4c-5.1-1.6-9.6-3.9-13.6-7.1c-3.7-3.1-6.7-7-8.8-11.6
				c-2.2-4.6-3.3-9.9-3.4-16h32c0,2.5,0.5,4.4,1.5,6c1,1.5,2.2,2.7,3.5,3.5c1.4,0.8,2.8,1.3,4.4,1.5c1.6,0.1,3,0.1,4.3-0.2
				c1.5-0.4,2.7-1.1,3.6-2.1c0.9-1,1.4-2.2,1.4-3.6s-0.6-2.8-1.7-4.3c-1.1-1.5-3.3-3.1-6.4-4.6c-4.1-2.2-9.8-4-17.1-5.6
				c-3.4-0.9-6.7-2-9.6-3.4c-3-1.4-5.6-3-7.9-5c-3.1-2.7-5.5-5.9-7.1-9.9c-1.6-3.9-2.3-8.7-2.1-14.3c0.2-4.9,1.5-9.2,4-12.7
				c2.5-3.6,5.5-6.6,9.3-8.9c3.7-2.4,7.9-4.1,12.5-5.2c4.6-1.1,9.1-1.7,13.6-1.7c7.7,0,14.1,0.8,19.4,2.4c5.3,1.6,9.6,3.8,13,6.6
				c3.4,2.8,5.9,6.3,7.6,10.2c1.7,4,2.7,8.3,2.9,13h-29.9c0-1.9-0.4-3.4-1.3-4.7c-0.8-1.3-1.9-2.3-3.2-3c-1.3-0.7-2.7-1.2-4.1-1.4
				c-1.5-0.2-2.8-0.2-4.1-0.1c-2.1,0.2-3.8,0.8-5.3,1.8c-1.5,1-2.2,2.5-2.2,4.5c0,2,1.1,3.6,3.2,4.8c2.2,1.2,6,2.4,11.6,3.6
				c5.1,1.1,10.1,2.6,15,4.4c4.9,1.9,9.3,4.2,13.2,7.1c3.9,2.9,7,6.3,9.4,10.2c2.4,3.9,3.5,8.4,3.5,13.6c0,5.9-1.2,11-3.5,15.3
				c-2.4,4.3-5.6,7.9-9.7,10.8c-4.1,2.9-9,5-14.5,6.4C361.3,933.9,355.3,934.6,349.1,934.6z"/>
			<path class="st8" d="M400.9,932.1l29.5-103H471l29.3,103h-35.2l-4.3-18.7h-22.7l-4.7,18.7H400.9z M441.9,888.6H457l-7.4-32.1
				L441.9,888.6z"/>
			<path class="st8" d="M511.1,932.1v-103h34.8V905h28.4v27.1H511.1z"/>
			<path class="st8" d="M589,932.1v-103H662v27.5h-37.9v11.9h33.6v24.7h-33.6V905H662v27.1H589z"/>
			<path class="st8" d="M717.4,934.6c-5.4,0-10.7-0.8-15.8-2.4c-5.1-1.6-9.6-3.9-13.6-7.1c-3.7-3.1-6.7-7-8.8-11.6
				c-2.2-4.6-3.3-9.9-3.4-16h32c0,2.5,0.5,4.4,1.5,6c1,1.5,2.2,2.7,3.5,3.5c1.4,0.8,2.8,1.3,4.4,1.5c1.6,0.1,3,0.1,4.3-0.2
				c1.5-0.4,2.7-1.1,3.6-2.1c0.9-1,1.4-2.2,1.4-3.6s-0.6-2.8-1.7-4.3c-1.1-1.5-3.3-3.1-6.4-4.6c-4.1-2.2-9.8-4-17.1-5.6
				c-3.4-0.9-6.7-2-9.6-3.4c-3-1.4-5.6-3-7.9-5c-3.1-2.7-5.5-5.9-7.1-9.9c-1.6-3.9-2.3-8.7-2.1-14.3c0.2-4.9,1.5-9.2,4-12.7
				c2.5-3.6,5.5-6.6,9.3-8.9c3.7-2.4,7.9-4.1,12.5-5.2c4.6-1.1,9.1-1.7,13.6-1.7c7.7,0,14.1,0.8,19.4,2.4c5.3,1.6,9.6,3.8,13,6.6
				c3.4,2.8,5.9,6.3,7.6,10.2c1.7,4,2.7,8.3,2.9,13h-29.9c0-1.9-0.4-3.4-1.3-4.7c-0.8-1.3-1.9-2.3-3.2-3c-1.3-0.7-2.7-1.2-4.1-1.4
				c-1.5-0.2-2.9-0.2-4.1-0.1c-2.1,0.2-3.8,0.8-5.3,1.8c-1.5,1-2.2,2.5-2.2,4.5c0,2,1.1,3.6,3.2,4.8c2.2,1.2,6,2.4,11.6,3.6
				c5.1,1.1,10.1,2.6,15,4.4c4.9,1.9,9.3,4.2,13.2,7.1c3.9,2.9,7,6.3,9.4,10.2c2.4,3.9,3.5,8.4,3.5,13.6c0,5.9-1.2,11-3.5,15.3
				c-2.4,4.3-5.6,7.9-9.7,10.8c-4.1,2.9-9,5-14.5,6.4C729.6,933.9,723.7,934.6,717.4,934.6z"/>
		</g>
		<g>
			<path class="st8" d="M321.6,981.7c-0.6-0.6-1.4-1.4-2.3-2.3c-2.3,1.7-5.1,2.8-8.4,2.8c-5.6,0-10.1-2.9-10.1-8.9
				c0-4.6,3.1-7.1,6.6-8.9c-1.2-2.2-2-4.5-2-6.6c0-4.1,3.6-7.3,8.7-7.3c4.3,0,8,2.3,8,6.5c0,4.7-3.7,6.7-7.5,8.4
				c0.9,1.2,1.8,2.4,2.6,3.3c0.9,1.1,1.7,2.2,2.6,3.2c1.3-2,2.2-4.2,2.8-6l4.6,2.2c-1.1,2.4-2.5,5-4.3,7.3c1.8,2,3.8,4,5.9,6.2
				H321.6z M316.2,976.1c-1.4-1.5-2.7-3-3.4-3.9c-1-1.2-2.1-2.6-3.1-4c-1.6,1.1-2.7,2.6-2.7,4.7c0,3,2.2,4.8,4.7,4.8
				C313.3,977.6,314.8,977,316.2,976.1z M312.5,962.2c2.6-1.2,4.6-2.6,4.6-4.8c0-1.6-1.2-2.6-2.7-2.6c-1.8,0-3.2,1.3-3.2,3.3
				C311.2,959.3,311.7,960.7,312.5,962.2z"/>
			<path class="st8" d="M344.3,981.7V951h14.3c6.7,0,10.3,4.5,10.3,9.9c0,5.3-3.7,9.8-10.3,9.8h-7.8v10.9H344.3z M362.2,960.9
				c0-2.6-2-4.1-4.5-4.1h-6.9v8.2h6.9C360.2,965,362.2,963.4,362.2,960.9z"/>
			<path class="st8" d="M390.2,981.7l-6-10.9h-4.8v10.9h-6.5V951h14.3c6.4,0,10.3,4.2,10.3,9.9c0,5.4-3.4,8.3-6.7,9.1l6.9,11.7
				H390.2z M390.9,960.9c0-2.5-2-4.1-4.5-4.1h-6.9v8.3h6.9C388.9,965,390.9,963.5,390.9,960.9z"/>
			<path class="st8" d="M464.2,981.7v-22.1l-8.6,22.1h-2.8l-8.6-22.1v22.1h-6.5V951h9.1l7.4,19.1l7.4-19.1h9.2v30.6H464.2z"/>
			<path class="st8" d="M475.4,966.4c0-9.2,6.7-15.8,16-15.8c9.2,0,16,6.6,16,15.8s-6.7,15.8-16,15.8
				C482.1,982.2,475.4,975.6,475.4,966.4z M500.6,966.4c0-5.7-3.6-10.1-9.3-10.1c-5.7,0-9.3,4.3-9.3,10.1c0,5.7,3.6,10.1,9.3,10.1
				C497,976.4,500.6,972.1,500.6,966.4z"/>
			<path class="st8" d="M517.9,981.7v-24.9H509V951h24.4v5.7h-8.9v24.9H517.9z"/>
			<path class="st8" d="M537.6,981.7V951h6.5v30.6H537.6z"/>
			<path class="st8" d="M548.7,966.4c0-9.2,6.7-15.8,16-15.8c9.2,0,16,6.6,16,15.8s-6.7,15.8-16,15.8
				C555.4,982.2,548.7,975.6,548.7,966.4z M574,966.4c0-5.7-3.6-10.1-9.3-10.1c-5.7,0-9.3,4.3-9.3,10.1c0,5.7,3.6,10.1,9.3,10.1
				C570.3,976.4,574,972.1,574,966.4z"/>
			<path class="st8" d="M606.4,981.7l-14.6-20v20h-6.5V951h6.7l14.2,19.2V951h6.5v30.6H606.4z"/>
			<path class="st8" d="M616.6,977.3l3.6-5.1c2.2,2.2,5.5,4.2,9.7,4.2c3.6,0,5.3-1.6,5.3-3.4c0-5.3-17.6-1.6-17.6-13.1
				c0-5.1,4.4-9.3,11.6-9.3c4.9,0,8.9,1.5,11.9,4.3l-3.6,4.9c-2.5-2.3-5.8-3.4-8.9-3.4c-2.8,0-4.3,1.2-4.3,3c0,4.8,17.6,1.6,17.6,13
				c0,5.6-4,9.8-12.3,9.8C623.7,982.2,619.5,980.2,616.6,977.3z"/>
			<path class="st8" d="M655.9,977.3l3.6-5.1c2.2,2.2,5.5,4.2,9.7,4.2c3.6,0,5.3-1.6,5.3-3.4c0-5.3-17.6-1.6-17.6-13.1
				c0-5.1,4.4-9.3,11.6-9.3c4.9,0,8.9,1.5,11.9,4.3l-3.6,4.9c-2.5-2.3-5.8-3.4-8.9-3.4c-2.8,0-4.3,1.2-4.3,3c0,4.8,17.6,1.6,17.6,13
				c0,5.6-4,9.8-12.3,9.8C663.1,982.2,658.8,980.2,655.9,977.3z"/>
			<path class="st8" d="M702.9,981.7l-6-10.9h-4.8v10.9h-6.5V951h14.3c6.4,0,10.3,4.2,10.3,9.9c0,5.4-3.4,8.3-6.7,9.1l6.9,11.7
				H702.9z M703.5,960.9c0-2.5-2-4.1-4.5-4.1h-6.9v8.3h6.9C701.6,965,703.5,963.5,703.5,960.9z"/>
			<path class="st8" d="M714.8,981.7V951h6.6v24.9h12.9v5.7H714.8z"/>
			<path class="st8" d="M736.6,977.3l3.6-5.1c2.2,2.2,5.5,4.2,9.7,4.2c3.6,0,5.3-1.6,5.3-3.4c0-5.3-17.6-1.6-17.6-13.1
				c0-5.1,4.4-9.3,11.6-9.3c4.9,0,8.9,1.5,11.9,4.3l-3.6,4.9c-2.5-2.3-5.8-3.4-8.9-3.4c-2.8,0-4.3,1.2-4.3,3c0,4.8,17.6,1.6,17.6,13
				c0,5.6-4,9.8-12.3,9.8C743.8,982.2,739.5,980.2,736.6,977.3z"/>
		</g>
		<g>
			<path class="st8" d="M108.9,814.5c19.2-20.6,46.5-33.4,74.6-34.7c31.4-1.9,63.1,10.6,84.9,33.3c13.9,14.3,23.9,32.4,28.4,51.8
				c6.8,28.7,1.5,60-14.4,84.8c-5.2-5.1-10.4-10.3-15.6-15.5c7.9-14,12-30,11.6-46c-0.3-17.6-6.1-35-16.2-49.4
				c-10.9-15.4-26.7-27.3-44.7-33.2c-17.1-5.7-35.9-6-53.2-1c-20.3,5.9-38.2,19.3-49.6,37c-18.3,27.5-19.1,65.2-2.2,93.5
				c8.6,14.6,21.4,26.8,36.5,34.5c19.1,9.8,41.9,12.3,62.7,6.9c15.3-3.9,29.5-12.1,40.7-23.3c5,5,10.1,10.1,15.1,15.1
				c-10.8,10.8-23.9,19.4-38.1,24.9c-21.8,8.5-46.4,9.8-69,3.6c-26.5-7.1-50-24.6-64.5-47.9c-12.6-19.9-18.4-44-16.5-67.5
				C81.2,856.6,91.8,832.6,108.9,814.5z"/>
		</g>
		<g>
			<path class="st8" d="M240.6,886.4c10.5-0.5,21-1.1,31.5-1.6c-3.5,9.5-7.1,18.9-10.6,28.3c-0.9-2.7-1.8-5.4-2.6-8.1
				c-7.2,4.8-14.5,9.3-21.7,14.2c0.1,11.5,0,23.1,0,34.6c-9.6,7.1-20.7,12.1-32.4,14.5c0-9.4,0-18.8,0-28.2
				c-3.6,2.4-7.3,4.7-10.9,7.2c0,7.5,0,14.9,0,22.4c-8.3,0.4-16.6-0.4-24.7-2.4c-0.2-8.4,0.4-16.9-0.3-25.3c-2.3-2.7-5-5-7.4-7.5
				c-0.6,0.3-1.9,1-2.5,1.3c-0.1,9.4,0,18.8,0,28.2c-6.8-2.8-13.3-6.6-19.1-11.1c0-2.5,0-5,0-7.4c-2.1,1.1-4.3,2.1-6.4,3.2
				c9.9-9.4,19.8-18.7,29.6-28c6.2,5.4,12.5,10.9,18.7,16.3c22.4-15,44.8-30,67.3-44.9C246.2,890.2,243.4,888.3,240.6,886.4z"/>
		</g>
		<g>
			<path class="st7" d="M211.3,826.8c6-0.4,12-0.2,18-0.2c4.3,0,7.9,3.9,7.9,8.1c0.1,3.7,0.3,7.4-0.2,11.1c-0.6,3.7-4,6.6-7.8,6.7
				c-5.5,0.1-11.1,0.1-16.6,0c-3.8-0.1-7.4-3.1-7.8-7c-0.3-4-0.3-8,0-11.9C205.2,830.3,208,827.5,211.3,826.8z"/>
		</g>
		<g>
			<path class="st7" d="M208.3,867.3c3.6-3.2,8.8-2.4,13.2-2.6c3.9,0.2,8.3-0.4,11.6,2.1c2.7,2,4.1,5.3,4.1,8.6
				c0.1,6.2,0,12.4,0,18.6c-10.8,7.2-21.4,14.7-32.5,21.5c-0.2-13,0-26-0.1-39.1C204.5,873.2,205.6,869.5,208.3,867.3z"/>
		</g>
		<g>
			<path class="st7" d="M173.3,866.5c5-0.5,10.1-0.3,15.2-0.2c3.2,0,5.6,3.2,5.3,6.3c-0.1,4,1.3,9.7-3.1,12.1
				c-5.5,1.3-11.3,0.8-16.9,0.3c-2.3-0.1-4.3-2.3-4.5-4.6c-0.3-3.2-0.3-6.4,0-9.5C169.6,868.8,171.4,867,173.3,866.5z"/>
		</g>
		<g>
			<path class="st7" d="M143.2,894.6c3.8-0.4,7.6-0.2,11.4-0.1c2.8-0.1,4.7,2.7,4.3,5.3c-0.1,2.9,0.8,7.3-2.7,8.6
				c-3.7,1-7.7,0.4-11.6,0.5c-2.7,0.1-5-2.4-4.9-5.1C139.5,900.6,139.2,895.5,143.2,894.6z"/>
		</g>
		<g>
			<path class="st7" d="M169.3,901.7c-0.1-3.6,3-6.9,6.6-7.2c3.5-0.2,7.1-0.2,10.7,0c3.8,0,7.2,3.5,7.2,7.3c0.1,7.1,0,14.3,0,21.4
				c-4,2.4-7.5,5.6-11.8,7.5c-4.4-3.4-8.4-7.3-12.7-10.9C169.3,913.8,169.2,907.8,169.3,901.7z"/>
		</g>
		<g>
			<path class="st7" d="M139.9,921.2c0.2-3,2.8-5.7,5.9-5.5c4.3,0,9.5-1.1,12.7,2.7c-6,6-12.2,11.9-18.6,17.6
				C139.8,931,139.5,926.1,139.9,921.2z"/>
		</g>
	</g>
</g>
</svg>
