<?xml version="1.0" encoding="utf-8"?>
<svg x="78.9621pt" y="167.999pt" width="682.923pt" height="220.818pt" viewBox="78.9621 167.999 682.923 220.818" xmlns="http://www.w3.org/2000/svg" xmlns:xlink="http://www.w3.org/1999/xlink">
  <defs>
    <title>Shape 28</title>
    <g id="1">
      <defs>
        <path id="2" d="M414.157,359.184 C414.157,359.184,404.667,383.458,404.667,383.458 C404.667,383.458,412.259,380.661,412.259,380.661 C412.259,380.661,415.855,387.853,415.855,387.853 C415.855,387.853,425.345,363.579,425.345,363.579 z"/>
      </defs>
      <use xlink:href="#2" style="fill:#005eb3;fill-opacity:1;fill-rule:evenodd;opacity:1;stroke:none;"/>
    </g>
  </defs>
  <use xlink:href="#1"/>
  <defs>
    <title>Shape 29</title>
    <g id="3">
      <defs>
        <path id="4" d="M421.349,359.184 C421.349,359.184,430.839,383.458,430.839,383.458 C430.839,383.458,423.247,380.661,423.247,380.661 C423.247,380.661,419.551,387.853,419.551,387.853 C419.551,387.853,410.161,363.579,410.161,363.579 z"/>
      </defs>
      <use xlink:href="#4" style="fill:#0072d9;fill-opacity:1;fill-rule:evenodd;opacity:1;stroke:none;"/>
    </g>
  </defs>
  <use xlink:href="#3"/>
  <defs>
    <title>Shape 30</title>
    <g id="5">
      <defs>
        <path id="6" d="M431.638,360.183 C431.638,360.183,431.638,360.183,431.638,360.183 C431.039,359.683,430.839,358.784,431.338,358.185 C431.938,357.386,431.538,356.287,430.639,355.987 C429.84,355.688,429.44,354.889,429.74,354.189 C429.74,354.189,429.74,354.189,429.74,354.189 C430.04,353.29,429.341,352.291,428.342,352.291 C427.542,352.291,426.943,351.692,426.943,350.893 C426.943,349.894,425.944,349.195,425.045,349.494 C424.246,349.694,423.447,349.295,423.247,348.595 C422.947,347.696,421.849,347.297,421.049,347.896 C420.45,348.396,419.551,348.196,419.052,347.596 C418.452,346.797,417.254,346.797,416.754,347.596 C416.255,348.196,415.356,348.396,414.756,347.896 C413.957,347.297,412.858,347.696,412.559,348.595 C412.259,349.394,411.46,349.794,410.76,349.494 C410.76,349.494,410.76,349.494,410.76,349.494 C409.861,349.195,408.862,349.894,408.862,350.893 C408.862,351.692,408.263,352.291,407.464,352.291 C406.465,352.291,405.766,353.29,406.066,354.189 C406.066,354.189,406.066,354.189,406.066,354.189 C406.265,354.988,405.866,355.788,405.166,355.987 C404.267,356.287,403.868,357.386,404.467,358.185 C404.967,358.784,404.767,359.683,404.168,360.183 C404.168,360.183,404.168,360.183,404.168,360.183 C403.368,360.782,403.368,361.981,404.168,362.48 C404.767,362.98,404.967,363.879,404.467,364.478 C403.868,365.277,404.267,366.376,405.166,366.676 C405.966,366.976,406.365,367.775,406.066,368.474 C405.766,369.373,406.465,370.372,407.464,370.372 C408.263,370.372,408.862,370.971,408.862,371.77 C408.862,372.769,409.861,373.469,410.76,373.169 C410.76,373.169,410.76,373.169,410.76,373.169 C411.56,372.969,412.359,373.369,412.559,374.068 C412.858,374.967,413.957,375.367,414.756,374.767 C415.356,374.268,416.255,374.468,416.754,375.067 C416.754,375.067,416.754,375.067,416.754,375.067 C417.353,375.866,418.552,375.866,419.052,375.067 C419.052,375.067,419.052,375.067,419.052,375.067 C419.551,374.468,420.45,374.268,421.049,374.767 C421.849,375.367,422.947,374.967,423.247,374.068 C423.547,373.269,424.346,372.869,425.045,373.169 C425.944,373.469,426.943,372.769,426.943,371.77 C426.943,370.971,427.542,370.372,428.342,370.372 C429.341,370.372,430.04,369.373,429.74,368.474 C429.54,367.675,429.94,366.876,430.639,366.676 C431.538,366.376,431.938,365.277,431.338,364.478 C430.839,363.879,431.039,362.98,431.638,362.48 C431.638,362.48,431.638,362.48,431.638,362.48 C432.437,361.981,432.437,360.782,431.638,360.183 z"/>
      </defs>
      <use xlink:href="#6" style="fill:#f2ba49;fill-opacity:1;fill-rule:evenodd;opacity:1;stroke:none;"/>
    </g>
  </defs>
  <use xlink:href="#5"/>
  <defs>
    <title>Shape 31</title>
    <g id="7">
      <defs>
        <path id="8" d="M429.94,361.382 C429.94,368.112,424.484,373.569,417.753,373.569 C411.022,373.569,405.566,368.112,405.566,361.382 C405.566,354.651,411.022,349.195,417.753,349.195 C424.484,349.195,429.94,354.651,429.94,361.382"/>
      </defs>
      <use xlink:href="#8" style="fill:#ffd34d;fill-opacity:1;fill-rule:evenodd;opacity:1;stroke:none;"/>
    </g>
  </defs>
  <use xlink:href="#7"/>
  <defs>
    <title>Shape 32</title>
    <g id="9">
      <defs>
        <path id="10" d="M417.753,371.771 C412.059,371.771,407.364,367.076,407.364,361.382 C407.364,355.688,412.059,350.993,417.753,350.993 C423.447,350.993,428.142,355.688,428.142,361.382 C428.142,367.076,423.447,371.771,417.753,371.771 z M417.753,351.792 C412.459,351.792,408.163,356.087,408.163,361.382 C408.163,366.676,412.459,370.971,417.753,370.971 C423.047,370.971,427.343,366.676,427.343,361.382 C427.343,356.087,423.047,351.792,417.753,351.792 z"/>
      </defs>
      <use xlink:href="#10" style="fill:#f2ba49;fill-opacity:1;fill-rule:evenodd;opacity:1;stroke:none;"/>
    </g>
  </defs>
  <use xlink:href="#9"/>
  <defs>
    <title>Shape 33</title>
    <g id="11">
      <defs>
        <path id="12" d="M412.359,358.285 C415.955,358.285,419.551,358.285,423.147,358.285 C423.147,358.551,423.147,358.818,423.147,359.084 C419.551,359.084,415.955,359.084,412.359,359.084 C412.359,358.818,412.359,358.551,412.359,358.285 z"/>
      </defs>
      <use xlink:href="#12" style="fill:#f2ba49;fill-opacity:1;fill-rule:evenodd;opacity:1;stroke:none;"/>
    </g>
  </defs>
  <use xlink:href="#11"/>
  <defs>
    <title>Shape 34</title>
    <g id="13">
      <defs>
        <path id="14" d="M412.359,360.982 C415.955,360.982,419.551,360.982,423.147,360.982 C423.147,361.248,423.147,361.515,423.147,361.781 C419.551,361.781,415.955,361.781,412.359,361.781 C412.359,361.515,412.359,361.248,412.359,360.982 z"/>
      </defs>
      <use xlink:href="#14" style="fill:#f2ba49;fill-opacity:1;fill-rule:evenodd;opacity:1;stroke:none;"/>
    </g>
  </defs>
  <use xlink:href="#13"/>
  <defs>
    <title>Shape 35</title>
    <g id="15">
      <defs>
        <path id="16" d="M412.359,363.679 C415.955,363.679,419.551,363.679,423.147,363.679 C423.147,363.946,423.147,364.212,423.147,364.478 C419.551,364.478,415.955,364.478,412.359,364.478 C412.359,364.212,412.359,363.946,412.359,363.679 z"/>
      </defs>
      <use xlink:href="#16" style="fill:#f2ba49;fill-opacity:1;fill-rule:evenodd;opacity:1;stroke:none;"/>
    </g>
  </defs>
  <use xlink:href="#15"/>
  <defs>
    <title>Shape 36</title>
    <g id="17">
      <defs>
        <path id="18" d="M404.367,350.493 C404.367,350.493,404.367,349.295,404.367,349.295 C404.367,349.295,403.668,349.295,403.668,349.295 C403.668,349.295,403.668,350.493,403.668,350.493 C403.668,350.493,402.469,350.493,402.469,350.493 C402.469,350.493,402.469,351.193,402.469,351.193 C402.469,351.193,403.668,351.193,403.668,351.193 C403.668,351.193,403.668,352.391,403.668,352.391 C403.668,352.391,404.367,352.391,404.367,352.391 C404.367,352.391,404.367,351.193,404.367,351.193 C404.367,351.193,405.566,351.193,405.566,351.193 C405.566,351.193,405.566,350.493,405.566,350.493 z"/>
      </defs>
      <use xlink:href="#18" style="fill:#f2ba49;fill-opacity:1;fill-rule:evenodd;opacity:1;stroke:none;"/>
    </g>
  </defs>
  <use xlink:href="#17"/>
  <defs>
    <title>Shape 37</title>
    <g id="19">
      <defs>
        <path id="20" d="M433.736,355.388 C433.736,355.388,433.736,354.389,433.736,354.389 C433.736,354.389,433.236,354.389,433.236,354.389 C433.236,354.389,433.236,355.388,433.236,355.388 C433.236,355.388,432.237,355.388,432.237,355.388 C432.237,355.388,432.237,355.888,432.237,355.888 C432.237,355.888,433.236,355.888,433.236,355.888 C433.236,355.888,433.236,356.886,433.236,356.886 C433.236,356.886,433.736,356.886,433.736,356.886 C433.736,356.886,433.736,355.888,433.736,355.888 C433.736,355.888,434.735,355.888,434.735,355.888 C434.735,355.888,434.735,355.388,434.735,355.388 z"/>
      </defs>
      <use xlink:href="#20" style="fill:#ffd34d;fill-opacity:1;fill-rule:evenodd;opacity:1;stroke:none;"/>
    </g>
  </defs>
  <use xlink:href="#19"/>
  <defs>
    <title>Shape 38</title>
    <g id="21">
      <defs>
        <path id="22" d="M431.338,373.569 C431.338,374.12,430.891,374.568,430.339,374.568 C429.788,374.568,429.341,374.12,429.341,373.569 C429.341,373.017,429.788,372.57,430.339,372.57 C430.891,372.57,431.338,373.017,431.338,373.569"/>
      </defs>
      <use xlink:href="#22" style="fill:#ffd34d;fill-opacity:1;fill-rule:evenodd;opacity:1;stroke:none;"/>
    </g>
  </defs>
  <use xlink:href="#21"/>
  <defs>
    <title>Shape 39</title>
    <g id="23">
      <defs>
        <path id="24" d="M406.065,373.269 C406.065,373.668,405.766,373.968,405.366,373.968 C404.967,373.968,404.667,373.669,404.667,373.269 C404.667,372.869,404.967,372.57,405.366,372.57 C405.766,372.57,406.065,372.869,406.065,373.269 z"/>
      </defs>
      <use xlink:href="#24" style="fill:#ffd34d;fill-opacity:1;fill-rule:evenodd;opacity:1;stroke:none;"/>
    </g>
  </defs>
  <use xlink:href="#23"/>
  <defs>
    <title>Shape 40</title>
    <g id="25">
      <defs>
        <path id="26" d="M404.967,370.172 C404.967,370.772,404.467,371.271,403.868,371.271 C403.268,371.271,402.769,370.772,402.769,370.172 C402.769,369.573,403.268,369.073,403.868,369.073 C404.467,369.173,404.967,369.573,404.967,370.172 z"/>
      </defs>
      <use xlink:href="#26" style="fill:#f2ba49;fill-opacity:1;fill-rule:evenodd;opacity:1;stroke:none;"/>
    </g>
  </defs>
  <use xlink:href="#25"/>
  <defs>
    <title>Shape 41</title>
    <g id="27">
      <defs>
        <path id="28" d="M432.337,352.391 C432.337,352.791,432.038,353.091,431.638,353.091 C431.239,353.091,430.939,352.791,430.939,352.391 C430.939,351.992,431.238,351.692,431.638,351.692 C431.938,351.692,432.337,351.992,432.337,352.391 z"/>
      </defs>
      <use xlink:href="#28" style="fill:#f2ba49;fill-opacity:1;fill-rule:evenodd;opacity:1;stroke:none;"/>
    </g>
  </defs>
  <use xlink:href="#27"/>
  <defs>
    <title>Shape 43</title>
    <g id="29">
      <defs>
        <path id="30" d="M348.727,322.723 C343.333,322.723,338.038,321.924,332.944,320.326 C327.849,318.727,323.354,316.43,319.358,313.233 C315.662,310.136,312.665,306.241,310.568,301.646 C308.37,297.05,307.271,291.756,307.171,285.663 C317.827,285.663,328.482,285.663,339.137,285.663 C339.137,288.16,339.637,290.058,340.635,291.656 C341.634,293.155,342.833,294.353,344.132,295.152 C345.53,295.952,346.929,296.451,348.527,296.651 C350.125,296.751,351.524,296.751,352.822,296.451 C354.321,296.052,355.52,295.352,356.419,294.353 C357.318,293.354,357.817,292.156,357.817,290.757 C357.817,289.359,357.218,287.96,356.119,286.462 C355.02,284.963,352.822,283.365,349.726,281.867 C345.63,279.669,339.936,277.871,332.644,276.273 C329.248,275.374,325.951,274.275,323.054,272.876 C320.057,271.478,317.46,269.88,315.163,267.882 C312.066,265.185,309.669,261.988,308.07,257.992 C306.472,254.096,305.773,249.302,305.973,243.708 C306.172,238.813,307.471,234.517,309.968,231.021 C312.466,227.425,315.462,224.428,319.258,222.131 C322.954,219.733,327.15,218.035,331.745,216.936 C336.34,215.837,340.835,215.238,345.33,215.238 C353.022,215.238,359.415,216.037,364.71,217.635 C370.004,219.234,374.299,221.431,377.696,224.228 C381.092,227.025,383.589,230.522,385.288,234.417 C386.986,238.413,387.985,242.709,388.185,247.404 C378.229,247.404,368.273,247.404,358.317,247.404 C358.317,245.506,357.917,244.007,357.018,242.709 C356.219,241.41,355.12,240.411,353.821,239.712 C352.523,239.013,351.124,238.513,349.726,238.313 C348.227,238.114,346.929,238.114,345.63,238.213 C343.532,238.413,341.834,239.013,340.336,240.012 C338.837,241.01,338.138,242.509,338.138,244.507 C338.138,246.505,339.237,248.103,341.335,249.302 C343.532,250.5,347.328,251.699,352.922,252.898 C358.017,253.997,363.012,255.495,367.906,257.293 C372.801,259.191,377.196,261.489,381.092,264.385 C384.988,267.282,388.085,270.679,390.482,274.575 C392.88,278.47,393.978,282.966,393.978,288.16 C393.978,294.054,392.78,299.148,390.482,303.444 C388.085,307.739,384.888,311.335,380.792,314.232 C376.697,317.129,371.802,319.227,366.308,320.625 C360.914,322.024,354.92,322.723,348.727,322.723 z"/>
      </defs>
      <use xlink:href="#30" style="fill:#0a3557;fill-opacity:1;fill-rule:evenodd;opacity:1;stroke:none;"/>
    </g>
  </defs>
  <use xlink:href="#29"/>
  <defs>
    <title>Shape 44</title>
    <g id="31">
      <defs>
        <path id="32" d="M400.471,320.226 C410.294,285.929,420.117,251.632,429.94,217.336 C429.94,217.336,470.496,217.336,470.496,217.336 C480.253,251.632,490.009,285.929,499.765,320.226 C488.044,320.226,476.324,320.226,464.603,320.226 C463.171,313.999,461.739,307.772,460.307,301.546 C452.749,301.546,445.19,301.546,437.632,301.546 C436.067,307.772,434.502,313.999,432.937,320.226 C432.937,320.226,400.471,320.226,400.471,320.226 z M441.428,276.872 C441.428,276.872,456.511,276.872,456.511,276.872 C454.047,266.184,451.583,255.495,449.119,244.806 C449.119,244.806,441.428,276.872,441.428,276.872 z"/>
      </defs>
      <use xlink:href="#32" style="fill:#0a3557;fill-opacity:1;fill-rule:evenodd;opacity:1;stroke:none;"/>
    </g>
  </defs>
  <use xlink:href="#31"/>
  <defs>
    <title>Shape 45</title>
    <g id="33">
      <defs>
        <path id="34" d="M510.554,320.226 C510.554,285.929,510.554,251.632,510.554,217.336 C522.141,217.336,533.729,217.336,545.316,217.336 C545.316,242.609,545.316,267.882,545.316,293.155 C554.773,293.155,564.23,293.155,573.686,293.155 C573.686,302.178,573.686,311.202,573.686,320.226 C573.686,320.226,510.554,320.226,510.554,320.226 z"/>
      </defs>
      <use xlink:href="#34" style="fill:#0a3557;fill-opacity:1;fill-rule:evenodd;opacity:1;stroke:none;"/>
    </g>
  </defs>
  <use xlink:href="#33"/>
  <defs>
    <title>Shape 46</title>
    <g id="35">
      <defs>
        <path id="36" d="M588.37,320.226 C588.37,285.929,588.37,251.632,588.37,217.336 C588.37,217.336,661.292,217.336,661.292,217.336 C661.292,217.336,661.292,244.906,661.292,244.906 C648.672,244.906,636.053,244.906,623.433,244.906 C623.433,248.869,623.433,252.831,623.433,256.794 C634.621,256.794,645.809,256.794,656.997,256.794 C656.997,265.018,656.997,273.243,656.997,281.467 C645.809,281.467,634.621,281.467,623.433,281.467 C623.433,285.33,623.433,289.192,623.433,293.055 C623.433,293.055,661.292,293.055,661.292,293.055 C661.292,302.078,661.292,311.102,661.292,320.126 C661.292,320.126,588.37,320.126,588.37,320.126 z"/>
      </defs>
      <use xlink:href="#36" style="fill:#0a3557;fill-opacity:1;fill-rule:evenodd;opacity:1;stroke:none;"/>
    </g>
  </defs>
  <use xlink:href="#35"/>
  <defs>
    <title>Shape 47</title>
    <g id="37">
      <defs>
        <path id="38" d="M716.633,322.723 C711.239,322.723,705.945,321.924,700.85,320.326 C695.755,318.727,691.26,316.43,687.265,313.233 C683.569,310.136,680.572,306.241,678.474,301.646 C676.276,297.05,675.178,291.756,675.078,285.663 C685.733,285.663,696.388,285.663,707.043,285.663 C707.043,288.16,707.543,290.058,708.542,291.656 C709.541,293.155,710.739,294.353,712.038,295.152 C713.437,295.952,714.835,296.451,716.433,296.651 C718.032,296.751,719.43,296.751,720.729,296.451 C722.227,296.052,723.426,295.352,724.325,294.353 C725.224,293.354,725.723,292.156,725.723,290.757 C725.723,289.359,725.124,287.96,724.025,286.462 C722.926,284.963,720.729,283.365,717.632,281.867 C713.536,279.669,707.843,277.871,700.55,276.273 C697.154,275.374,693.857,274.275,690.961,272.876 C687.964,271.478,685.367,269.88,683.069,267.882 C679.972,265.185,677.575,261.988,675.977,257.992 C674.378,254.096,673.679,249.302,673.879,243.708 C674.079,238.813,675.377,234.517,677.875,231.021 C680.372,227.425,683.369,224.428,687.165,222.131 C690.861,219.733,695.056,218.035,699.651,216.936 C704.246,215.837,708.742,215.238,713.237,215.238 C720.929,215.238,727.322,216.037,732.616,217.635 C737.91,219.234,742.206,221.431,745.602,224.228 C748.999,227.025,751.496,230.522,753.194,234.417 C754.892,238.413,755.891,242.709,756.091,247.404 C746.135,247.404,736.179,247.404,726.223,247.404 C726.223,245.506,725.823,244.007,724.924,242.709 C724.125,241.41,723.026,240.411,721.728,239.712 C720.429,239.013,719.031,238.513,717.632,238.313 C716.134,238.114,714.735,238.114,713.536,238.213 C711.439,238.413,709.741,239.013,708.242,240.012 C706.744,241.01,706.045,242.509,706.045,244.507 C706.045,246.505,707.143,248.103,709.241,249.302 C711.439,250.5,715.235,251.699,720.829,252.898 C725.923,253.997,730.918,255.495,735.813,257.293 C740.707,259.191,745.103,261.489,748.999,264.385 C752.894,267.282,755.991,270.679,758.389,274.575 C760.786,278.47,761.885,282.966,761.885,288.16 C761.885,294.054,760.686,299.148,758.389,303.444 C755.991,307.739,752.795,311.335,748.699,314.232 C744.603,317.129,739.708,319.227,734.214,320.625 C728.82,322.024,722.926,322.723,716.633,322.723 z"/>
      </defs>
      <use xlink:href="#38" style="fill:#0a3557;fill-opacity:1;fill-rule:evenodd;opacity:1;stroke:none;"/>
    </g>
  </defs>
  <use xlink:href="#37"/>
  <defs>
    <title>Shape 48</title>
    <g id="39">
      <defs>
        <path id="40" d="M321.256,369.773 C320.657,369.173,319.858,368.374,318.959,367.475 C316.661,369.173,313.864,370.272,310.568,370.272 C304.974,370.272,300.478,367.375,300.478,361.382 C300.478,356.787,303.575,354.289,307.071,352.491 C305.873,350.293,305.074,347.996,305.074,345.898 C305.074,341.803,308.67,338.606,313.764,338.606 C318.06,338.606,321.756,340.904,321.756,345.099 C321.756,349.794,318.06,351.792,314.264,353.49 C315.163,354.689,316.062,355.888,316.861,356.787 C317.76,357.885,318.559,358.984,319.458,359.983 C320.757,357.985,321.656,355.788,322.255,353.99 C323.787,354.722,325.319,355.455,326.85,356.187 C325.751,358.585,324.353,361.182,322.555,363.479 C324.353,365.477,326.351,367.475,328.449,369.673 C328.449,369.673,321.256,369.673,321.256,369.673 z M315.862,364.179 C314.464,362.68,313.165,361.182,312.466,360.283 C311.467,359.084,310.368,357.686,309.369,356.287 C307.771,357.386,306.672,358.884,306.672,360.982 C306.672,363.979,308.869,365.777,311.367,365.777 C312.965,365.777,314.464,365.178,315.862,364.179 z M312.166,350.393 C314.763,349.195,316.761,347.796,316.761,345.599 C316.761,344,315.562,343.001,314.064,343.001 C312.266,343.001,310.867,344.3,310.867,346.298 C310.867,347.497,311.367,348.895,312.166,350.393 z"/>
      </defs>
      <use xlink:href="#40" style="fill:#2c3e50;fill-opacity:1;fill-rule:evenodd;opacity:1;stroke:none;"/>
    </g>
  </defs>
  <use xlink:href="#39"/>
  <defs>
    <title>Shape 49</title>
    <g id="41">
      <defs>
        <path id="42" d="M343.932,369.773 C343.932,359.584,343.932,349.394,343.932,339.205 C348.694,339.205,353.455,339.205,358.217,339.205 C364.91,339.205,368.506,343.701,368.506,349.095 C368.506,354.389,364.81,358.884,358.217,358.884 C355.619,358.884,353.022,358.884,350.425,358.884 C350.425,358.884,350.425,369.773,350.425,369.773 C350.425,369.773,343.932,369.773,343.932,369.773 z M361.813,349.095 C361.813,346.498,359.815,344.999,357.318,344.999 C355.02,344.999,352.723,344.999,350.425,344.999 C350.425,347.73,350.425,350.46,350.425,353.19 C352.723,353.19,355.02,353.19,357.318,353.19 C359.815,353.19,361.813,351.592,361.813,349.095 z"/>
      </defs>
      <use xlink:href="#42" style="fill:#2c3e50;fill-opacity:1;fill-rule:evenodd;opacity:1;stroke:none;"/>
    </g>
  </defs>
  <use xlink:href="#41"/>
  <defs>
    <title>Shape 50</title>
    <g id="43">
      <defs>
        <path id="44" d="M389.783,369.773 C387.785,366.143,385.787,362.514,383.789,358.884 C382.191,358.884,380.593,358.884,378.994,358.884 C378.994,358.884,378.994,369.773,378.994,369.773 C376.83,369.773,374.666,369.773,372.501,369.773 C372.501,359.584,372.501,349.394,372.501,339.205 C377.263,339.205,382.025,339.205,386.786,339.205 C393.179,339.205,397.075,343.401,397.075,349.095 C397.075,354.489,393.679,357.386,390.382,358.185 C392.68,362.081,394.977,365.977,397.275,369.873 C397.275,369.873,389.783,369.873,389.783,369.873 z M390.482,348.995 C390.482,346.498,388.484,344.899,385.987,344.899 C383.689,344.899,381.392,344.899,379.094,344.899 C379.094,347.663,379.094,350.427,379.094,353.19 C381.392,353.19,383.689,353.19,385.987,353.19 C388.484,353.19,390.482,351.692,390.482,348.995 z"/>
      </defs>
      <use xlink:href="#44" style="fill:#2c3e50;fill-opacity:1;fill-rule:evenodd;opacity:1;stroke:none;"/>
    </g>
  </defs>
  <use xlink:href="#43"/>
  <defs>
    <title>Shape 51</title>
    <g id="45">
      <defs>
        <path id="46" d="M463.704,369.773 C463.704,369.773,463.704,347.796,463.704,347.796 C460.84,355.155,457.977,362.514,455.113,369.873 C454.181,369.873,453.248,369.873,452.316,369.873 C449.452,362.514,446.589,355.155,443.725,347.796 C443.725,347.796,443.725,369.773,443.725,369.773 C441.561,369.773,439.396,369.773,437.232,369.773 C437.232,359.584,437.232,349.394,437.232,339.205 C440.262,339.205,443.292,339.205,446.322,339.205 C448.786,345.565,451.25,351.925,453.714,358.285 C456.178,351.925,458.643,345.565,461.107,339.205 C464.17,339.205,467.233,339.205,470.297,339.205 C470.297,339.205,470.297,369.773,470.297,369.773 C470.297,369.773,463.704,369.773,463.704,369.773 z"/>
      </defs>
      <use xlink:href="#46" style="fill:#2c3e50;fill-opacity:1;fill-rule:evenodd;opacity:1;stroke:none;"/>
    </g>
  </defs>
  <use xlink:href="#45"/>
  <defs>
    <title>Shape 52</title>
    <g id="47">
      <defs>
        <path id="48" d="M474.892,354.489 C474.892,345.299,481.585,338.706,490.875,338.706 C500.065,338.706,506.858,345.299,506.858,354.489 C506.858,363.679,500.165,370.272,490.875,370.272 C481.585,370.372,474.892,363.779,474.892,354.489 z M500.065,354.489 C500.065,348.795,496.469,344.4,490.775,344.4 C485.081,344.4,481.485,348.695,481.485,354.489 C481.485,360.183,485.081,364.578,490.775,364.578 C496.469,364.578,500.065,360.183,500.065,354.489 z"/>
      </defs>
      <use xlink:href="#48" style="fill:#2c3e50;fill-opacity:1;fill-rule:evenodd;opacity:1;stroke:none;"/>
    </g>
  </defs>
  <use xlink:href="#47"/>
  <defs>
    <title>Shape 53</title>
    <g id="49">
      <defs>
        <path id="50" d="M517.346,369.773 C517.346,361.482,517.346,353.19,517.346,344.899 C517.346,344.899,508.456,344.899,508.456,344.899 C508.456,343.001,508.456,341.103,508.456,339.205 C516.581,339.205,524.705,339.205,532.83,339.205 C532.83,341.103,532.83,343.001,532.83,344.899 C529.866,344.899,526.903,344.899,523.939,344.899 C523.939,344.899,523.939,369.773,523.939,369.773 C523.939,369.773,517.346,369.773,517.346,369.773 z"/>
      </defs>
      <use xlink:href="#50" style="fill:#2c3e50;fill-opacity:1;fill-rule:evenodd;opacity:1;stroke:none;"/>
    </g>
  </defs>
  <use xlink:href="#49"/>
  <defs>
    <title>Shape 54</title>
    <g id="51">
      <defs>
        <path id="52" d="M537.025,369.773 C537.025,359.584,537.025,349.394,537.025,339.205 C539.19,339.205,541.354,339.205,543.518,339.205 C543.518,339.205,543.518,369.773,543.518,369.773 C543.518,369.773,537.025,369.773,537.025,369.773 z"/>
      </defs>
      <use xlink:href="#52" style="fill:#2c3e50;fill-opacity:1;fill-rule:evenodd;opacity:1;stroke:none;"/>
    </g>
  </defs>
  <use xlink:href="#51"/>
  <defs>
    <title>Shape 55</title>
    <g id="53">
      <defs>
        <path id="54" d="M548.113,354.489 C548.113,345.299,554.806,338.706,564.096,338.706 C573.286,338.706,580.079,345.299,580.079,354.489 C580.079,363.679,573.386,370.272,564.096,370.272 C554.806,370.372,548.113,363.779,548.113,354.489 z M573.386,354.489 C573.386,348.795,569.79,344.4,564.096,344.4 C558.402,344.4,554.806,348.695,554.806,354.489 C554.806,360.183,558.402,364.578,564.096,364.578 C569.69,364.578,573.386,360.183,573.386,354.489 z"/>
      </defs>
      <use xlink:href="#54" style="fill:#2c3e50;fill-opacity:1;fill-rule:evenodd;opacity:1;stroke:none;"/>
    </g>
  </defs>
  <use xlink:href="#53"/>
  <defs>
    <title>Shape 56</title>
    <g id="55">
      <defs>
        <path id="56" d="M605.752,369.773 C600.89,363.113,596.029,356.454,591.167,349.794 C591.167,356.454,591.167,363.113,591.167,369.773 C589.003,369.773,586.839,369.773,584.674,369.773 C584.674,359.584,584.674,349.394,584.674,339.205 C586.905,339.205,589.136,339.205,591.367,339.205 C596.095,345.599,600.824,351.992,605.552,358.385 C605.552,351.992,605.552,345.599,605.552,339.205 C607.716,339.205,609.881,339.205,612.045,339.205 C612.045,339.205,612.045,369.773,612.045,369.773 C612.045,369.773,605.752,369.773,605.752,369.773 z"/>
      </defs>
      <use xlink:href="#56" style="fill:#2c3e50;fill-opacity:1;fill-rule:evenodd;opacity:1;stroke:none;"/>
    </g>
  </defs>
  <use xlink:href="#55"/>
  <defs>
    <title>Shape 57</title>
    <g id="57">
      <defs>
        <path id="58" d="M615.941,365.477 C617.14,363.779,618.338,362.081,619.537,360.383 C621.735,362.58,625.031,364.578,629.227,364.578 C632.823,364.578,634.521,362.98,634.521,361.182 C634.521,355.888,616.94,359.584,616.94,348.096 C616.94,343.001,621.335,338.806,628.527,338.806 C633.422,338.806,637.418,340.304,640.415,343.101 C639.216,344.733,638.017,346.364,636.819,347.996 C634.321,345.698,631.025,344.6,627.928,344.6 C625.131,344.6,623.633,345.798,623.633,347.596 C623.633,352.391,641.214,349.195,641.214,360.583 C641.214,366.177,637.218,370.372,628.927,370.372 C623.033,370.372,618.838,368.374,615.941,365.477 z"/>
      </defs>
      <use xlink:href="#58" style="fill:#2c3e50;fill-opacity:1;fill-rule:evenodd;opacity:1;stroke:none;"/>
    </g>
  </defs>
  <use xlink:href="#57"/>
  <defs>
    <title>Shape 58</title>
    <g id="59">
      <defs>
        <path id="60" d="M655.199,365.477 C656.398,363.779,657.596,362.081,658.795,360.383 C660.993,362.58,664.289,364.578,668.485,364.578 C672.081,364.578,673.779,362.98,673.779,361.182 C673.779,355.888,656.198,359.584,656.198,348.096 C656.198,343.001,660.593,338.806,667.785,338.806 C672.68,338.806,676.676,340.304,679.673,343.101 C678.474,344.733,677.275,346.364,676.077,347.996 C673.579,345.698,670.283,344.6,667.186,344.6 C664.389,344.6,662.891,345.798,662.891,347.596 C662.891,352.391,680.472,349.195,680.472,360.583 C680.472,366.177,676.476,370.372,668.185,370.372 C662.391,370.372,658.096,368.374,655.199,365.477 z"/>
      </defs>
      <use xlink:href="#60" style="fill:#2c3e50;fill-opacity:1;fill-rule:evenodd;opacity:1;stroke:none;"/>
    </g>
  </defs>
  <use xlink:href="#59"/>
  <defs>
    <title>Shape 59</title>
    <g id="61">
      <defs>
        <path id="62" d="M702.149,369.773 C700.151,366.143,698.153,362.514,696.155,358.884 C694.557,358.884,692.958,358.884,691.36,358.884 C691.36,358.884,691.36,369.773,691.36,369.773 C689.196,369.773,687.031,369.773,684.867,369.773 C684.867,359.584,684.867,349.394,684.867,339.205 C689.629,339.205,694.39,339.205,699.152,339.205 C705.545,339.205,709.441,343.401,709.441,349.095 C709.441,354.489,706.044,357.386,702.748,358.185 C705.045,362.081,707.343,365.977,709.641,369.873 C709.641,369.873,702.149,369.873,702.149,369.873 z M702.748,348.995 C702.748,346.498,700.75,344.899,698.253,344.899 C695.955,344.899,693.658,344.899,691.36,344.899 C691.36,347.663,691.36,350.427,691.36,353.19 C693.658,353.19,695.955,353.19,698.253,353.19 C700.85,353.19,702.748,351.692,702.748,348.995 z"/>
      </defs>
      <use xlink:href="#62" style="fill:#2c3e50;fill-opacity:1;fill-rule:evenodd;opacity:1;stroke:none;"/>
    </g>
  </defs>
  <use xlink:href="#61"/>
  <defs>
    <title>Shape 60</title>
    <g id="63">
      <defs>
        <path id="64" d="M714.036,369.773 C714.036,359.584,714.036,349.394,714.036,339.205 C716.234,339.205,718.431,339.205,720.629,339.205 C720.629,347.496,720.629,355.788,720.629,364.079 C724.924,364.079,729.22,364.079,733.515,364.079 C733.515,365.977,733.515,367.875,733.515,369.773 C733.515,369.773,714.036,369.773,714.036,369.773 z"/>
      </defs>
      <use xlink:href="#64" style="fill:#2c3e50;fill-opacity:1;fill-rule:evenodd;opacity:1;stroke:none;"/>
    </g>
  </defs>
  <use xlink:href="#63"/>
  <defs>
    <title>Shape 61</title>
    <g id="65">
      <defs>
        <path id="66" d="M735.813,365.477 C737.011,363.779,738.21,362.081,739.409,360.383 C741.606,362.58,744.903,364.578,749.098,364.578 C752.695,364.578,754.393,362.98,754.393,361.182 C754.393,355.888,736.812,359.584,736.812,348.096 C736.812,343.001,741.207,338.806,748.399,338.806 C753.294,338.806,757.29,340.304,760.286,343.101 C759.088,344.733,757.889,346.364,756.69,347.996 C754.193,345.698,750.896,344.6,747.8,344.6 C745.003,344.6,743.504,345.798,743.504,347.596 C743.504,352.391,761.086,349.195,761.086,360.583 C761.086,366.177,757.09,370.372,748.799,370.372 C743.005,370.372,738.709,368.374,735.813,365.477 z"/>
      </defs>
      <use xlink:href="#66" style="fill:#2c3e50;fill-opacity:1;fill-rule:evenodd;opacity:1;stroke:none;"/>
    </g>
  </defs>
  <use xlink:href="#65"/>
  <defs>
    <title>Shape 62</title>
    <g id="67">
      <defs>
        <path id="68" d="M108.784,202.851 C127.963,182.273,155.234,169.487,183.304,168.188 C214.67,166.29,246.336,178.777,268.113,201.453 C281.998,215.738,291.988,233.818,296.483,253.197 C303.275,281.867,297.981,313.133,282.098,337.907 C276.904,332.812,271.709,327.618,266.515,322.423 C274.406,308.438,278.502,292.455,278.102,276.473 C277.803,258.891,272.009,241.51,261.92,227.125 C251.031,211.742,235.248,199.855,217.267,193.961 C200.186,188.267,181.406,187.967,164.124,192.962 C143.846,198.856,125.965,212.241,114.577,229.922 C96.2969,257.393,95.4978,295.053,112.38,323.322 C120.971,337.907,133.757,350.094,148.841,357.786 C167.92,367.575,190.696,370.072,211.474,364.678 C226.757,360.782,240.942,352.591,252.13,341.403 C257.125,346.398,262.219,351.492,267.214,356.487 C256.426,367.275,243.34,375.866,229.155,381.36 C207.378,389.851,182.804,391.15,160.229,384.956 C133.757,377.864,110.282,360.383,95.7974,337.108 C83.2109,317.229,77.4171,293.155,79.3151,269.68 C81.1132,244.906,91.7019,220.932,108.784,202.851 z"/>
      </defs>
      <use xlink:href="#68" style="fill:#0a3557;fill-opacity:1;fill-rule:evenodd;opacity:1;stroke:none;"/>
    </g>
  </defs>
  <use xlink:href="#67"/>
  <defs>
    <title>Shape 63</title>
    <g id="69">
      <defs>
        <path id="70" d="M240.343,274.674 C250.832,274.175,261.32,273.576,271.809,273.076 C268.313,282.566,264.717,291.956,261.22,301.346 C260.321,298.649,259.422,295.952,258.623,293.255 C251.431,298.049,244.139,302.545,236.946,307.439 C237.046,318.927,236.946,330.515,236.946,342.002 C227.357,349.095,216.269,354.089,204.581,356.487 C204.581,347.097,204.581,337.707,204.581,328.317 C200.985,330.714,197.289,333.012,193.693,335.509 C193.693,343.001,193.693,350.393,193.693,357.885 C185.402,358.285,177.11,357.486,169.019,355.488 C168.819,347.097,169.419,338.606,168.719,330.215 C166.422,327.518,163.725,325.22,161.327,322.723 C160.728,323.023,159.429,323.722,158.83,324.022 C158.73,333.412,158.83,342.802,158.83,352.191 C152.037,349.395,145.544,345.599,139.75,341.103 C139.75,338.606,139.75,336.109,139.75,333.711 C137.653,334.81,135.455,335.809,133.357,336.908 C143.247,327.518,153.136,318.228,162.926,308.938 C169.119,314.332,175.412,319.826,181.606,325.22 C203.982,310.236,226.358,295.252,248.834,280.368 C245.937,278.37,243.14,276.572,240.343,274.674 z"/>
      </defs>
      <use xlink:href="#70" style="fill:#0a3557;fill-opacity:1;fill-rule:evenodd;opacity:1;stroke:none;"/>
    </g>
  </defs>
  <use xlink:href="#69"/>
  <defs>
    <title>Shape 64</title>
    <g id="71">
      <defs>
        <path id="72" d="M211.074,215.138 C217.068,214.739,223.061,214.938,229.055,214.938 C233.35,214.938,236.946,218.834,236.946,223.03 C237.046,226.726,237.246,230.422,236.747,234.118 C236.147,237.814,232.751,240.711,228.955,240.811 C223.461,240.911,217.867,240.911,212.373,240.811 C208.577,240.711,204.981,237.714,204.581,233.818 C204.281,229.822,204.281,225.827,204.581,221.931 C204.981,218.634,207.778,215.738,211.074,215.138 z"/>
      </defs>
      <use xlink:href="#72" style="fill:#ff8946;fill-opacity:1;fill-rule:evenodd;opacity:1;stroke:none;"/>
    </g>
  </defs>
  <use xlink:href="#71"/>
  <defs>
    <title>Shape 65</title>
    <g id="73">
      <defs>
        <path id="74" d="M208.077,255.595 C211.673,252.398,216.868,253.197,221.263,252.998 C225.159,253.197,229.554,252.598,232.851,255.095 C235.548,257.093,236.946,260.39,236.946,263.686 C237.046,269.88,236.946,276.073,236.946,282.266 C226.158,289.459,215.569,296.951,204.481,303.743 C204.281,290.757,204.481,277.771,204.381,264.685 C204.281,261.389,205.38,257.792,208.077,255.595 z"/>
      </defs>
      <use xlink:href="#74" style="fill:#ff8946;fill-opacity:1;fill-rule:evenodd;opacity:1;stroke:none;"/>
    </g>
  </defs>
  <use xlink:href="#73"/>
  <defs>
    <title>Shape 66</title>
    <g id="75">
      <defs>
        <path id="76" d="M173.115,254.796 C178.109,254.296,183.204,254.496,188.298,254.596 C191.495,254.596,193.893,257.793,193.593,260.889 C193.493,264.885,194.891,270.579,190.496,272.976 C185.002,274.275,179.208,273.775,173.614,273.276 C171.317,273.176,169.319,270.978,169.119,268.681 C168.819,265.484,168.819,262.288,169.119,259.191 C169.419,257.093,171.217,255.295,173.115,254.796 z"/>
      </defs>
      <use xlink:href="#76" style="fill:#ff8946;fill-opacity:1;fill-rule:evenodd;opacity:1;stroke:none;"/>
    </g>
  </defs>
  <use xlink:href="#75"/>
  <defs>
    <title>Shape 67</title>
    <g id="77">
      <defs>
        <path id="78" d="M143.047,282.866 C146.843,282.466,150.639,282.666,154.435,282.766 C157.232,282.666,159.13,285.463,158.73,288.06 C158.63,290.957,159.529,295.352,156.033,296.651 C152.337,297.65,148.341,297.05,144.445,297.15 C141.748,297.25,139.451,294.753,139.551,292.056 C139.351,288.859,139.051,283.765,143.047,282.866 z"/>
      </defs>
      <use xlink:href="#78" style="fill:#ff8946;fill-opacity:1;fill-rule:evenodd;opacity:1;stroke:none;"/>
    </g>
  </defs>
  <use xlink:href="#77"/>
  <defs>
    <title>Shape 68</title>
    <g id="79">
      <defs>
        <path id="80" d="M169.119,289.958 C169.019,286.362,172.116,283.065,175.712,282.766 C179.208,282.566,182.804,282.566,186.401,282.766 C190.196,282.766,193.593,286.262,193.593,290.058 C193.693,297.15,193.593,304.343,193.593,311.435 C189.597,313.832,186.101,317.029,181.805,318.927 C177.41,315.531,173.414,311.635,169.119,308.039 C169.119,302.045,169.019,295.952,169.119,289.958 z"/>
      </defs>
      <use xlink:href="#80" style="fill:#ff8946;fill-opacity:1;fill-rule:evenodd;opacity:1;stroke:none;"/>
    </g>
  </defs>
  <use xlink:href="#79"/>
  <defs>
    <title>Shape 69</title>
    <g id="81">
      <defs>
        <path id="82" d="M139.75,309.337 C139.95,306.341,142.547,303.643,145.644,303.843 C149.94,303.843,155.134,302.744,158.331,306.54 C152.337,312.534,146.144,318.428,139.75,324.122 C139.651,319.227,139.351,314.232,139.75,309.337 z"/>
      </defs>
      <use xlink:href="#82" style="fill:#ff8946;fill-opacity:1;fill-rule:evenodd;opacity:1;stroke:none;"/>
    </g>
  </defs>
  <use xlink:href="#81"/>
</svg>
