<?xml version="1.0" encoding="utf-8"?>
<svg x="1403.66pt" y="2.6226e-06pt" width="1260pt" height="1440pt" viewBox="1403.66 2.6226e-06 1260 1440" xmlns="http://www.w3.org/2000/svg" xmlns:xlink="http://www.w3.org/1999/xlink">
  <g id="1">
    <title>Layer 2</title>
    <defs>
      <title>Shape 56</title>
      <g id="2">
        <defs>
          <path id="3" d="M2214,221.828 C2159.93,164.207,2093.78,173.716,2078.97,176.278 C2070.17,177.8,1988.48,200.055,1984.78,294.926 C1977.09,401.727,2012.79,433.998,2024.26,443.187 C2065.04,469.407,2078.97,405.385,2078.97,405.385 C2078.97,405.385,2049.81,441.616,2046.19,389.802 C2044.59,367.02,2054.37,334.207,2060.96,317.114 C2064.18,308.76,2085.86,252.489,2134.69,264.459 C2138.31,265.345,2149.13,269.606,2147.2,276.216 C2150.39,276.76,2180.74,281.442,2197.96,262.387 C2209.26,249.878,2214,221.828,2214,221.828 z"/>
        </defs>
        <use xlink:href="#3" style="fill:#9e9e9e;fill-opacity:1;fill-rule:evenodd;opacity:1;stroke:none;"/>
      </g>
    </defs>
    <use xlink:href="#2"/>
    <defs>
      <title>Shape 60</title>
      <g id="4">
        <defs>
          <path id="5" d="M2239.23,215.958 C2251.21,199.03,2260.5,157.583,2312.21,134.584 C2394.96,97.7787,2449.09,161.683,2455.59,169.218 C2502.44,223.518,2500.57,327.056,2497.07,349.957 C2495.51,360.11,2478.32,404.471,2429.32,340.018 C2474.25,366.045,2461.46,334.28,2454.76,319.551 C2443.12,293.952,2432.52,280.943,2427.6,273.244 C2418.34,258.73,2386.77,212.951,2364.23,211.905 C2342.67,210.904,2317.17,234.552,2315.55,238.733 C2314.78,240.739,2309.53,246.846,2274.8,241.637 C2258.62,239.211,2239.38,216.556,2239.23,215.958 z"/>
        </defs>
        <use xlink:href="#5" style="fill:#9e9e9e;fill-opacity:1;fill-rule:evenodd;opacity:1;stroke:none;"/>
      </g>
    </defs>
    <use xlink:href="#4"/>
    <defs>
      <title>CompoundGroup</title>
      <g id="6">
        <defs>
          <path id="7" d="M1722.98,826.061 C1726.58,836.668,1730.25,849.888,1729.57,865.411 C1728.86,881.414,1718.68,869.471,1713.67,896.206 C1711.61,907.184,1710.55,924.912,1702.56,950.87 C1699.69,960.184,1691.55,977.155,1678.04,992.787 C1671.32,1000.56,1652.78,1012.98,1643.83,1030.69 C1641.55,1035.2,1641.73,1040.97,1640.78,1055.72 C1640.35,1062.45,1640.63,1077.66,1640.78,1089.43 C1640.89,1098.05,1641.49,1117.17,1640.78,1132.51 C1640.13,1146.61,1642.96,1167.61,1639.71,1190.08 C1639.23,1193.44,1632.46,1220.36,1635.18,1220.47 C1646.88,1220.94,1678.1,1216.72,1697.67,1217.88 C1705.99,1218.37,1678.44,1174.34,1683.3,1145.54 C1686.22,1128.2,1701.79,1100.26,1713.91,1073.09 C1722.44,1053.98,1757.16,1021.25,1781.71,992.029 C1794.06,977.329,1808.4,956.636,1823.34,919.539 C1826.72,911.165,1827.23,907.89,1836.34,908.255 C1842.94,902.069,1849.54,895.184,1855.69,887.78 C1873.27,866.64,1883.78,845.576,1883.78,826.197 C1885.55,826.197,1887.32,826.197,1889.09,826.197 C1889.09,847.086,1878.07,869.167,1859.77,891.171 C1854.5,897.51,1848.92,903.469,1843.29,908.948 C1844.46,909.111,1845.73,909.3,1847.09,909.514 C1849.04,909.822,1850.46,911.424,1851.45,913.908 C1882.43,929.211,1915.98,939.682,1948.74,945.131 C1966.37,948.063,1983.11,949.377,1997.1,949.18 C2000.35,947.907,2002.13,948.771,2018.87,947.178 C2019.05,947.161,2019.23,947.144,2019.42,947.127 C2019.88,947.033,2020.33,946.936,2020.77,946.837 C2020.79,946.89,2020.8,946.944,2020.81,946.997 C2034.18,945.768,2064.21,943.234,2078.97,937.163 C2088.97,933.047,2109.84,915.639,2129.05,923.749 C2127.2,918.783,2124.74,912.434,2121.68,904.706 C2121.48,904.198,2121.48,904.198,2121.28,903.69 C2109.97,875.107,2109.44,873.732,2109,871.147 C2103.75,840.403,2105.69,806.08,2117.7,786.673 C2119.2,787.603,2120.71,788.533,2122.21,789.463 C2111.05,807.494,2109.18,840.674,2114.22,870.256 C2114.56,872.228,2115.72,875.22,2126.21,901.739 C2126.41,902.247,2126.41,902.247,2126.61,902.756 C2132.27,917.068,2135.71,926.077,2137.37,931.386 C2144.55,944.774,2146.67,973.79,2147.53,989.671 C2148.56,1008.95,2136.46,1057.11,2163.08,1074.59 C2170.91,1079.73,2198.16,1080.45,2206.92,1062.41 C2214.6,1046.59,2196.97,992.893,2194.26,968.893 C2192.53,953.553,2188.62,924.993,2188.04,891.987 C2188.02,890.696,2188.03,889.791,2188.43,888.877 C2188.33,887.662,2188.22,886.379,2188.1,885.023 C2187.86,882.256,2187.58,879.305,2187.17,875.068 C2187.05,873.897,2186.63,869.664,2186.63,869.684 C2186.42,867.47,2186.25,865.757,2186.08,864.062 C2183.91,841.539,2182.94,825.626,2183.16,809.32 C2183.25,802.388,2183.58,795.777,2184.17,789.46 C2185.93,789.625,2187.69,789.79,2189.45,789.955 C2188.88,796.125,2188.55,802.595,2188.46,809.392 C2188.25,825.459,2189.21,841.208,2191.36,863.554 C2191.53,865.244,2191.69,866.953,2191.91,869.163 C2191.91,869.142,2192.33,873.377,2192.44,874.549 C2192.83,878.499,2193.1,881.339,2193.33,883.958 C2195.6,882.202,2198.81,879.85,2203.38,876.469 C2208.04,873.022,2220.17,867.677,2228.26,861.625 C2231.46,859.227,2238.19,852.655,2245.32,852.931 C2257.34,846.192,2286.81,830.206,2294.8,825.695 C2301.47,821.927,2307.53,818.399,2313.1,815.027 C2324.59,808.071,2333.83,801.873,2340.6,796.49 C2344.42,788.972,2349.31,780.654,2353.1,774.553 C2358.75,765.463,2374.09,746.548,2381,729.026 C2386.28,715.649,2390.46,682.766,2393.13,658.177 C2394.16,648.78,2394.29,633.717,2385.7,611.796 C2382.05,602.479,2368.23,585.605,2364.45,566.768 C2362.49,557.028,2365.78,536.586,2363.84,517.126 C2363.08,509.502,2359.97,496.693,2355.71,479.692 C2353.64,471.417,2348.46,454.219,2345.14,438.376 C2343.47,430.429,2341.24,414.717,2337.35,398.533 C2335.7,391.638,2331.74,378.882,2324.65,365.485 C2322.63,361.667,2318.67,356.864,2315.99,345.803 C2314.55,339.823,2314.76,325.279,2316.06,315.074 C2316.72,309.902,2319.87,300.19,2326.89,291.545 C2331,286.49,2343.86,278.968,2352.37,271.285 C2356.53,267.526,2363.82,259.561,2368.5,248.508 C2370.22,244.451,2371.08,234.751,2365.51,227.199 C2363.43,224.385,2355.34,222.423,2348.63,223.434 C2344.86,224.003,2337.82,229.61,2333.29,234.675 C2329.98,238.37,2323.15,252.335,2315.19,249.434 C2314.14,249.051,2313.71,245.959,2313.89,243.796 C2297.36,246.168,2282.02,245.355,2267.73,241.46 C2256.36,238.36,2238.89,217.318,2238.74,216.72 C2237.86,217.97,2223.91,229.843,2215.71,223.399 C2212.33,253.261,2200.98,265.012,2197.72,267.726 C2177.11,284.931,2146.86,277.17,2146.59,277.665 C2144.3,281.789,2127.99,274.395,2123.41,273.363 C2119.46,272.472,2111.51,270.198,2103.42,273.363 C2100.5,274.507,2095.57,280.618,2096.43,286.873 C2097.44,294.262,2115.6,307.477,2123.17,312.799 C2127.9,316.117,2137.36,319.745,2149.49,324.634 C2153.11,326.095,2158.93,328.013,2166.67,333.796 C2171.01,337.036,2180.05,347.395,2180.94,356.369 C2181.47,361.726,2174.85,372.229,2173.19,382.11 C2172.16,388.269,2172.41,401.819,2173.19,413.321 C2174.17,427.715,2180.35,465.711,2173.19,485.005 C2169.93,493.81,2157.41,503.354,2143.57,521.426 C2138.43,528.13,2129.07,541.548,2114.68,552.016 C2106.7,557.816,2086.27,565.517,2069.02,570.52 C2057.47,573.869,2031.28,577.365,2009.69,580.266 C2000.21,581.539,1983.48,583.011,1961.94,582.116 C1947.6,581.52,1914.36,576.293,1890.52,575.318 C1883.77,575.042,1877.32,575.491,1857.73,582.779 C1849.73,585.755,1833.34,595.744,1821.08,604.596 C1812.12,611.065,1794.05,628.005,1780,641.548 C1772.08,649.18,1757.01,665.289,1743.78,682.89 C1736.75,692.256,1724.15,713.569,1717.67,735.162 C1713.47,749.163,1711.95,782.772,1717.11,808.021 C1717.38,809.338,1717.77,810.759,1718.24,812.282 C1719.64,796.763,1723.61,781.136,1729.78,765.833 C1738.59,743.954,1751.7,723.951,1762.57,713.925 C1763.77,715.224,1764.97,716.523,1766.16,717.823 C1755.91,727.283,1743.23,746.629,1734.7,767.815 C1726.94,787.059,1722.78,806.784,1722.98,826.061 z M1987.4,954.391 C1966.5,967.438,1950.6,988.541,1941.45,997.649 C1924.85,1014.18,1900.59,1031.9,1889.67,1039.55 C1874.69,1050.06,1855.19,1061.08,1847.85,1068.05 C1835,1080.26,1824.67,1093.36,1822.82,1101.54 C1817.17,1126.45,1814.28,1123.34,1818.1,1132.94 C1826.01,1152.82,1861.15,1221.08,1845.6,1220.14 C1821.67,1218.7,1800.14,1226.21,1790.5,1218.49 C1766.92,1199.6,1775.48,1154.06,1770.74,1135.98 C1765.75,1116.94,1753.47,1114.18,1749.03,1102.82 C1743.59,1088.89,1741.64,1070.96,1745.02,1063.83 C1754.36,1044.17,1768.68,1040.21,1775.87,1035.61 C1793.02,1024.61,1815.41,999.319,1824.43,989.361 C1835.79,976.822,1845.56,970.229,1848.06,963.72 C1851.09,955.845,1854.58,933.992,1852.97,920.543 C1883.35,935.064,1915.97,945.056,1947.87,950.362 C1961.87,952.69,1975.33,954.019,1987.4,954.391 z M2251.67,855.466 C2255.67,860.34,2254.53,877.086,2255.04,884.664 C2255.66,893.707,2254.77,915.617,2261.11,929.319 C2263.71,934.949,2272.43,941.937,2274.8,956.749 C2276.48,967.255,2260.75,1006.43,2276.78,1003.9 C2291.42,1001.58,2304.69,999.448,2323.2,1003.73 C2331.43,992.227,2311.12,934.641,2314.94,914.292 C2318.04,897.782,2345.27,861.995,2334.96,834.784 C2333.23,830.218,2330.28,831.584,2334.63,810.978 C2334.9,809.712,2335.38,808.204,2336.02,806.519 C2330.32,810.541,2323.58,814.884,2315.84,819.564 C2310.22,822.966,2304.12,826.519,2297.4,830.312 C2290.07,834.455,2265.1,848.015,2251.67,855.466 z"/>
        </defs>
        <use xlink:href="#7" style="fill:#ffffff;fill-opacity:1;fill-rule:evenodd;opacity:1;stroke:none;"/>
      </g>
    </defs>
    <use xlink:href="#6"/>
    <defs>
      <title>Text</title>
      <g id="8">
        <defs>
          <path id="9" d="M1906.96,1192.04 C1898.96,1192.04,1892.36,1190.73,1887.17,1188.1 C1881.97,1185.47,1878.03,1181.78,1875.34,1177.03 C1872.65,1172.28,1871,1166.67,1870.37,1160.2 C1870.37,1160.2,1879.19,1157.92,1879.19,1157.92 C1880.07,1163.28,1881.41,1168.03,1883.23,1172.18 C1885.04,1176.32,1887.82,1179.53,1891.58,1181.81 C1895.33,1184.08,1900.52,1185.22,1907.15,1185.22 C1914.66,1185.22,1920.57,1183.7,1924.88,1180.67 C1929.2,1177.64,1931.36,1172.58,1931.36,1165.51 C1931.36,1160.15,1929.64,1155.32,1926.19,1151.02 C1922.75,1146.73,1917.91,1142.1,1911.65,1137.15 C1911.65,1137.15,1883.88,1114.86,1883.88,1114.86 C1879.25,1111.02,1875.88,1107.17,1873.75,1103.33 C1871.62,1099.49,1870.56,1095.55,1870.56,1091.5 C1870.56,1083.42,1873.66,1077.2,1879.85,1072.85 C1886.04,1068.5,1894.08,1066.33,1903.96,1066.33 C1909.09,1066.33,1913.72,1066.86,1917.84,1067.92 C1921.97,1068.99,1925.57,1070.7,1928.63,1073.08 C1931.7,1075.46,1934.11,1078.61,1935.86,1082.56 C1937.61,1086.5,1938.74,1091.35,1939.24,1097.11 C1939.24,1097.11,1930.6,1098.78,1930.6,1098.78 C1930.1,1093.02,1928.92,1088.22,1927.04,1084.38 C1925.16,1080.54,1922.41,1077.68,1918.78,1075.81 C1915.16,1073.94,1910.28,1073,1904.15,1073 C1897.27,1073,1891.51,1074.42,1886.88,1077.25 C1882.26,1080.08,1879.94,1084.63,1879.94,1090.9 C1879.94,1094.03,1880.72,1097.06,1882.29,1100 C1883.85,1102.93,1886.76,1106.11,1891.01,1109.55 C1891.01,1109.55,1918.41,1131.39,1918.41,1131.39 C1924.54,1136.24,1929.82,1141.42,1934.26,1146.93 C1938.7,1152.44,1940.92,1158.48,1940.92,1165.05 C1940.92,1171.22,1939.49,1176.3,1936.61,1180.29 C1933.73,1184.28,1929.73,1187.24,1924.6,1189.16 C1919.47,1191.08,1913.59,1192.04,1906.96,1192.04 z M1976.2,1191.89 C1971.82,1191.89,1968.01,1191.08,1964.76,1189.47 C1961.5,1187.85,1958.97,1185.6,1957.16,1182.72 C1955.34,1179.84,1954.43,1176.53,1954.43,1172.78 C1954.43,1169.04,1955.03,1165.78,1956.22,1163 C1957.41,1160.22,1959.56,1157.62,1962.69,1155.19 C1965.82,1152.77,1970.29,1150.22,1976.11,1147.54 C1981.92,1144.86,1989.46,1141.75,1998.72,1138.21 C1998.72,1138.21,1998.72,1131.99,1998.72,1131.99 C1998.72,1125.62,1998.25,1120.67,1997.31,1117.13 C1996.37,1113.59,1994.81,1111.12,1992.62,1109.7 C1990.43,1108.29,1987.46,1107.58,1983.71,1107.58 C1980.83,1107.58,1978.08,1107.98,1975.45,1108.79 C1972.82,1109.6,1970.67,1111.19,1968.98,1113.57 C1967.29,1115.94,1966.44,1119.46,1966.44,1124.11 C1966.44,1124.11,1966.44,1126.38,1966.44,1126.38 C1966.44,1126.38,1956.69,1126.38,1956.69,1126.38 C1956.69,1117.99,1958.78,1111.75,1962.97,1107.65 C1967.16,1103.56,1974.2,1101.51,1984.08,1101.51 C1993.21,1101.51,1999.59,1103.84,2003.22,1108.49 C2006.85,1113.14,2008.66,1120.67,2008.66,1131.08 C2008.66,1131.08,2008.66,1175.21,2008.66,1175.21 C2008.66,1176.02,2008.69,1177.56,2008.76,1179.84 C2008.82,1182.11,2008.88,1184.31,2008.94,1186.43 C2009.01,1188.56,2009.1,1189.92,2009.23,1190.53 C2009.23,1190.53,2000.59,1190.53,2000.59,1190.53 C2000.34,1188.4,2000.03,1186.18,1999.66,1183.85 C1999.28,1181.53,1999.03,1179.86,1998.91,1178.85 C1997.28,1182.49,1994.46,1185.57,1990.46,1188.1 C1986.46,1190.63,1981.71,1191.89,1976.2,1191.89 z M1978.64,1185.22 C1981.77,1185.22,1984.58,1184.64,1987.08,1183.48 C1989.59,1182.31,1991.84,1180.8,1993.84,1178.93 C1995.84,1177.06,1997.47,1175.06,1998.72,1172.94 C1998.72,1172.94,1998.72,1144.12,1998.72,1144.12 C1992.09,1146.95,1986.55,1149.38,1982.11,1151.4 C1977.67,1153.43,1974.17,1155.35,1971.6,1157.17 C1969.04,1158.99,1967.19,1161.03,1966.07,1163.31 C1964.94,1165.58,1964.38,1168.34,1964.38,1171.57 C1964.38,1176.83,1965.88,1180.42,1968.88,1182.34 C1971.89,1184.26,1975.14,1185.22,1978.64,1185.22 z M2030.99,1190.53 C2030.99,1190.53,2030.99,1067.7,2030.99,1067.7 C2030.99,1067.7,2040.94,1067.7,2040.94,1067.7 C2040.94,1067.7,2040.94,1190.53,2040.94,1190.53 C2040.94,1190.53,2030.99,1190.53,2030.99,1190.53 z M2089.54,1191.89 C2083.78,1191.89,2078.84,1190.96,2074.71,1189.09 C2070.58,1187.22,2067.43,1183.83,2065.24,1178.93 C2063.05,1174.02,2061.95,1167.07,2061.95,1158.08 C2061.95,1158.08,2061.95,1134.72,2061.95,1134.72 C2061.95,1125.52,2063.08,1118.55,2065.33,1113.8 C2067.58,1109.04,2070.8,1105.81,2074.99,1104.09 C2079.18,1102.37,2084.09,1101.51,2089.72,1101.51 C2096.48,1101.51,2101.79,1102.68,2105.67,1105 C2109.55,1107.33,2112.3,1111.04,2113.93,1116.15 C2115.56,1121.25,2116.37,1128,2116.37,1136.39 C2116.37,1136.39,2116.37,1144.73,2116.37,1144.73 C2116.37,1144.73,2071.9,1144.73,2071.9,1144.73 C2071.9,1144.73,2071.9,1158.68,2071.9,1158.68 C2071.9,1165.66,2072.49,1171.12,2073.68,1175.06 C2074.87,1179,2076.78,1181.78,2079.4,1183.4 C2082.03,1185.02,2085.41,1185.83,2089.54,1185.83 C2092.16,1185.83,2094.79,1185.47,2097.42,1184.76 C2100.04,1184.06,2102.23,1182.39,2103.98,1179.76 C2105.74,1177.13,2106.61,1173.04,2106.61,1167.48 C2106.61,1167.48,2106.61,1160.96,2106.61,1160.96 C2106.61,1160.96,2116.37,1160.96,2116.37,1160.96 C2116.37,1160.96,2116.37,1166.72,2116.37,1166.72 C2116.37,1174.2,2114.46,1180.27,2110.65,1184.92 C2106.83,1189.57,2099.79,1191.89,2089.54,1191.89 z M2071.9,1139.88 C2071.9,1139.88,2106.61,1139.88,2106.61,1139.88 C2106.61,1139.88,2106.61,1133.05,2106.61,1133.05 C2106.61,1127.8,2106.27,1123.27,2105.58,1119.48 C2104.89,1115.69,2103.36,1112.76,2100.98,1110.69 C2098.61,1108.61,2094.85,1107.58,2089.72,1107.58 C2085.72,1107.58,2082.37,1108.26,2079.68,1109.63 C2077,1110.99,2075.02,1113.52,2073.77,1117.21 C2072.52,1120.9,2071.9,1126.23,2071.9,1133.21 C2071.9,1133.21,2071.9,1139.88,2071.9,1139.88 z M2159.71,1191.89 C2151.21,1191.89,2144.45,1189.64,2139.45,1185.14 C2134.44,1180.64,2131.57,1174.55,2130.82,1166.87 C2130.82,1166.87,2139.26,1164.9,2139.26,1164.9 C2139.89,1172.28,2141.98,1177.61,2145.55,1180.9 C2149.11,1184.18,2153.96,1185.83,2160.09,1185.83 C2165.59,1185.83,2169.85,1184.59,2172.85,1182.11 C2175.85,1179.63,2177.35,1176.12,2177.35,1171.57 C2177.35,1168.44,2176.07,1165.18,2173.5,1161.79 C2170.94,1158.4,2166.91,1154.84,2161.4,1151.1 C2161.4,1151.1,2148.83,1142.46,2148.83,1142.46 C2143.45,1138.72,2139.51,1135.15,2137.01,1131.77 C2134.51,1128.38,2133.26,1124.51,2133.26,1120.16 C2133.26,1116.12,2134.29,1112.73,2136.35,1110 C2138.42,1107.27,2141.29,1105.18,2144.98,1103.71 C2148.67,1102.25,2152.96,1101.51,2157.84,1101.51 C2165.97,1101.51,2172.04,1103.58,2176.04,1107.73 C2180.04,1111.87,2182.17,1117.44,2182.42,1124.41 C2182.42,1124.41,2175.1,1126.23,2175.1,1126.23 C2174.97,1121.68,2174.19,1118.04,2172.75,1115.31 C2171.32,1112.58,2169.38,1110.61,2166.94,1109.4 C2164.5,1108.18,2161.65,1107.58,2158.4,1107.58 C2153.65,1107.58,2149.8,1108.56,2146.86,1110.54 C2143.92,1112.51,2142.45,1115.41,2142.45,1119.25 C2142.45,1122.49,2143.23,1125.3,2144.8,1127.67 C2146.36,1130.05,2149.27,1132.8,2153.52,1135.94 C2153.52,1135.94,2166.47,1145.19,2166.47,1145.19 C2169.72,1147.41,2172.85,1149.79,2175.85,1152.31 C2178.85,1154.84,2181.32,1157.65,2183.26,1160.73 C2185.2,1163.81,2186.17,1167.48,2186.17,1171.72 C2186.17,1175.97,2185.08,1179.58,2182.89,1182.57 C2180.7,1185.55,2177.63,1187.85,2173.69,1189.47 C2169.75,1191.08,2165.09,1191.89,2159.71,1191.89 z"/>
        </defs>
        <use xlink:href="#9" style="fill:#ffffff;fill-opacity:1;fill-rule:nonzero;opacity:1;stroke:none;"/>
      </g>
    </defs>
    <use xlink:href="#8"/>
    <defs>
      <title>Text</title>
      <g id="10">
        <defs>
          <path id="11" d="M2274.58,1325.49 C2260.02,1325.49,2247.51,1322.62,2237.06,1316.89 C2226.61,1311.16,2218.67,1303.3,2213.24,1293.3 C2207.81,1283.3,2205.1,1271.84,2205.1,1258.91 C2205.1,1240.13,2209.67,1223.85,2218.8,1210.07 C2227.93,1196.29,2238.98,1184.04,2251.95,1173.31 C2247.18,1164.53,2242.09,1155.69,2236.66,1146.78 C2231.24,1137.88,2226.61,1128.62,2222.77,1118.98 C2218.93,1109.35,2217.01,1099.29,2217.01,1088.8 C2217.01,1075.63,2219.79,1064.17,2225.35,1054.41 C2230.91,1044.66,2238.85,1037.04,2249.17,1031.55 C2259.49,1026.06,2271.67,1023.32,2285.69,1023.32 C2298.66,1023.32,2310.24,1025.51,2320.43,1029.9 C2330.62,1034.29,2338.76,1040.57,2344.85,1048.74 C2350.93,1056.91,2353.98,1066.73,2353.98,1078.19 C2353.98,1091.12,2350.73,1103.5,2344.25,1115.32 C2337.77,1127.15,2329.89,1138.13,2320.63,1148.25 C2311.36,1158.37,2302.37,1167.33,2293.63,1175.14 C2293.63,1175.14,2342.07,1245.37,2342.07,1245.37 C2344.98,1240.25,2347.43,1234.46,2349.41,1228 C2351.4,1221.53,2353.12,1214.65,2354.57,1207.33 C2356.03,1200.01,2357.15,1192.94,2357.95,1186.11 C2357.95,1186.11,2400.03,1186.11,2400.03,1186.11 C2400.03,1195.62,2398.51,1205.62,2395.46,1216.11 C2392.42,1226.6,2388.51,1236.53,2383.75,1245.92 C2378.99,1255.31,2374.09,1263.3,2369.06,1269.88 C2372.5,1273.79,2377,1277.26,2382.56,1280.31 C2388.12,1283.36,2394.07,1284.88,2400.42,1284.88 C2400.42,1284.88,2400.42,1325.12,2400.42,1325.12 C2399.37,1325.12,2398.37,1325.12,2397.45,1325.12 C2396.52,1325.12,2395.66,1325.12,2394.87,1325.12 C2387.19,1324.88,2380.31,1323.23,2374.22,1320.19 C2368.14,1317.14,2362.64,1313.42,2357.75,1309.03 C2352.85,1304.64,2348.15,1300.49,2343.65,1296.59 C2336.51,1304.88,2327.18,1311.77,2315.67,1317.26 C2304.15,1322.75,2290.46,1325.49,2274.58,1325.49 z M2274.58,1292.93 C2284.63,1292.93,2293.1,1290.68,2299.98,1286.16 C2306.87,1281.65,2312.82,1276.59,2317.85,1270.98 C2317.85,1270.98,2268.62,1201.11,2268.62,1201.11 C2262.27,1208.67,2257.17,1217.51,2253.34,1227.63 C2249.5,1237.75,2247.58,1248.18,2247.58,1258.91 C2247.58,1264.52,2248.37,1269.95,2249.96,1275.19 C2251.55,1280.43,2254.33,1284.7,2258.3,1287.99 C2262.27,1291.29,2267.7,1292.93,2274.58,1292.93 z M2278.94,1153.92 C2284.5,1147.82,2289.73,1140.63,2294.62,1132.33 C2299.52,1124.04,2303.56,1115.2,2306.73,1105.81 C2309.91,1096.42,2311.5,1087.22,2311.5,1078.19 C2311.5,1071.12,2309.12,1065.57,2304.35,1061.55 C2299.59,1057.52,2293.37,1055.51,2285.69,1055.51 C2276.16,1055.51,2269.42,1058.93,2265.45,1065.75 C2261.48,1072.58,2259.49,1080.27,2259.49,1088.8 C2259.49,1100.02,2261.54,1111.18,2265.64,1122.27 C2269.75,1133.37,2274.18,1143.92,2278.94,1153.92 z"/>
        </defs>
        <use xlink:href="#11" style="fill:#ffffff;fill-opacity:1;fill-rule:nonzero;opacity:1;stroke:none;"/>
      </g>
    </defs>
    <use xlink:href="#10"/>
    <defs>
      <title>Text</title>
      <g id="12">
        <defs>
          <path id="13" d="M1556.86,1318.33 C1556.86,1318.33,1556.86,1204.88,1556.86,1204.88 C1556.86,1204.88,1594.07,1204.88,1594.07,1204.88 C1600.72,1204.88,1606.19,1206.17,1610.48,1208.74 C1614.77,1211.3,1617.96,1215.04,1620.05,1219.94 C1622.15,1224.84,1623.2,1230.8,1623.2,1237.8 C1623.2,1246.58,1621.79,1253.27,1618.96,1257.9 C1616.13,1262.52,1612.3,1265.72,1607.47,1267.49 C1602.64,1269.26,1597.21,1270.15,1591.19,1270.15 C1591.19,1270.15,1581.35,1270.15,1581.35,1270.15 C1581.35,1270.15,1581.35,1318.33,1581.35,1318.33 C1581.35,1318.33,1556.86,1318.33,1556.86,1318.33 z M1581.35,1252.64 C1581.35,1252.64,1589.55,1252.64,1589.55,1252.64 C1592.56,1252.64,1594.84,1252.08,1596.39,1250.96 C1597.94,1249.84,1598.97,1248.16,1599.47,1245.92 C1599.97,1243.68,1600.22,1240.83,1600.22,1237.38 C1600.22,1234.48,1600.02,1231.94,1599.61,1229.74 C1599.2,1227.55,1598.22,1225.8,1596.67,1224.49 C1595.11,1223.19,1592.7,1222.53,1589.42,1222.53 C1589.42,1222.53,1581.35,1222.53,1581.35,1222.53 C1581.35,1222.53,1581.35,1252.64,1581.35,1252.64 z M1632.91,1318.33 C1632.91,1318.33,1632.91,1237.38,1632.91,1237.38 C1632.91,1237.38,1655.21,1237.38,1655.21,1237.38 C1655.21,1237.38,1655.21,1250.82,1655.21,1250.82 C1657.76,1246.16,1660.31,1242.58,1662.87,1240.11 C1665.42,1237.63,1668.52,1236.4,1672.17,1236.4 C1672.9,1236.4,1673.53,1236.42,1674.08,1236.47 C1674.63,1236.51,1675.13,1236.63,1675.59,1236.82 C1675.59,1236.82,1675.59,1259.51,1675.59,1259.51 C1674.58,1259.04,1673.47,1258.64,1672.23,1258.32 C1671,1257.99,1669.7,1257.83,1668.34,1257.83 C1665.78,1257.83,1663.41,1258.53,1661.22,1259.93 C1659.04,1261.33,1657.03,1263.24,1655.21,1265.67 C1655.21,1265.67,1655.21,1318.33,1655.21,1318.33 C1655.21,1318.33,1632.91,1318.33,1632.91,1318.33 z M1711.01,1319.73 C1705.36,1319.73,1700.46,1318.75,1696.31,1316.79 C1692.16,1314.83,1688.97,1311.89,1686.73,1307.97 C1684.5,1304.05,1683.38,1299.14,1683.38,1293.26 C1683.38,1293.26,1683.38,1262.45,1683.38,1262.45 C1683.38,1256.57,1684.5,1251.66,1686.73,1247.74 C1688.97,1243.82,1692.16,1240.88,1696.31,1238.92 C1700.46,1236.96,1705.36,1235.98,1711.01,1235.98 C1716.66,1235.98,1721.57,1236.96,1725.71,1238.92 C1729.86,1240.88,1733.08,1243.82,1735.36,1247.74 C1737.64,1251.66,1738.78,1256.57,1738.78,1262.45 C1738.78,1262.45,1738.78,1293.26,1738.78,1293.26 C1738.78,1299.14,1737.64,1304.05,1735.36,1307.97 C1733.08,1311.89,1729.86,1314.83,1725.71,1316.79 C1721.57,1318.75,1716.66,1319.73,1711.01,1319.73 z M1711.15,1304.61 C1712.61,1304.61,1713.75,1304.21,1714.57,1303.42 C1715.39,1302.62,1715.96,1301.5,1716.28,1300.05 C1716.6,1298.61,1716.76,1296.86,1716.76,1294.8 C1716.76,1294.8,1716.76,1260.91,1716.76,1260.91 C1716.76,1258.85,1716.6,1257.1,1716.28,1255.66 C1715.96,1254.21,1715.39,1253.09,1714.57,1252.29 C1713.75,1251.5,1712.61,1251.1,1711.15,1251.1 C1709.69,1251.1,1708.55,1251.5,1707.73,1252.29 C1706.91,1253.09,1706.32,1254.21,1705.95,1255.66 C1705.59,1257.1,1705.4,1258.85,1705.4,1260.91 C1705.4,1260.91,1705.4,1294.8,1705.4,1294.8 C1705.4,1296.86,1705.59,1298.61,1705.95,1300.05 C1706.32,1301.5,1706.91,1302.62,1707.73,1303.42 C1708.55,1304.21,1709.69,1304.61,1711.15,1304.61 z M1751.09,1318.33 C1751.09,1318.33,1751.09,1237.38,1751.09,1237.38 C1751.09,1237.38,1772.97,1237.38,1772.97,1237.38 C1772.97,1237.38,1772.97,1243.82,1772.97,1243.82 C1775.89,1240.93,1778.92,1238.87,1782.07,1237.66 C1785.21,1236.44,1788.43,1235.84,1791.71,1235.84 C1794.9,1235.84,1797.66,1236.65,1799.98,1238.29 C1802.31,1239.92,1804.07,1242.33,1805.25,1245.5 C1808.35,1241.95,1811.61,1239.46,1815.03,1238.01 C1818.45,1236.56,1821.89,1235.84,1825.36,1235.84 C1828.46,1235.84,1831.15,1236.61,1833.43,1238.15 C1835.71,1239.69,1837.48,1241.93,1838.76,1244.87 C1840.04,1247.81,1840.68,1251.34,1840.68,1255.45 C1840.68,1255.45,1840.68,1318.33,1840.68,1318.33 C1840.68,1318.33,1818.79,1318.33,1818.79,1318.33 C1818.79,1318.33,1818.79,1257.83,1818.79,1257.83 C1818.79,1255.59,1818.4,1253.97,1817.63,1252.99 C1816.85,1252.01,1815.69,1251.52,1814.14,1251.52 C1813.23,1251.52,1812.09,1251.78,1810.72,1252.29 C1809.35,1252.81,1808.03,1253.53,1806.76,1254.47 C1806.76,1254.65,1806.76,1254.82,1806.76,1254.96 C1806.76,1255.1,1806.76,1255.26,1806.76,1255.45 C1806.76,1255.45,1806.76,1318.33,1806.76,1318.33 C1806.76,1318.33,1785.14,1318.33,1785.14,1318.33 C1785.14,1318.33,1785.14,1257.83,1785.14,1257.83 C1785.14,1255.59,1784.73,1253.97,1783.91,1252.99 C1783.09,1252.01,1781.91,1251.52,1780.36,1251.52 C1779.35,1251.52,1778.19,1251.78,1776.87,1252.29 C1775.55,1252.81,1774.25,1253.53,1772.97,1254.47 C1772.97,1254.47,1772.97,1318.33,1772.97,1318.33 C1772.97,1318.33,1751.09,1318.33,1751.09,1318.33 z M1880.07,1319.73 C1874.41,1319.73,1869.51,1318.75,1865.36,1316.79 C1861.22,1314.83,1858.02,1311.89,1855.79,1307.97 C1853.56,1304.05,1852.44,1299.14,1852.44,1293.26 C1852.44,1293.26,1852.44,1262.45,1852.44,1262.45 C1852.44,1256.57,1853.56,1251.66,1855.79,1247.74 C1858.02,1243.82,1861.22,1240.88,1865.36,1238.92 C1869.51,1236.96,1874.41,1235.98,1880.07,1235.98 C1885.72,1235.98,1890.62,1236.96,1894.77,1238.92 C1898.92,1240.88,1902.13,1243.82,1904.41,1247.74 C1906.69,1251.66,1907.83,1256.57,1907.83,1262.45 C1907.83,1262.45,1907.83,1293.26,1907.83,1293.26 C1907.83,1299.14,1906.69,1304.05,1904.41,1307.97 C1902.13,1311.89,1898.92,1314.83,1894.77,1316.79 C1890.62,1318.75,1885.72,1319.73,1880.07,1319.73 z M1880.2,1304.61 C1881.66,1304.61,1882.8,1304.21,1883.62,1303.42 C1884.44,1302.62,1885.01,1301.5,1885.33,1300.05 C1885.65,1298.61,1885.81,1296.86,1885.81,1294.8 C1885.81,1294.8,1885.81,1260.91,1885.81,1260.91 C1885.81,1258.85,1885.65,1257.1,1885.33,1255.66 C1885.01,1254.21,1884.44,1253.09,1883.62,1252.29 C1882.8,1251.5,1881.66,1251.1,1880.2,1251.1 C1878.75,1251.1,1877.61,1251.5,1876.79,1252.29 C1875.96,1253.09,1875.37,1254.21,1875.01,1255.66 C1874.64,1257.1,1874.46,1258.85,1874.46,1260.91 C1874.46,1260.91,1874.46,1294.8,1874.46,1294.8 C1874.46,1296.86,1874.64,1298.61,1875.01,1300.05 C1875.37,1301.5,1875.96,1302.62,1876.79,1303.42 C1877.61,1304.21,1878.75,1304.61,1880.2,1304.61 z M1944.63,1319.17 C1938.7,1319.17,1934.12,1318.28,1930.88,1316.51 C1927.64,1314.74,1925.43,1312.15,1924.25,1308.74 C1923.06,1305.33,1922.47,1301.2,1922.47,1296.34 C1922.47,1296.34,1922.47,1252.36,1922.47,1252.36 C1922.47,1252.36,1914.81,1252.36,1914.81,1252.36 C1914.81,1252.36,1914.81,1237.38,1914.81,1237.38 C1914.81,1237.38,1922.47,1237.38,1922.47,1237.38 C1922.47,1237.38,1922.47,1212.73,1922.47,1212.73 C1922.47,1212.73,1945.04,1212.73,1945.04,1212.73 C1945.04,1212.73,1945.04,1237.38,1945.04,1237.38 C1945.04,1237.38,1956.25,1237.38,1956.25,1237.38 C1956.25,1237.38,1956.25,1252.36,1956.25,1252.36 C1956.25,1252.36,1945.04,1252.36,1945.04,1252.36 C1945.04,1252.36,1945.04,1294.1,1945.04,1294.1 C1945.04,1296.44,1945.7,1298.12,1947.02,1299.14 C1948.34,1300.17,1950.01,1300.68,1952.01,1300.68 C1953.2,1300.68,1954.29,1300.61,1955.3,1300.47 C1956.3,1300.33,1957.21,1300.22,1958.03,1300.12 C1958.03,1300.12,1958.03,1318.05,1958.03,1318.05 C1956.85,1318.24,1954.98,1318.47,1952.42,1318.75 C1949.87,1319.03,1947.27,1319.17,1944.63,1319.17 z M1968.7,1318.33 C1968.7,1318.33,1968.7,1237.38,1968.7,1237.38 C1968.7,1237.38,1990.99,1237.38,1990.99,1237.38 C1990.99,1237.38,1990.99,1318.33,1990.99,1318.33 C1990.99,1318.33,1968.7,1318.33,1968.7,1318.33 z M1968.56,1223.65 C1968.56,1223.65,1968.56,1207.83,1968.56,1207.83 C1968.56,1207.83,1990.99,1207.83,1990.99,1207.83 C1990.99,1207.83,1990.99,1223.65,1990.99,1223.65 C1990.99,1223.65,1968.56,1223.65,1968.56,1223.65 z M2030.8,1319.73 C2025.14,1319.73,2020.24,1318.75,2016.09,1316.79 C2011.94,1314.83,2008.75,1311.89,2006.52,1307.97 C2004.28,1304.05,2003.17,1299.14,2003.17,1293.26 C2003.17,1293.26,2003.17,1262.45,2003.17,1262.45 C2003.17,1256.57,2004.28,1251.66,2006.52,1247.74 C2008.75,1243.82,2011.94,1240.88,2016.09,1238.92 C2020.24,1236.96,2025.14,1235.98,2030.8,1235.98 C2036.45,1235.98,2041.35,1236.96,2045.5,1238.92 C2049.65,1240.88,2052.86,1243.82,2055.14,1247.74 C2057.42,1251.66,2058.56,1256.57,2058.56,1262.45 C2058.56,1262.45,2058.56,1293.26,2058.56,1293.26 C2058.56,1299.14,2057.42,1304.05,2055.14,1307.97 C2052.86,1311.89,2049.65,1314.83,2045.5,1316.79 C2041.35,1318.75,2036.45,1319.73,2030.8,1319.73 z M2030.93,1304.61 C2032.39,1304.61,2033.53,1304.21,2034.35,1303.42 C2035.17,1302.62,2035.74,1301.5,2036.06,1300.05 C2036.38,1298.61,2036.54,1296.86,2036.54,1294.8 C2036.54,1294.8,2036.54,1260.91,2036.54,1260.91 C2036.54,1258.85,2036.38,1257.1,2036.06,1255.66 C2035.74,1254.21,2035.17,1253.09,2034.35,1252.29 C2033.53,1251.5,2032.39,1251.1,2030.93,1251.1 C2029.47,1251.1,2028.33,1251.5,2027.51,1252.29 C2026.69,1253.09,2026.1,1254.21,2025.74,1255.66 C2025.37,1257.1,2025.19,1258.85,2025.19,1260.91 C2025.19,1260.91,2025.19,1294.8,2025.19,1294.8 C2025.19,1296.86,2025.37,1298.61,2025.74,1300.05 C2026.1,1301.5,2026.69,1302.62,2027.51,1303.42 C2028.33,1304.21,2029.47,1304.61,2030.93,1304.61 z M2070.87,1318.33 C2070.87,1318.33,2070.87,1237.38,2070.87,1237.38 C2070.87,1237.38,2093.17,1237.38,2093.17,1237.38 C2093.17,1237.38,2093.17,1245.5,2093.17,1245.5 C2096.09,1242.51,2099.12,1240.18,2102.26,1238.5 C2105.41,1236.82,2108.71,1235.98,2112.18,1235.98 C2115.46,1235.98,2118.17,1236.79,2120.32,1238.43 C2122.46,1240.06,2124.08,1242.3,2125.17,1245.15 C2126.27,1248,2126.81,1251.24,2126.81,1254.89 C2126.81,1254.89,2126.81,1318.33,2126.81,1318.33 C2126.81,1318.33,2104.66,1318.33,2104.66,1318.33 C2104.66,1318.33,2104.66,1258.11,2104.66,1258.11 C2104.66,1256.15,2104.34,1254.65,2103.7,1253.62 C2103.06,1252.6,2101.88,1252.08,2100.14,1252.08 C2099.23,1252.08,2098.16,1252.34,2096.93,1252.85 C2095.7,1253.37,2094.44,1254.09,2093.17,1255.03 C2093.17,1255.03,2093.17,1318.33,2093.17,1318.33 C2093.17,1318.33,2070.87,1318.33,2070.87,1318.33 z M2164.57,1319.73 C2157.64,1319.73,2151.87,1318.14,2147.26,1314.97 C2142.66,1311.8,2138.9,1306.61,2135.98,1299.42 C2135.98,1299.42,2151.16,1292.56,2151.16,1292.56 C2152.62,1296.2,2154.33,1299.07,2156.29,1301.17 C2158.25,1303.28,2160.42,1304.33,2162.79,1304.33 C2164.52,1304.33,2165.82,1303.95,2166.69,1303.21 C2167.55,1302.46,2167.98,1301.43,2167.98,1300.12 C2167.98,1297.98,2167.19,1296.02,2165.59,1294.24 C2164,1292.47,2161.15,1289.85,2157.04,1286.4 C2157.04,1286.4,2151.3,1281.5,2151.3,1281.5 C2147.1,1277.85,2143.8,1274.33,2141.38,1270.92 C2138.97,1267.51,2137.76,1263.29,2137.76,1258.25 C2137.76,1253.86,2138.87,1249.98,2141.11,1246.62 C2143.34,1243.26,2146.33,1240.65,2150.07,1238.78 C2153.81,1236.91,2157.82,1235.98,2162.1,1235.98 C2168.58,1235.98,2174,1237.8,2178.38,1241.44 C2182.76,1245.08,2185.81,1250.22,2187.54,1256.85 C2187.54,1256.85,2173.18,1263.57,2173.18,1263.57 C2172.64,1261.79,2171.86,1260.02,2170.86,1258.25 C2169.85,1256.47,2168.65,1254.98,2167.23,1253.76 C2165.82,1252.55,2164.29,1251.94,2162.65,1251.94 C2161.19,1251.94,2160.03,1252.36,2159.16,1253.2 C2158.3,1254.04,2157.86,1255.17,2157.86,1256.57 C2157.86,1258.34,2158.84,1260.25,2160.8,1262.31 C2162.76,1264.36,2165.48,1266.84,2168.94,1269.73 C2168.94,1269.73,2174.55,1274.77,2174.55,1274.77 C2176.83,1276.73,2179.06,1278.84,2181.25,1281.08 C2183.44,1283.32,2185.24,1285.79,2186.65,1288.5 C2188.07,1291.21,2188.77,1294.29,2188.77,1297.74 C2188.77,1302.41,2187.64,1306.4,2185.36,1309.72 C2183.08,1313.03,2180.09,1315.53,2176.4,1317.21 C2172.7,1318.89,2168.76,1319.73,2164.57,1319.73 z"/>
        </defs>
        <use xlink:href="#13" style="fill:#ffffff;fill-opacity:1;fill-rule:nonzero;opacity:1;stroke:none;"/>
      </g>
    </defs>
    <use xlink:href="#12"/>
  </g>
  <g id="14">
    <title>Layer 3</title>
  </g>
</svg>