<svg xmlns="http://www.w3.org/2000/svg" width="120.635" height="120.855" viewBox="0 0 120.635 120.855">
  <g id="Group_87" data-name="Group 87" transform="translate(-88 -417.749)">
    <g id="_79" data-name="79" transform="translate(117.77 475.258)">
      <g id="Group_35" data-name="Group 35">
        <path id="Path_35" data-name="Path 35" d="M433.284,2484.96c5.741-.274,11.481-.6,17.221-.875-1.913,5.194-3.881,10.333-5.8,15.472-.492-1.476-.984-2.952-1.421-4.428-3.936,2.624-7.927,5.084-11.864,7.763.055,6.287,0,12.629,0,18.916a45.128,45.128,0,0,1-17.713,7.927v-15.417c-1.968,1.313-3.991,2.57-5.959,3.937V2530.5a46.867,46.867,0,0,1-13.5-1.312c-.109-4.593.219-9.24-.164-13.832-1.257-1.476-2.733-2.733-4.046-4.1-.328.164-1.039.547-1.367.711-.055,5.139,0,10.278,0,15.418a45.3,45.3,0,0,1-10.443-6.069v-4.045c-1.148.6-2.351,1.147-3.5,1.749,5.413-5.139,10.825-10.224,16.183-15.308,3.389,2.952,6.834,5.959,10.224,8.912q18.37-12.3,36.794-24.548C436.346,2487.038,434.815,2486,433.284,2484.96Z" transform="translate(-374.731 -2484.085)" fill="#fff"/>
      </g>
    </g>
    <g id="_82" data-name="82" transform="translate(156.628 443.412)">
      <g id="Group_36" data-name="Group 36">
        <path id="Path_36" data-name="Path 36" d="M577.913,2320.717c3.28-.219,6.56-.109,9.841-.109a4.5,4.5,0,0,1,4.319,4.428,37.525,37.525,0,0,1-.109,6.068,4.5,4.5,0,0,1-4.265,3.663c-3.007.054-6.068.054-9.075,0a4.449,4.449,0,0,1-4.265-3.827,43.026,43.026,0,0,1,0-6.506A4.543,4.543,0,0,1,577.913,2320.717Z" transform="translate(-574.236 -2320.58)" fill="#FF8946"/>
      </g>
    </g>
    <g id="_85" data-name="85" transform="translate(156.639 464.269)">
      <g id="Group_37" data-name="Group 37">
        <path id="Path_37" data-name="Path 37" d="M576.315,2429.087c1.968-1.749,4.811-1.312,7.217-1.421,2.132.11,4.538-.219,6.342,1.148a5.826,5.826,0,0,1,2.241,4.7c.055,3.39,0,6.779,0,10.169-5.9,3.937-11.7,8.037-17.768,11.754-.109-7.107,0-14.215-.055-21.376A6.225,6.225,0,0,1,576.315,2429.087Z" transform="translate(-574.289 -2427.666)" fill="#FF8946"/>
      </g>
    </g>
    <g id="_88" data-name="88" transform="translate(137.22 465.075)">
      <g id="Group_38" data-name="Group 38">
        <path id="Path_38" data-name="Path 38" d="M476.9,2431.983a69.916,69.916,0,0,1,8.31-.109,3.122,3.122,0,0,1,2.9,3.444c-.055,2.187.71,5.3-1.695,6.615a29.092,29.092,0,0,1-9.24.164,2.794,2.794,0,0,1-2.46-2.515,27.444,27.444,0,0,1,0-5.194A3.082,3.082,0,0,1,476.9,2431.983Z" transform="translate(-474.589 -2431.805)" fill="#FF8946"/>
      </g>
    </g>
    <g id="_91" data-name="91" transform="translate(121.105 480.485)">
      <g id="Group_39" data-name="Group 39">
        <path id="Path_39" data-name="Path 39" d="M393.822,2511.053a47.328,47.328,0,0,1,6.233-.055,2.457,2.457,0,0,1,2.351,2.9c-.055,1.585.437,3.991-1.476,4.7-2.023.547-4.21.219-6.342.273a2.708,2.708,0,0,1-2.679-2.788C391.8,2514.333,391.634,2511.545,393.822,2511.053Z" transform="translate(-391.853 -2510.922)" fill="#FF8946"/>
      </g>
    </g>
    <g id="_94" data-name="94" transform="translate(137.319 480.479)">
      <g id="Group_40" data-name="Group 40">
        <path id="Path_40" data-name="Path 40" d="M475.121,2514.91a4.015,4.015,0,0,1,3.608-3.936,52.073,52.073,0,0,1,5.85,0,4.116,4.116,0,0,1,3.936,3.991c.055,3.882,0,7.818,0,11.7-2.187,1.313-4.1,3.062-6.452,4.1-2.405-1.859-4.592-3.991-6.943-5.959C475.121,2521.525,475.066,2518.246,475.121,2514.91Z" transform="translate(-475.096 -2510.892)" fill="#FF8946"/>
      </g>
    </g>
    <g id="_97" data-name="97" transform="translate(121.159 492.07)">
      <g id="Group_41" data-name="Group 41">
        <path id="Path_41" data-name="Path 41" d="M392.239,2573.494a3.189,3.189,0,0,1,3.226-3.007c2.351,0,5.194-.6,6.944,1.476-3.281,3.281-6.67,6.506-10.169,9.623A80.137,80.137,0,0,1,392.239,2573.494Z" transform="translate(-392.129 -2570.406)" fill="#FF8946"/>
      </g>
    </g>
    <g id="_76" data-name="76" transform="translate(88 417.749)">
      <g id="Group_34" data-name="Group 34">
        <path id="Path_34" data-name="Path 34" d="M238.2,2207.9a60.36,60.36,0,0,1,102.728,27.555,60.9,60.9,0,0,1-7.873,46.361c-2.843-2.788-5.686-5.631-8.529-8.474a48.7,48.7,0,1,0-84.358.492,48.7,48.7,0,0,0,54.234,22.634,48.736,48.736,0,0,0,22.251-12.739l8.255,8.256A60.4,60.4,0,0,1,238.2,2207.9Z" transform="translate(-221.882 -2188.823)" fill="#FFD34D"/>
      </g>
    </g>
  </g>
</svg>
