<svg xmlns="http://www.w3.org/2000/svg" width="103.942" height="120.889" viewBox="0 0 103.942 120.889">
  <g id="Group_85" data-name="Group 85" transform="translate(0 230.324)">
    <path id="Path_42" data-name="Path 42" d="M99.8-230.227a6.27,6.27,0,0,1,7.226,5.974,6.232,6.232,0,0,1-7.4,6.2,6.235,6.235,0,0,1-4.893-7.226A6.243,6.243,0,0,1,99.8-230.227Z" transform="translate(-40.726)" fill="#F2BA49" fill-rule="evenodd"/>
    <path id="Path_43" data-name="Path 43" d="M65.087-229.175a6.273,6.273,0,0,1,6.486,7.51,6.258,6.258,0,0,1-8.136,4.552,6.252,6.252,0,0,1-3.528-8.535A6.185,6.185,0,0,1,65.087-229.175Z" transform="translate(-25.528 -0.483)" fill="#F2BA49" fill-rule="evenodd"/>
    <path id="Path_44" data-name="Path 44" d="M133.707-219.357a6.045,6.045,0,0,1,7.624,5.348,6.079,6.079,0,0,1-6.259,6.543,6.06,6.06,0,0,1-5.8-6.486A6.079,6.079,0,0,1,133.707-219.357Z" transform="translate(-55.629 -4.611)" fill="#F2BA49" fill-rule="evenodd"/>
    <path id="Path_45" data-name="Path 45" d="M31.4-217.769a6.069,6.069,0,0,1,8.079,4.836,6.06,6.06,0,0,1-5.747,6.885,6.013,6.013,0,0,1-6.145-4.779A6.038,6.038,0,0,1,31.4-217.769Z" transform="translate(-11.809 -5.232)" fill="#F2BA49" fill-rule="evenodd"/>
    <path id="Path_46" data-name="Path 46" d="M6.807-196.944a6.953,6.953,0,0,1,8.478,6.486,6.874,6.874,0,0,1-7.055,7.169,6.908,6.908,0,0,1-6.714-6.657A6.869,6.869,0,0,1,6.807-196.944Z" transform="translate(-0.646 -14.28)" fill="#F2BA49" fill-rule="evenodd"/>
    <path id="Path_47" data-name="Path 47" d="M162.063-196.873a6.956,6.956,0,0,1,8.478,4.95,6.9,6.9,0,0,1-6.031,8.591,6.927,6.927,0,0,1-7.453-5.576A6.931,6.931,0,0,1,162.063-196.873Z" transform="translate(-67.542 -14.294)" fill="#F2BA49" fill-rule="evenodd"/>
    <path id="Path_48" data-name="Path 48" d="M.073-152.776C-.212-158.409.187-164.724,4-169.219c1.309,2.9,2.447,5.917,3.641,8.819,1.309-2.9,2.447-5.86,3.641-8.819,3.869,4.21,4.21,10.412,4.04,15.817A79.024,79.024,0,0,1,7.583-124.9C3.828-133.715.756-143.046.073-152.776Z" transform="translate(0 -26.301)" fill="#F2BA49" fill-rule="evenodd"/>
    <path id="Path_49" data-name="Path 49" d="M155.462-154.781c.057-4.95.626-10.469,4.1-14.338,1.252,2.9,2.39,5.86,3.641,8.762,1.252-2.9,2.39-5.86,3.641-8.762,4.04,4.609,4.21,11.152,3.926,16.955-.74,9.5-3.7,18.776-7.567,27.481C158.989-134.241,155.86-144.369,155.462-154.781Z" transform="translate(-66.915 -26.344)" fill="#F2BA49" fill-rule="evenodd"/>
    <path id="Path_50" data-name="Path 50" d="M79.71-191.5a11.43,11.43,0,0,1,14.167,7.34,11.405,11.405,0,0,1-7.226,14.224,11.429,11.429,0,0,1-14.281-7.112A11.366,11.366,0,0,1,79.71-191.5Z" transform="translate(-30.877 -16.482)" fill="#FFD34D" fill-rule="evenodd"/>
    <path id="Path_51" data-name="Path 51" d="M76.145-146.087c2.105,4.836,3.983,9.729,5.974,14.566,1.991-4.836,3.926-9.786,5.974-14.622,5.974,6.657,6.771,16.215,6.6,24.75C94.01-104.666,88.662-88.45,82.119-73.2a172.344,172.344,0,0,1-10.241-30.724c-1.821-8.421-2.9-17.069-2.048-25.66C70.455-135.39,71.991-141.592,76.145-146.087Z" transform="translate(-29.928 -36.233)" fill="#FFD34D" fill-rule="evenodd"/>
    <path id="Path_52" data-name="Path 52" d="M41.286-188.669c4.666-1.195,9.843,2.5,10.014,7.34a8.252,8.252,0,0,1-6.6,8.762,8.229,8.229,0,0,1-9.729-7.624A8.235,8.235,0,0,1,41.286-188.669Z" transform="translate(-15.04 -17.832)" fill="#F2BA49" fill-rule="evenodd"/>
    <path id="Path_53" data-name="Path 53" d="M126.035-188.657c4.609-1.138,9.729,2.5,9.957,7.283a8.157,8.157,0,0,1-6.543,8.762,8.281,8.281,0,0,1-9.672-6.543A8.273,8.273,0,0,1,126.035-188.657Z" transform="translate(-51.485 -17.844)" fill="#F2BA49" fill-rule="evenodd"/>
    <path id="Path_54" data-name="Path 54" d="M34.839-149.9a12.112,12.112,0,0,1,3.357-5.462c1.138,2.788,2.276,5.519,3.357,8.307.284.569.455,1.309,1.024,1.707,1.536-3.357,2.731-6.771,4.21-10.185,4.381,4.779,4.893,11.721,4.779,17.866-.455,12.176-4.324,23.953-9.1,35.048-4.324-9.957-7.795-20.426-8.876-31.293C33.132-139.261,33.076-144.78,34.839-149.9Z" transform="translate(-14.34 -32.192)" fill="#F2BA49" fill-rule="evenodd"/>
    <path id="Path_55" data-name="Path 55" d="M119.836-150.64a14.985,14.985,0,0,1,3.016-4.893c1.479,3.471,2.788,7,4.324,10.469,1.479-3.471,2.845-7,4.324-10.469,4.267,4.666,4.893,11.322,4.836,17.353-.341,12.347-4.267,24.295-9.1,35.56-4.267-9.786-7.624-20.028-8.819-30.667C117.788-139.09,117.731-145.121,119.836-150.64Z" transform="translate(-50.804 -32.192)" fill="#F2BA49" fill-rule="evenodd"/>
  </g>
</svg>
