<?xml version="1.0" encoding="utf-8"?>
<svg x="78.9621pt" y="778.946pt" width="682.923pt" height="220.818pt" viewBox="78.9621 778.946 682.923 220.818" xmlns="http://www.w3.org/2000/svg" xmlns:xlink="http://www.w3.org/1999/xlink">
  <g id="1">
    <title>Group</title>
  </g>
  <g id="2">
    <title>Group</title>
    <defs>
      <title>Shape 43</title>
      <g id="3">
        <defs>
          <path id="4" d="M414.157,970.23 C414.157,970.23,404.667,994.404,404.667,994.404 C404.667,994.404,412.259,991.607,412.259,991.607 C412.259,991.607,415.855,998.799,415.855,998.799 C415.855,998.799,425.345,974.625,425.345,974.625 z"/>
        </defs>
        <use xlink:href="#4" style="fill:#005eb3;fill-opacity:1;fill-rule:evenodd;opacity:1;stroke:none;"/>
      </g>
    </defs>
    <use xlink:href="#3"/>
    <defs>
      <title>Shape 44</title>
      <g id="5">
        <defs>
          <path id="6" d="M421.349,970.23 C421.349,970.23,430.839,994.404,430.839,994.404 C430.839,994.404,423.247,991.607,423.247,991.607 C423.247,991.607,419.551,998.799,419.551,998.799 C419.551,998.799,410.161,974.625,410.161,974.625 z"/>
        </defs>
        <use xlink:href="#6" style="fill:#0072d9;fill-opacity:1;fill-rule:evenodd;opacity:1;stroke:none;"/>
      </g>
    </defs>
    <use xlink:href="#5"/>
    <defs>
      <title>Shape 45</title>
      <g id="7">
        <defs>
          <path id="8" d="M431.638,971.229 C431.638,971.229,431.638,971.229,431.638,971.229 C431.039,970.73,430.839,969.831,431.338,969.231 C431.938,968.432,431.538,967.333,430.639,967.034 C429.84,966.734,429.44,965.935,429.74,965.235 C429.74,965.235,429.74,965.235,429.74,965.235 C430.04,964.336,429.341,963.337,428.342,963.337 C427.542,963.337,426.943,962.738,426.943,961.939 C426.943,960.94,425.944,960.241,425.045,960.54 C424.246,960.74,423.447,960.341,423.247,959.641 C422.947,958.742,421.849,958.343,421.049,958.942 C420.45,959.442,419.551,959.242,419.052,958.642 C418.452,957.843,417.254,957.843,416.754,958.642 C416.255,959.242,415.356,959.442,414.756,958.942 C413.957,958.343,412.858,958.742,412.559,959.641 C412.259,960.44,411.46,960.84,410.76,960.54 C410.76,960.54,410.76,960.54,410.76,960.54 C409.861,960.241,408.862,960.94,408.862,961.939 C408.862,962.738,408.263,963.337,407.464,963.337 C406.465,963.337,405.766,964.336,406.066,965.235 C406.066,965.235,406.066,965.235,406.066,965.235 C406.265,966.035,405.866,966.834,405.166,967.034 C404.267,967.333,403.868,968.432,404.467,969.231 C404.967,969.831,404.767,970.73,404.168,971.229 C404.168,971.229,404.168,971.229,404.168,971.229 C403.368,971.828,403.368,973.027,404.168,973.527 C404.767,974.026,404.967,974.925,404.467,975.524 C403.868,976.324,404.267,977.422,405.166,977.722 C405.966,978.022,406.365,978.821,406.066,979.52 C405.766,980.419,406.465,981.418,407.464,981.418 C408.263,981.418,408.862,982.117,408.862,982.817 C408.862,983.816,409.861,984.515,410.76,984.215 C410.76,984.215,410.76,984.215,410.76,984.215 C411.56,984.015,412.359,984.415,412.559,985.114 C412.858,986.013,413.957,986.413,414.756,985.814 C415.356,985.314,416.255,985.514,416.754,986.113 C416.754,986.113,416.754,986.113,416.754,986.113 C417.353,986.912,418.552,986.912,419.052,986.113 C419.052,986.113,419.052,986.113,419.052,986.113 C419.551,985.514,420.45,985.314,421.049,985.814 C421.849,986.413,422.947,986.013,423.247,985.114 C423.547,984.315,424.346,983.916,425.045,984.215 C425.944,984.515,426.943,983.816,426.943,982.817 C426.943,982.018,427.542,981.418,428.342,981.418 C429.341,981.418,430.04,980.419,429.74,979.52 C429.54,978.721,429.94,977.922,430.639,977.722 C431.538,977.422,431.938,976.324,431.338,975.524 C430.839,974.925,431.039,974.026,431.638,973.527 C431.638,973.527,431.638,973.527,431.638,973.527 C432.437,972.927,432.437,971.729,431.638,971.229 z"/>
        </defs>
        <use xlink:href="#8" style="fill:#f2ba49;fill-opacity:1;fill-rule:evenodd;opacity:1;stroke:none;"/>
      </g>
    </defs>
    <use xlink:href="#7"/>
    <defs>
      <title>Shape 46</title>
      <g id="9">
        <defs>
          <path id="10" d="M429.94,972.328 C429.94,979.058,424.484,984.515,417.753,984.515 C411.022,984.515,405.566,979.058,405.566,972.328 C405.566,965.597,411.022,960.141,417.753,960.141 C424.484,960.141,429.94,965.597,429.94,972.328"/>
        </defs>
        <use xlink:href="#10" style="fill:#ffd34d;fill-opacity:1;fill-rule:evenodd;opacity:1;stroke:none;"/>
      </g>
    </defs>
    <use xlink:href="#9"/>
    <g id="11">
      <title>Group</title>
      <defs>
        <title>Shape 47</title>
        <g id="12">
          <defs>
            <path id="13" d="M417.753,982.717 C412.059,982.717,407.364,978.022,407.364,972.328 C407.364,966.634,412.059,961.939,417.753,961.939 C423.447,961.939,428.142,966.634,428.142,972.328 C428.142,978.122,423.447,982.717,417.753,982.717 z M417.753,962.838 C412.459,962.838,408.163,967.133,408.163,972.428 C408.163,977.722,412.459,982.017,417.753,982.017 C423.047,982.017,427.343,977.722,427.343,972.428 C427.343,967.133,423.047,962.838,417.753,962.838 z"/>
          </defs>
          <use xlink:href="#13" style="fill:#f2ba49;fill-opacity:1;fill-rule:evenodd;opacity:1;stroke:none;"/>
        </g>
      </defs>
      <use xlink:href="#12"/>
    </g>
    <g id="14">
      <title>Group</title>
      <defs>
        <title>Shape 48</title>
        <g id="15">
          <defs>
            <path id="16" d="M412.359,969.331 C415.955,969.331,419.551,969.331,423.147,969.331 C423.147,969.597,423.147,969.864,423.147,970.13 C419.551,970.13,415.955,970.13,412.359,970.13 C412.359,969.864,412.359,969.597,412.359,969.331 z"/>
          </defs>
          <use xlink:href="#16" style="fill:#f2ba49;fill-opacity:1;fill-rule:evenodd;opacity:1;stroke:none;"/>
        </g>
      </defs>
      <use xlink:href="#15"/>
    </g>
    <g id="17">
      <title>Group</title>
      <defs>
        <title>Shape 49</title>
        <g id="18">
          <defs>
            <path id="19" d="M412.359,971.928 C415.955,971.928,419.551,971.928,423.147,971.928 C423.147,972.195,423.147,972.461,423.147,972.727 C419.551,972.727,415.955,972.727,412.359,972.727 C412.359,972.461,412.359,972.195,412.359,971.928 z"/>
          </defs>
          <use xlink:href="#19" style="fill:#f2ba49;fill-opacity:1;fill-rule:evenodd;opacity:1;stroke:none;"/>
        </g>
      </defs>
      <use xlink:href="#18"/>
    </g>
    <g id="20">
      <title>Group</title>
      <defs>
        <title>Shape 50</title>
        <g id="21">
          <defs>
            <path id="22" d="M412.359,974.625 C415.955,974.625,419.551,974.625,423.147,974.625 C423.147,974.892,423.147,975.158,423.147,975.424 C419.551,975.424,415.955,975.424,412.359,975.424 C412.359,975.158,412.359,974.892,412.359,974.625 z"/>
          </defs>
          <use xlink:href="#22" style="fill:#f2ba49;fill-opacity:1;fill-rule:evenodd;opacity:1;stroke:none;"/>
        </g>
      </defs>
      <use xlink:href="#21"/>
    </g>
    <defs>
      <title>Shape 51</title>
      <g id="23">
        <defs>
          <path id="24" d="M404.367,961.439 C404.367,961.439,404.367,960.241,404.367,960.241 C404.367,960.241,403.668,960.241,403.668,960.241 C403.668,960.241,403.668,961.439,403.668,961.439 C403.668,961.439,402.469,961.439,402.469,961.439 C402.469,961.439,402.469,962.139,402.469,962.139 C402.469,962.139,403.668,962.139,403.668,962.139 C403.668,962.139,403.668,963.337,403.668,963.337 C403.668,963.337,404.367,963.337,404.367,963.337 C404.367,963.337,404.367,962.139,404.367,962.139 C404.367,962.139,405.566,962.139,405.566,962.139 C405.566,962.139,405.566,961.439,405.566,961.439 z"/>
        </defs>
        <use xlink:href="#24" style="fill:#f2ba49;fill-opacity:1;fill-rule:evenodd;opacity:1;stroke:none;"/>
      </g>
    </defs>
    <use xlink:href="#23"/>
    <defs>
      <title>Shape 52</title>
      <g id="25">
        <defs>
          <path id="26" d="M433.736,966.334 C433.736,966.334,433.736,965.335,433.736,965.335 C433.736,965.335,433.236,965.335,433.236,965.335 C433.236,965.335,433.236,966.334,433.236,966.334 C433.236,966.334,432.237,966.334,432.237,966.334 C432.237,966.334,432.237,966.934,432.237,966.934 C432.237,966.934,433.236,966.934,433.236,966.934 C433.236,966.934,433.236,967.833,433.236,967.833 C433.236,967.833,433.736,967.833,433.736,967.833 C433.736,967.833,433.736,966.934,433.736,966.934 C433.736,966.934,434.735,966.934,434.735,966.934 C434.735,966.934,434.735,966.334,434.735,966.334 z"/>
        </defs>
        <use xlink:href="#26" style="fill:#ffd34d;fill-opacity:1;fill-rule:evenodd;opacity:1;stroke:none;"/>
      </g>
    </defs>
    <use xlink:href="#25"/>
    <defs>
      <title>Shape 53</title>
      <g id="27">
        <defs>
          <path id="28" d="M431.338,984.615 C431.338,985.166,430.891,985.614,430.339,985.614 C429.788,985.614,429.341,985.166,429.341,984.615 C429.341,984.063,429.788,983.616,430.339,983.616 C430.891,983.616,431.338,984.063,431.338,984.615"/>
        </defs>
        <use xlink:href="#28" style="fill:#ffd34d;fill-opacity:1;fill-rule:evenodd;opacity:1;stroke:none;"/>
      </g>
    </defs>
    <use xlink:href="#27"/>
    <defs>
      <title>Shape 54</title>
      <g id="29">
        <defs>
          <path id="30" d="M406.065,984.215 C406.065,984.615,405.766,984.914,405.366,984.914 C404.967,984.914,404.667,984.615,404.667,984.215 C404.667,983.816,404.967,983.516,405.366,983.516 C405.766,983.516,406.065,983.915,406.065,984.215 z"/>
        </defs>
        <use xlink:href="#30" style="fill:#ffd34d;fill-opacity:1;fill-rule:evenodd;opacity:1;stroke:none;"/>
      </g>
    </defs>
    <use xlink:href="#29"/>
    <defs>
      <title>Shape 55</title>
      <g id="31">
        <defs>
          <path id="32" d="M404.967,981.218 C404.967,981.818,404.467,982.317,403.868,982.317 C403.268,982.317,402.769,981.818,402.769,981.218 C402.769,980.619,403.268,980.12,403.868,980.12 C404.467,980.12,404.967,980.619,404.967,981.218 z"/>
        </defs>
        <use xlink:href="#32" style="fill:#f2ba49;fill-opacity:1;fill-rule:evenodd;opacity:1;stroke:none;"/>
      </g>
    </defs>
    <use xlink:href="#31"/>
    <defs>
      <title>Shape 56</title>
      <g id="33">
        <defs>
          <path id="34" d="M432.337,963.337 C432.337,963.737,432.038,964.037,431.638,964.037 C431.239,964.037,430.939,963.737,430.939,963.337 C430.939,962.938,431.238,962.638,431.638,962.638 C431.938,962.638,432.337,962.938,432.337,963.337 z"/>
        </defs>
        <use xlink:href="#34" style="fill:#f2ba49;fill-opacity:1;fill-rule:evenodd;opacity:1;stroke:none;"/>
      </g>
    </defs>
    <use xlink:href="#33"/>
  </g>
  <g id="35">
    <title>Group</title>
    <g id="36">
      <title>Group</title>
      <defs>
        <title>Shape 57</title>
        <g id="37">
          <defs>
            <path id="38" d="M348.727,933.769 C343.333,933.769,338.038,932.97,332.944,931.372 C327.849,929.773,323.354,927.476,319.358,924.279 C315.662,921.183,312.665,917.287,310.568,912.692 C308.37,908.097,307.271,902.802,307.171,896.709 C317.827,896.709,328.482,896.709,339.137,896.709 C339.137,899.206,339.637,901.104,340.635,902.702 C341.634,904.201,342.833,905.4,344.132,906.199 C345.53,906.998,346.929,907.497,348.527,907.697 C350.125,907.797,351.524,907.797,352.822,907.497 C354.321,907.098,355.52,906.398,356.419,905.4 C357.318,904.401,357.817,903.202,357.817,901.803 C357.817,900.405,357.218,899.006,356.119,897.508 C355.02,896.01,352.822,894.411,349.726,892.913 C345.63,890.715,339.936,888.917,332.644,887.319 C329.248,886.42,325.951,885.321,323.054,883.923 C320.057,882.524,317.46,880.926,315.163,878.928 C312.066,876.231,309.669,873.034,308.07,869.038 C306.472,865.143,305.773,860.348,305.973,854.754 C306.172,849.859,307.471,845.564,309.968,842.067 C312.466,838.471,315.462,835.474,319.258,833.177 C322.954,830.779,327.15,829.081,331.745,827.982 C336.34,826.884,340.835,826.284,345.33,826.284 C353.022,826.284,359.415,827.083,364.71,828.682 C370.004,830.28,374.299,832.478,377.696,835.275 C381.092,838.072,383.589,841.568,385.288,845.464 C386.986,849.459,387.985,853.755,388.185,858.45 C378.229,858.45,368.273,858.45,358.317,858.45 C358.317,856.552,357.917,855.053,357.018,853.755 C356.219,852.456,355.12,851.457,353.821,850.758 C352.523,850.059,351.124,849.559,349.726,849.359 C348.227,849.16,346.929,849.16,345.63,849.26 C343.532,849.459,341.834,850.059,340.336,851.058 C338.837,852.057,338.138,853.555,338.138,855.553 C338.138,857.551,339.237,859.149,341.335,860.348 C343.532,861.546,347.328,862.745,352.922,863.944 C358.017,865.043,363.012,866.541,367.906,868.339 C372.801,870.237,377.196,872.535,381.092,875.432 C384.988,878.328,388.085,881.725,390.482,885.621 C392.88,889.516,393.978,894.012,393.978,899.206 C393.978,905.1,392.78,910.194,390.482,914.49 C388.085,918.785,384.888,922.381,380.792,925.278 C376.697,928.175,371.802,930.273,366.308,931.671 C360.914,933.07,354.92,933.769,348.727,933.769 z"/>
          </defs>
          <use xlink:href="#38" style="fill:#ffffff;fill-opacity:1;fill-rule:evenodd;opacity:1;stroke:none;"/>
        </g>
      </defs>
      <use xlink:href="#37"/>
      <defs>
        <title>Shape 58</title>
        <g id="39">
          <defs>
            <path id="40" d="M400.471,931.272 C410.294,896.975,420.117,862.679,429.94,828.382 C429.94,828.382,470.496,828.382,470.496,828.382 C480.253,862.679,490.009,896.975,499.765,931.272 C488.044,931.272,476.324,931.272,464.603,931.272 C463.171,925.045,461.739,918.818,460.307,912.592 C452.749,912.592,445.19,912.592,437.632,912.592 C436.067,918.818,434.502,925.045,432.937,931.272 C432.937,931.272,400.471,931.272,400.471,931.272 z M441.428,887.818 C441.428,887.818,456.511,887.818,456.511,887.818 C454.047,877.13,451.583,866.441,449.119,855.753 C449.119,855.753,441.428,887.818,441.428,887.818 z"/>
          </defs>
          <use xlink:href="#40" style="fill:#ffffff;fill-opacity:1;fill-rule:evenodd;opacity:1;stroke:none;"/>
        </g>
      </defs>
      <use xlink:href="#39"/>
      <defs>
        <title>Shape 59</title>
        <g id="41">
          <defs>
            <path id="42" d="M510.554,931.272 C510.554,896.975,510.554,862.679,510.554,828.382 C522.141,828.382,533.729,828.382,545.316,828.382 C545.316,828.382,545.316,904.201,545.316,904.201 C554.773,904.201,564.23,904.201,573.686,904.201 C573.686,913.224,573.686,922.248,573.686,931.272 C573.686,931.272,510.554,931.272,510.554,931.272 z"/>
          </defs>
          <use xlink:href="#42" style="fill:#ffffff;fill-opacity:1;fill-rule:evenodd;opacity:1;stroke:none;"/>
        </g>
      </defs>
      <use xlink:href="#41"/>
      <defs>
        <title>Shape 60</title>
        <g id="43">
          <defs>
            <path id="44" d="M588.37,931.272 C588.37,896.975,588.37,862.679,588.37,828.382 C588.37,828.382,661.292,828.382,661.292,828.382 C661.292,837.539,661.292,846.696,661.292,855.853 C648.672,855.853,636.053,855.853,623.433,855.853 C623.433,859.815,623.433,863.777,623.433,867.74 C634.621,867.74,645.809,867.74,656.997,867.74 C656.997,875.964,656.997,884.189,656.997,892.413 C645.809,892.413,634.621,892.413,623.433,892.413 C623.433,892.413,623.433,904.201,623.433,904.201 C623.433,904.201,661.292,904.201,661.292,904.201 C661.292,913.224,661.292,922.248,661.292,931.272 C661.292,931.272,588.37,931.272,588.37,931.272 z"/>
          </defs>
          <use xlink:href="#44" style="fill:#ffffff;fill-opacity:1;fill-rule:evenodd;opacity:1;stroke:none;"/>
        </g>
      </defs>
      <use xlink:href="#43"/>
      <defs>
        <title>Shape 61</title>
        <g id="45">
          <defs>
            <path id="46" d="M716.633,933.769 C711.239,933.769,705.945,932.97,700.85,931.372 C695.755,929.773,691.26,927.476,687.265,924.279 C683.569,921.183,680.572,917.287,678.474,912.692 C676.276,908.097,675.178,902.802,675.078,896.709 C685.733,896.709,696.388,896.709,707.043,896.709 C707.043,899.206,707.543,901.104,708.542,902.702 C709.541,904.201,710.739,905.4,712.038,906.199 C713.437,906.998,714.835,907.497,716.433,907.697 C718.032,907.797,719.43,907.797,720.729,907.497 C722.227,907.098,723.426,906.398,724.325,905.4 C725.224,904.401,725.723,903.202,725.723,901.803 C725.723,900.405,725.124,899.006,724.025,897.508 C722.926,896.01,720.729,894.411,717.632,892.913 C713.536,890.715,707.843,888.917,700.55,887.319 C697.154,886.42,693.857,885.321,690.961,883.923 C687.964,882.524,685.367,880.926,683.069,878.928 C679.972,876.231,677.575,873.034,675.977,869.038 C674.378,865.143,673.679,860.348,673.879,854.754 C674.079,849.859,675.377,845.564,677.875,842.067 C680.372,838.471,683.369,835.474,687.165,833.177 C690.861,830.779,695.056,829.081,699.651,827.982 C704.246,826.884,708.742,826.284,713.237,826.284 C720.929,826.284,727.322,827.083,732.616,828.682 C737.91,830.28,742.206,832.478,745.602,835.275 C748.999,838.072,751.496,841.568,753.194,845.464 C754.892,849.459,755.891,853.755,756.091,858.45 C746.135,858.45,736.179,858.45,726.223,858.45 C726.223,856.552,725.823,855.053,724.924,853.755 C724.125,852.456,723.026,851.457,721.728,850.758 C720.429,850.059,719.031,849.559,717.632,849.359 C716.134,849.16,714.735,849.16,713.536,849.26 C711.439,849.459,709.741,850.059,708.242,851.058 C706.744,852.057,706.045,853.555,706.045,855.553 C706.045,857.551,707.143,859.149,709.241,860.348 C711.439,861.546,715.235,862.745,720.829,863.944 C725.923,865.043,730.918,866.541,735.813,868.339 C740.707,870.237,745.103,872.535,748.999,875.432 C752.894,878.328,755.991,881.725,758.389,885.621 C760.786,889.516,761.885,894.012,761.885,899.206 C761.885,905.1,760.686,910.194,758.389,914.49 C755.991,918.785,752.795,922.381,748.699,925.278 C744.603,928.175,739.708,930.273,734.214,931.671 C728.82,933.07,722.926,933.769,716.633,933.769 z"/>
          </defs>
          <use xlink:href="#46" style="fill:#ffffff;fill-opacity:1;fill-rule:evenodd;opacity:1;stroke:none;"/>
        </g>
      </defs>
      <use xlink:href="#45"/>
    </g>
    <g id="47">
      <title>Group</title>
      <defs>
        <title>Shape 62</title>
        <g id="48">
          <defs>
            <path id="49" d="M321.256,980.819 C320.657,980.219,319.858,979.42,318.959,978.521 C316.661,980.219,313.864,981.318,310.568,981.318 C304.974,981.318,300.478,978.421,300.478,972.428 C300.478,967.833,303.575,965.335,307.071,963.537 C305.873,961.34,305.074,959.042,305.074,956.944 C305.074,952.849,308.67,949.652,313.764,949.652 C318.06,949.652,321.756,951.95,321.756,956.145 C321.756,960.84,318.06,962.838,314.264,964.536 C315.163,965.735,316.062,966.934,316.861,967.833 C317.76,968.931,318.559,970.03,319.458,971.029 C320.757,969.031,321.656,966.834,322.255,965.036 C323.787,965.768,325.319,966.501,326.85,967.233 C325.751,969.631,324.353,972.228,322.555,974.526 C324.353,976.523,326.351,978.521,328.449,980.719 C328.449,980.719,321.256,980.719,321.256,980.719 z M315.862,975.225 C314.464,973.726,313.165,972.228,312.466,971.329 C311.467,970.13,310.368,968.732,309.369,967.333 C307.771,968.432,306.672,969.93,306.672,972.028 C306.672,975.025,308.869,976.823,311.367,976.823 C312.965,976.723,314.464,976.124,315.862,975.225 z M312.166,961.34 C314.763,960.141,316.761,958.742,316.761,956.545 C316.761,954.946,315.562,953.948,314.064,953.948 C312.266,953.948,310.867,955.246,310.867,957.244 C310.867,958.443,311.367,959.841,312.166,961.34 z"/>
          </defs>
          <use xlink:href="#49" style="fill:#ffffff;fill-opacity:1;fill-rule:evenodd;opacity:1;stroke:none;"/>
        </g>
      </defs>
      <use xlink:href="#48"/>
      <defs>
        <title>Shape 63</title>
        <g id="50">
          <defs>
            <path id="51" d="M343.932,980.819 C343.932,980.819,343.932,950.152,343.932,950.152 C348.694,950.152,353.455,950.152,358.217,950.152 C364.91,950.152,368.506,954.647,368.506,960.041 C368.506,965.335,364.81,969.831,358.217,969.831 C355.619,969.831,353.022,969.831,350.425,969.831 C350.425,973.46,350.425,977.089,350.425,980.719 C350.425,980.719,343.932,980.719,343.932,980.719 z M361.813,960.041 C361.813,957.444,359.815,955.945,357.318,955.945 C355.02,955.945,352.723,955.945,350.425,955.945 C350.425,958.676,350.425,961.406,350.425,964.137 C352.723,964.137,355.02,964.137,357.318,964.137 C359.815,964.137,361.813,962.538,361.813,960.041 z"/>
          </defs>
          <use xlink:href="#51" style="fill:#ffffff;fill-opacity:1;fill-rule:evenodd;opacity:1;stroke:none;"/>
        </g>
      </defs>
      <use xlink:href="#50"/>
      <defs>
        <title>Shape 64</title>
        <g id="52">
          <defs>
            <path id="53" d="M389.783,980.819 C387.785,977.189,385.787,973.56,383.789,969.93 C382.191,969.93,380.593,969.93,378.994,969.93 C378.994,973.56,378.994,977.189,378.994,980.819 C376.83,980.819,374.666,980.819,372.501,980.819 C372.501,980.819,372.501,950.152,372.501,950.152 C377.263,950.152,382.025,950.152,386.786,950.152 C393.179,950.152,397.075,954.347,397.075,960.041 C397.075,965.435,393.679,968.332,390.382,969.131 C392.68,973.027,394.977,976.923,397.275,980.819 C397.275,980.819,389.783,980.819,389.783,980.819 z M390.482,960.041 C390.482,957.544,388.484,955.945,385.987,955.945 C383.689,955.945,381.392,955.945,379.094,955.945 C379.094,958.709,379.094,961.473,379.094,964.237 C381.392,964.237,383.689,964.237,385.987,964.237 C388.484,964.137,390.482,962.638,390.482,960.041 z"/>
          </defs>
          <use xlink:href="#53" style="fill:#ffffff;fill-opacity:1;fill-rule:evenodd;opacity:1;stroke:none;"/>
        </g>
      </defs>
      <use xlink:href="#52"/>
      <defs>
        <title>Shape 65</title>
        <g id="54">
          <defs>
            <path id="55" d="M463.704,980.819 C463.704,973.46,463.704,966.101,463.704,958.742 C460.84,966.101,457.977,973.46,455.113,980.819 C454.181,980.819,453.248,980.819,452.316,980.819 C449.452,973.46,446.589,966.101,443.725,958.742 C443.725,966.101,443.725,973.46,443.725,980.819 C441.561,980.819,439.396,980.819,437.232,980.819 C437.232,980.819,437.232,950.152,437.232,950.152 C440.262,950.152,443.292,950.152,446.322,950.152 C448.786,956.511,451.25,962.871,453.714,969.231 C456.178,962.871,458.643,956.511,461.107,950.152 C464.17,950.152,467.233,950.152,470.297,950.152 C470.297,960.341,470.297,970.53,470.297,980.719 C470.297,980.719,463.704,980.719,463.704,980.719 z"/>
          </defs>
          <use xlink:href="#55" style="fill:#ffffff;fill-opacity:1;fill-rule:evenodd;opacity:1;stroke:none;"/>
        </g>
      </defs>
      <use xlink:href="#54"/>
      <defs>
        <title>Shape 66</title>
        <g id="56">
          <defs>
            <path id="57" d="M474.892,965.535 C474.892,956.345,481.585,949.752,490.875,949.752 C500.065,949.752,506.858,956.345,506.858,965.535 C506.858,974.725,500.165,981.318,490.875,981.318 C481.585,981.318,474.892,974.725,474.892,965.535 z M500.065,965.535 C500.065,959.841,496.469,955.446,490.775,955.446 C485.081,955.446,481.485,959.741,481.485,965.535 C481.485,971.229,485.081,975.624,490.775,975.624 C496.469,975.524,500.065,971.229,500.065,965.535 z"/>
          </defs>
          <use xlink:href="#57" style="fill:#ffffff;fill-opacity:1;fill-rule:evenodd;opacity:1;stroke:none;"/>
        </g>
      </defs>
      <use xlink:href="#56"/>
      <defs>
        <title>Shape 67</title>
        <g id="58">
          <defs>
            <path id="59" d="M517.346,980.819 C517.346,972.528,517.346,964.237,517.346,955.945 C517.346,955.945,508.456,955.945,508.456,955.945 C508.456,955.945,508.456,950.152,508.456,950.152 C516.581,950.152,524.705,950.152,532.83,950.152 C532.83,952.05,532.83,953.948,532.83,955.845 C529.866,955.845,526.903,955.845,523.939,955.845 C523.939,964.137,523.939,972.428,523.939,980.719 C523.939,980.719,517.346,980.719,517.346,980.719 z"/>
          </defs>
          <use xlink:href="#59" style="fill:#ffffff;fill-opacity:1;fill-rule:evenodd;opacity:1;stroke:none;"/>
        </g>
      </defs>
      <use xlink:href="#58"/>
      <defs>
        <title>Shape 68</title>
        <g id="60">
          <defs>
            <path id="61" d="M537.025,980.819 C537.025,980.819,537.025,950.152,537.025,950.152 C539.19,950.152,541.354,950.152,543.518,950.152 C543.518,960.341,543.518,970.53,543.518,980.719 C543.518,980.719,537.025,980.719,537.025,980.719 z"/>
          </defs>
          <use xlink:href="#61" style="fill:#ffffff;fill-opacity:1;fill-rule:evenodd;opacity:1;stroke:none;"/>
        </g>
      </defs>
      <use xlink:href="#60"/>
      <defs>
        <title>Shape 69</title>
        <g id="62">
          <defs>
            <path id="63" d="M548.113,965.535 C548.113,956.345,554.806,949.752,564.096,949.752 C573.286,949.752,580.079,956.345,580.079,965.535 C580.079,974.725,573.386,981.318,564.096,981.318 C554.806,981.318,548.113,974.725,548.113,965.535 z M573.386,965.535 C573.386,959.841,569.79,955.446,564.096,955.446 C558.402,955.446,554.806,959.741,554.806,965.535 C554.806,971.229,558.402,975.624,564.096,975.624 C569.69,975.524,573.386,971.229,573.386,965.535 z"/>
          </defs>
          <use xlink:href="#63" style="fill:#ffffff;fill-opacity:1;fill-rule:evenodd;opacity:1;stroke:none;"/>
        </g>
      </defs>
      <use xlink:href="#62"/>
      <defs>
        <title>Shape 70</title>
        <g id="64">
          <defs>
            <path id="65" d="M605.752,980.819 C600.89,974.159,596.029,967.5,591.167,960.84 C591.167,967.5,591.167,974.159,591.167,980.819 C589.003,980.819,586.839,980.819,584.674,980.819 C584.674,980.819,584.674,950.152,584.674,950.152 C586.905,950.152,589.136,950.152,591.367,950.152 C596.095,956.545,600.824,962.938,605.552,969.331 C605.552,969.331,605.552,950.152,605.552,950.152 C607.716,950.152,609.881,950.152,612.045,950.152 C612.045,960.341,612.045,970.53,612.045,980.719 C612.045,980.719,605.752,980.719,605.752,980.719 z"/>
          </defs>
          <use xlink:href="#65" style="fill:#ffffff;fill-opacity:1;fill-rule:evenodd;opacity:1;stroke:none;"/>
        </g>
      </defs>
      <use xlink:href="#64"/>
      <defs>
        <title>Shape 71</title>
        <g id="66">
          <defs>
            <path id="67" d="M615.941,976.423 C617.14,974.725,618.338,973.027,619.537,971.329 C621.735,973.527,625.031,975.524,629.227,975.524 C632.823,975.524,634.521,973.926,634.521,972.128 C634.521,966.834,616.94,970.53,616.94,959.042 C616.94,953.948,621.335,949.752,628.527,949.752 C633.422,949.752,637.418,951.25,640.415,954.047 C639.216,955.679,638.017,957.311,636.819,958.942 C634.321,956.645,631.025,955.546,627.928,955.546 C625.131,955.546,623.633,956.745,623.633,958.543 C623.633,963.337,641.214,960.141,641.214,971.529 C641.214,977.123,637.218,981.318,628.927,981.318 C623.033,981.318,618.838,979.32,615.941,976.423 z"/>
          </defs>
          <use xlink:href="#67" style="fill:#ffffff;fill-opacity:1;fill-rule:evenodd;opacity:1;stroke:none;"/>
        </g>
      </defs>
      <use xlink:href="#66"/>
      <defs>
        <title>Shape 72</title>
        <g id="68">
          <defs>
            <path id="69" d="M655.199,976.423 C656.398,974.725,657.596,973.027,658.795,971.329 C660.993,973.527,664.289,975.524,668.485,975.524 C672.081,975.524,673.779,973.926,673.779,972.128 C673.779,966.834,656.198,970.53,656.198,959.042 C656.198,953.948,660.593,949.752,667.785,949.752 C672.68,949.752,676.676,951.25,679.673,954.047 C678.474,955.679,677.275,957.311,676.077,958.942 C673.579,956.645,670.283,955.546,667.186,955.546 C664.389,955.546,662.891,956.745,662.891,958.543 C662.891,963.337,680.472,960.141,680.472,971.529 C680.472,977.123,676.476,981.318,668.185,981.318 C662.391,981.318,658.096,979.32,655.199,976.423 z"/>
          </defs>
          <use xlink:href="#69" style="fill:#ffffff;fill-opacity:1;fill-rule:evenodd;opacity:1;stroke:none;"/>
        </g>
      </defs>
      <use xlink:href="#68"/>
      <defs>
        <title>Shape 73</title>
        <g id="70">
          <defs>
            <path id="71" d="M702.149,980.819 C700.151,977.189,698.153,973.56,696.155,969.93 C694.557,969.93,692.958,969.93,691.36,969.93 C691.36,973.56,691.36,977.189,691.36,980.819 C689.196,980.819,687.031,980.819,684.867,980.819 C684.867,980.819,684.867,950.152,684.867,950.152 C689.629,950.152,694.39,950.152,699.152,950.152 C705.545,950.152,709.441,954.347,709.441,960.041 C709.441,965.435,706.044,968.332,702.748,969.131 C705.045,973.027,707.343,976.923,709.641,980.819 C709.641,980.819,702.149,980.819,702.149,980.819 z M702.748,960.041 C702.748,957.544,700.75,955.945,698.253,955.945 C695.955,955.945,693.658,955.945,691.36,955.945 C691.36,958.709,691.36,961.473,691.36,964.237 C693.658,964.237,695.955,964.237,698.253,964.237 C700.85,964.137,702.748,962.638,702.748,960.041 z"/>
          </defs>
          <use xlink:href="#71" style="fill:#ffffff;fill-opacity:1;fill-rule:evenodd;opacity:1;stroke:none;"/>
        </g>
      </defs>
      <use xlink:href="#70"/>
      <defs>
        <title>Shape 74</title>
        <g id="72">
          <defs>
            <path id="73" d="M714.036,980.819 C714.036,980.819,714.036,950.152,714.036,950.152 C716.234,950.152,718.431,950.152,720.629,950.152 C720.629,958.443,720.629,966.734,720.629,975.025 C724.924,975.025,729.22,975.025,733.515,975.025 C733.515,976.923,733.515,978.821,733.515,980.719 C733.515,980.719,714.036,980.719,714.036,980.719 z"/>
          </defs>
          <use xlink:href="#73" style="fill:#ffffff;fill-opacity:1;fill-rule:evenodd;opacity:1;stroke:none;"/>
        </g>
      </defs>
      <use xlink:href="#72"/>
      <defs>
        <title>Shape 75</title>
        <g id="74">
          <defs>
            <path id="75" d="M735.813,976.423 C737.011,974.725,738.21,973.027,739.409,971.329 C741.606,973.527,744.903,975.524,749.098,975.524 C752.695,975.524,754.393,973.926,754.393,972.128 C754.393,966.834,736.812,970.53,736.812,959.042 C736.812,953.948,741.207,949.752,748.399,949.752 C753.294,949.752,757.29,951.25,760.286,954.047 C759.088,955.679,757.889,957.311,756.69,958.942 C754.193,956.645,750.896,955.546,747.8,955.546 C745.003,955.546,743.504,956.745,743.504,958.543 C743.504,963.337,761.086,960.141,761.086,971.529 C761.086,977.123,757.09,981.318,748.799,981.318 C743.005,981.318,738.709,979.32,735.813,976.423 z"/>
          </defs>
          <use xlink:href="#75" style="fill:#ffffff;fill-opacity:1;fill-rule:evenodd;opacity:1;stroke:none;"/>
        </g>
      </defs>
      <use xlink:href="#74"/>
    </g>
    <g id="76">
      <title>Group</title>
      <defs>
        <title>Shape 76</title>
        <g id="77">
          <defs>
            <path id="78" d="M108.784,813.797 C127.963,793.22,155.234,780.433,183.304,779.135 C214.67,777.237,246.336,789.723,268.113,812.399 C281.998,826.684,291.988,844.764,296.483,864.144 C303.275,892.813,297.981,924.079,282.098,948.853 C276.904,943.758,271.709,938.564,266.515,933.369 C274.406,919.384,278.502,903.402,278.102,887.419 C277.803,869.837,272.009,852.456,261.92,838.071 C251.031,822.688,235.248,810.801,217.267,804.907 C200.186,799.213,181.406,798.913,164.124,803.908 C143.846,809.802,125.965,823.187,114.577,840.868 C96.2969,868.339,95.4978,905.999,112.38,934.268 C120.971,948.853,133.757,961.04,148.841,968.732 C167.92,978.521,190.696,981.018,211.474,975.624 C226.757,971.728,240.942,963.537,252.13,952.349 C257.125,957.344,262.219,962.438,267.214,967.433 C256.426,978.221,243.34,986.812,229.155,992.306 C207.378,1000.8,182.804,1002.1,160.229,995.903 C133.757,988.81,110.282,971.329,95.7974,948.054 C83.2109,928.175,77.4171,904.101,79.3151,880.626 C81.1132,855.853,91.7019,831.878,108.784,813.797 z"/>
          </defs>
          <use xlink:href="#78" style="fill:#ffffff;fill-opacity:1;fill-rule:evenodd;opacity:1;stroke:none;"/>
        </g>
      </defs>
      <use xlink:href="#77"/>
    </g>
    <g id="79">
      <title>Group</title>
      <defs>
        <title>Shape 77</title>
        <g id="80">
          <defs>
            <path id="81" d="M240.343,885.621 C250.832,885.121,261.32,884.522,271.809,884.022 C268.313,893.512,264.717,902.902,261.22,912.292 C260.321,909.595,259.422,906.898,258.623,904.201 C251.431,908.996,244.139,913.491,236.946,918.386 C237.046,929.873,236.946,941.461,236.946,952.949 C227.357,960.041,216.269,965.036,204.581,967.433 C204.581,958.043,204.581,948.653,204.581,939.263 C200.985,941.661,197.289,943.958,193.693,946.456 C193.693,953.948,193.693,961.34,193.693,968.832 C185.402,969.231,177.11,968.432,169.019,966.434 C168.819,958.043,169.419,949.552,168.719,941.161 C166.422,938.464,163.725,936.167,161.327,933.669 C160.728,933.969,159.429,934.668,158.83,934.968 C158.73,944.358,158.83,953.748,158.83,963.138 C152.037,960.341,145.544,956.545,139.75,952.05 C139.75,949.552,139.75,947.055,139.75,944.658 C137.653,945.756,135.455,946.755,133.357,947.854 C143.247,938.464,153.136,929.174,162.926,919.884 C169.119,925.278,175.412,930.772,181.606,936.167 C203.982,921.183,226.358,906.199,248.834,891.315 C245.937,889.417,243.14,887.519,240.343,885.621 z"/>
          </defs>
          <use xlink:href="#81" style="fill:#ffffff;fill-opacity:1;fill-rule:evenodd;opacity:1;stroke:none;"/>
        </g>
      </defs>
      <use xlink:href="#80"/>
    </g>
    <g id="82">
      <title>Group</title>
      <defs>
        <title>Shape 78</title>
        <g id="83">
          <defs>
            <path id="84" d="M211.074,826.084 C217.068,825.685,223.061,825.885,229.055,825.885 C233.35,825.885,236.946,829.78,236.946,833.976 C237.046,837.672,237.246,841.368,236.747,845.064 C236.147,848.76,232.751,851.657,228.955,851.757 C223.461,851.857,217.867,851.857,212.373,851.757 C208.577,851.657,204.981,848.66,204.581,844.764 C204.281,840.769,204.281,836.773,204.581,832.877 C204.981,829.581,207.778,826.784,211.074,826.084 z"/>
          </defs>
          <use xlink:href="#84" style="fill:#ff8946;fill-opacity:1;fill-rule:evenodd;opacity:1;stroke:none;"/>
        </g>
      </defs>
      <use xlink:href="#83"/>
    </g>
    <g id="85">
      <title>Group</title>
      <defs>
        <title>Shape 79</title>
        <g id="86">
          <defs>
            <path id="87" d="M208.077,866.541 C211.673,863.344,216.868,864.144,221.263,863.944 C225.159,864.144,229.554,863.544,232.851,866.042 C235.548,868.039,236.946,871.336,236.946,874.632 C237.046,880.826,236.946,887.019,236.946,893.212 C226.158,900.405,215.569,907.897,204.481,914.689 C204.281,901.703,204.481,888.717,204.381,875.631 C204.281,872.435,205.38,868.739,208.077,866.541 z"/>
          </defs>
          <use xlink:href="#87" style="fill:#ff8946;fill-opacity:1;fill-rule:evenodd;opacity:1;stroke:none;"/>
        </g>
      </defs>
      <use xlink:href="#86"/>
    </g>
    <g id="88">
      <title>Group</title>
      <defs>
        <title>Shape 80</title>
        <g id="89">
          <defs>
            <path id="90" d="M173.115,865.742 C178.109,865.242,183.204,865.442,188.298,865.542 C191.495,865.542,193.893,868.739,193.593,871.835 C193.493,875.831,194.891,881.525,190.496,883.922 C185.002,885.221,179.208,884.721,173.614,884.222 C171.317,884.122,169.319,881.924,169.119,879.627 C168.819,876.43,168.819,873.234,169.119,870.137 C169.419,868.039,171.217,866.241,173.115,865.742 z"/>
          </defs>
          <use xlink:href="#90" style="fill:#ff8946;fill-opacity:1;fill-rule:evenodd;opacity:1;stroke:none;"/>
        </g>
      </defs>
      <use xlink:href="#89"/>
    </g>
    <g id="91">
      <title>Group</title>
      <defs>
        <title>Shape 81</title>
        <g id="92">
          <defs>
            <path id="93" d="M143.047,893.812 C146.843,893.412,150.639,893.612,154.435,893.712 C157.232,893.612,159.13,896.409,158.73,899.006 C158.63,901.903,159.529,906.299,156.033,907.597 C152.337,908.596,148.341,907.997,144.445,908.097 C141.748,908.196,139.451,905.699,139.551,903.002 C139.351,899.805,139.051,894.711,143.047,893.812 z"/>
          </defs>
          <use xlink:href="#93" style="fill:#ff8946;fill-opacity:1;fill-rule:evenodd;opacity:1;stroke:none;"/>
        </g>
      </defs>
      <use xlink:href="#92"/>
    </g>
    <g id="94">
      <title>Group</title>
      <defs>
        <title>Shape 82</title>
        <g id="95">
          <defs>
            <path id="96" d="M169.119,900.904 C169.019,897.308,172.116,894.012,175.712,893.712 C179.208,893.512,182.804,893.512,186.401,893.712 C190.196,893.712,193.593,897.208,193.593,901.004 C193.693,908.097,193.593,915.289,193.593,922.381 C189.597,924.779,186.101,927.975,181.805,929.873 C177.41,926.477,173.414,922.581,169.119,918.985 C169.119,912.991,169.019,906.998,169.119,900.904 z"/>
          </defs>
          <use xlink:href="#96" style="fill:#ff8946;fill-opacity:1;fill-rule:evenodd;opacity:1;stroke:none;"/>
        </g>
      </defs>
      <use xlink:href="#95"/>
    </g>
    <g id="97">
      <title>Group</title>
      <defs>
        <title>Shape 83</title>
        <g id="98">
          <defs>
            <path id="99" d="M139.75,920.383 C139.95,917.387,142.547,914.69,145.644,914.889 C149.94,914.889,155.134,913.791,158.331,917.586 C152.337,923.58,146.144,929.474,139.75,935.168 C139.651,930.173,139.351,925.278,139.75,920.383 z"/>
          </defs>
          <use xlink:href="#99" style="fill:#ff8946;fill-opacity:1;fill-rule:evenodd;opacity:1;stroke:none;"/>
        </g>
      </defs>
      <use xlink:href="#98"/>
    </g>
  </g>
</svg>
