<?xml version="1.0" encoding="utf-8"?>
<svg x="0pt" y="250.65pt" width="184.863pt" height="231.937pt" viewBox="0 250.65 184.863 231.937" xmlns="http://www.w3.org/2000/svg" xmlns:xlink="http://www.w3.org/1999/xlink">
  <g id="1">
    <title>Layer 1</title>
    <defs>
      <title>Smart Star</title>
      <g id="2">
        <defs>
          <path id="3" d="M95.9213,258.385 C95.9213,258.385,100.546,271.69,100.546,271.69 C100.546,271.69,114.629,271.977,114.629,271.977 C114.629,271.977,103.404,280.487,103.404,280.487 C103.404,280.487,107.483,293.969,107.483,293.969 C107.483,293.969,95.9213,285.923,95.9213,285.923 C95.9213,285.923,84.3595,293.969,84.3595,293.969 C84.3595,293.969,88.4383,280.487,88.4383,280.487 C88.4383,280.487,77.2139,271.977,77.2139,271.977 C77.2139,271.977,91.2966,271.69,91.2966,271.69 C91.2966,271.69,95.9213,258.385,95.9213,258.385 z"/>
        </defs>
        <use xlink:href="#3" style="fill:#ffffff;fill-opacity:1;fill-rule:nonzero;opacity:1;stroke:none;"/>
      </g>
    </defs>
    <use xlink:href="#2"/>
    <defs>
      <title>Shape 33</title>
      <g id="4">
        <defs>
          <path id="5" d="M93.6241,427.946 C72.3472,397.556,113.207,377.172,95.9498,304.018 C87.5361,344.048,84.0867,346.206,68.5951,355.793 C49.3426,367.708,11.1998,349.267,11.1998,349.267 C11.1998,349.267,56.9286,377.13,63.9336,398.69 C70.9387,420.249,33.6983,463.779,33.6983,463.779 C33.6983,463.779,97.541,439.168,93.6241,427.946 z"/>
        </defs>
        <use xlink:href="#5" style="fill:#ffffff;fill-opacity:1;fill-rule:evenodd;opacity:1;stroke:none;"/>
      </g>
    </defs>
    <use xlink:href="#4"/>
    <defs>
      <title>Shape 31</title>
      <g id="6">
        <defs>
          <path id="7" d="M97.4447,304.018 C110.154,337.606,108.315,344.625,121.572,354.195 C139.953,367.463,171.841,353.946,171.841,353.946 C171.841,353.946,132.236,377.196,125.231,398.755 C118.226,420.315,138.359,442.15,144.924,463.848 C126.361,450.931,104.334,444.953,95.0581,424.328 C78.0138,386.431,114.654,391.572,97.4447,304.018 z"/>
        </defs>
        <use xlink:href="#7" style="fill:#ffffff;fill-opacity:1;fill-rule:evenodd;opacity:1;stroke:none;"/>
      </g>
    </defs>
    <use xlink:href="#6"/>
    <defs>
      <title>Smart Star</title>
      <g id="8">
        <defs>
          <path id="9" d="M54.1959,282.495 C54.1959,282.495,56.6573,289.576,56.6573,289.576 C56.6573,289.576,64.1523,289.728,64.1523,289.728 C64.1523,289.728,58.1785,294.257,58.1785,294.257 C58.1785,294.257,60.3493,301.433,60.3493,301.433 C60.3493,301.433,54.1959,297.151,54.1959,297.151 C54.1959,297.151,48.0426,301.433,48.0426,301.433 C48.0426,301.433,50.2134,294.257,50.2134,294.257 C50.2134,294.257,44.2396,289.728,44.2396,289.728 C44.2396,289.728,51.7346,289.576,51.7346,289.576 C51.7346,289.576,54.1959,282.495,54.1959,282.495 z"/>
        </defs>
        <use xlink:href="#9" style="fill:#ffffff;fill-opacity:1;fill-rule:nonzero;opacity:1;stroke:none;"/>
      </g>
    </defs>
    <use xlink:href="#8"/>
    <defs>
      <title>Smart Star</title>
      <g id="10">
        <defs>
          <path id="11" d="M138.795,282.495 C138.795,282.495,141.257,289.576,141.257,289.576 C141.257,289.576,148.752,289.728,148.752,289.728 C148.752,289.728,142.778,294.257,142.778,294.257 C142.778,294.257,144.949,301.433,144.949,301.433 C144.949,301.433,138.795,297.151,138.795,297.151 C138.795,297.151,132.642,301.433,132.642,301.433 C132.642,301.433,134.813,294.257,134.813,294.257 C134.813,294.257,128.839,289.728,128.839,289.728 C128.839,289.728,136.334,289.576,136.334,289.576 C136.334,289.576,138.795,282.495,138.795,282.495 z"/>
        </defs>
        <use xlink:href="#11" style="fill:#ffffff;fill-opacity:1;fill-rule:nonzero;opacity:1;stroke:none;"/>
      </g>
    </defs>
    <use xlink:href="#10"/>
    <defs>
      <title>Path</title>
      <g id="12">
        <defs>
          <path id="13" d="M58.2456,329.168 C64.3762,332.386,67.5329,338.448,65.2964,342.709 C63.0598,346.97,56.2769,347.816,50.1463,344.598 C44.0158,341.38,40.859,335.317,43.0956,331.056 C45.3321,326.795,52.115,325.95,58.2456,329.168 z"/>
        </defs>
        <use xlink:href="#13" style="fill:#ffffff;fill-opacity:1;fill-rule:evenodd;opacity:1;stroke:none;"/>
      </g>
    </defs>
    <use xlink:href="#12"/>
    <defs>
      <title>Path</title>
      <g id="14">
        <defs>
          <path id="15" d="M134.746,329.807 C128.615,333.025,125.458,339.088,127.695,343.349 C129.931,347.61,136.714,348.456,142.845,345.238 C148.975,342.02,152.132,335.957,149.896,331.696 C147.659,327.435,140.876,326.59,134.746,329.807 z"/>
        </defs>
        <use xlink:href="#15" style="fill:#ffffff;fill-opacity:1;fill-rule:evenodd;opacity:1;stroke:none;"/>
      </g>
    </defs>
    <use xlink:href="#14"/>
  </g>
</svg>
