<?xml version="1.0" encoding="utf-8"?>
<svg x="260.57pt" y="126.975pt" width="151.346pt" height="153.459pt" viewBox="260.57 126.975 151.346 153.459" xmlns="http://www.w3.org/2000/svg" xmlns:xlink="http://www.w3.org/1999/xlink">
  <g id="1">
    <title>Group</title>
    <defs>
      <title>Shape 254</title>
      <g id="2">
        <defs>
          <path id="3" d="M388.029,168.383 C388.029,168.383,405.916,180.329,405.916,180.329 C405.916,180.329,405.916,274.433,405.916,274.433 C405.916,274.433,266.709,274.433,266.709,274.433 C266.709,274.433,266.575,181.451,266.575,181.451 C266.575,181.451,285.847,168.491,285.847,168.491"/>
        </defs>
        <use xlink:href="#3" style="fill:none;opacity:1;stroke:#000000;stroke-linecap:butt;stroke-linejoin:miter;stroke-miterlimit:10;stroke-opacity:1;stroke-width:12;"/>
      </g>
    </defs>
    <use xlink:href="#2"/>
    <defs>
      <title>Shape 247</title>
      <g id="4">
        <defs>
          <path id="5" d="M308.163,153.485 C308.163,153.485,336.846,134.198,336.846,134.198 C336.846,134.198,365.538,153.361,365.538,153.361"/>
        </defs>
        <use xlink:href="#5" style="fill:none;opacity:1;stroke:#000000;stroke-linecap:butt;stroke-linejoin:miter;stroke-miterlimit:10;stroke-opacity:1;stroke-width:12;"/>
      </g>
    </defs>
    <use xlink:href="#4"/>
    <defs>
      <title>Path</title>
      <g id="6">
        <defs>
          <path id="7" d="M266.908,181.471 C266.908,181.471,336.846,227.754,336.846,227.754 C336.846,227.754,406.132,181.097,406.132,181.097"/>
        </defs>
        <use xlink:href="#7" style="fill:none;opacity:1;stroke:#000000;stroke-linecap:butt;stroke-linejoin:miter;stroke-miterlimit:10;stroke-opacity:1;stroke-width:12;"/>
      </g>
    </defs>
    <use xlink:href="#6"/>
    <defs>
      <title>Path</title>
      <g id="8">
        <defs>
          <path id="9" d="M406.051,274.337 C406.051,274.337,350.817,218.204,350.817,218.204"/>
        </defs>
        <use xlink:href="#9" style="fill:none;opacity:1;stroke:#000000;stroke-linecap:butt;stroke-linejoin:miter;stroke-miterlimit:10;stroke-opacity:1;stroke-width:12;"/>
      </g>
    </defs>
    <use xlink:href="#8"/>
    <defs>
      <title>Path</title>
      <g id="10">
        <defs>
          <path id="11" d="M267.503,274.309 C267.503,274.309,322.457,218.341,322.457,218.341"/>
        </defs>
        <use xlink:href="#11" style="fill:none;opacity:1;stroke:#000000;stroke-linecap:butt;stroke-linejoin:miter;stroke-miterlimit:10;stroke-opacity:1;stroke-width:12;"/>
      </g>
    </defs>
    <use xlink:href="#10"/>
    <defs>
      <title>Shape 251</title>
      <g id="12">
        <defs>
          <path id="13" d="M285.762,168.67 C285.762,168.67,285.762,153.734,285.762,153.734 C285.762,153.734,387.809,153.734,387.809,153.734 C387.809,153.734,387.809,193.915,387.809,193.915"/>
        </defs>
        <use xlink:href="#13" style="fill:none;opacity:1;stroke:#000000;stroke-linecap:butt;stroke-linejoin:miter;stroke-miterlimit:10;stroke-opacity:1;stroke-width:12;"/>
      </g>
    </defs>
    <use xlink:href="#12"/>
    <defs>
      <title>Path</title>
      <g id="14">
        <defs>
          <path id="15" d="M285.762,193.542 C285.762,193.542,285.762,168.67,285.762,168.67"/>
        </defs>
        <use xlink:href="#15" style="fill:none;opacity:1;stroke:#000000;stroke-linecap:butt;stroke-linejoin:miter;stroke-miterlimit:10;stroke-opacity:1;stroke-width:12;"/>
      </g>
    </defs>
    <use xlink:href="#14"/>
    <defs>
      <title>Text</title>
      <g id="16">
        <defs>
          <path id="17" d="M353.881,189.79 C353.731,193.996,352.868,197.335,351.292,199.807 C349.717,202.279,347.599,203.515,344.939,203.515 C343.766,203.515,342.753,203.211,341.9,202.604 C341.048,201.996,340.403,201.125,339.967,199.992 C338.603,202.291,336.822,203.441,334.626,203.441 C332.635,203.441,331.093,202.431,330.002,200.411 C328.911,198.39,328.501,195.721,328.774,192.402 C329.02,189.692,329.589,187.281,330.483,185.17 C331.376,183.059,332.505,181.437,333.869,180.303 C335.233,179.17,336.707,178.603,338.289,178.603 C340.24,178.603,341.904,179.145,343.282,180.23 C343.282,180.23,344.571,181.289,344.571,181.289 C344.571,181.289,343.527,195.532,343.527,195.532 C343.391,196.829,343.51,197.823,343.885,198.513 C344.26,199.203,344.857,199.548,345.676,199.548 C346.931,199.548,347.981,198.665,348.827,196.899 C349.672,195.133,350.136,192.821,350.218,189.963 C350.45,184.23,349.492,179.823,347.343,176.743 C345.195,173.663,342.013,172.123,337.798,172.123 C335.165,172.123,332.819,172.928,330.759,174.537 C328.699,176.147,327.076,178.435,325.889,181.4 C324.702,184.365,324.034,187.761,323.884,191.589 C323.666,197.404,324.634,201.901,326.789,205.08 C328.945,208.259,332.171,209.848,336.468,209.848 C337.6,209.848,338.787,209.696,340.028,209.392 C341.269,209.088,342.34,208.682,343.241,208.172 C343.241,208.172,344.018,211.967,344.018,211.967 C343.186,212.624,342.064,213.154,340.652,213.557 C339.24,213.959,337.818,214.16,336.386,214.16 C332.785,214.16,329.715,213.285,327.178,211.536 C324.641,209.786,322.748,207.207,321.5,203.799 C320.252,200.39,319.71,196.32,319.873,191.589 C320.037,187.055,320.897,182.989,322.452,179.392 C324.007,175.794,326.124,173.014,328.805,171.051 C331.485,169.088,334.51,168.106,337.88,168.106 C341.304,168.106,344.25,168.989,346.719,170.755 C349.188,172.521,351.036,175.047,352.264,178.332 C353.492,181.618,354.031,185.437,353.881,189.79 z M333.317,192.402 C333.167,194.571,333.324,196.217,333.787,197.343 C334.251,198.468,335.001,199.031,336.038,199.031 C336.707,199.031,337.341,198.677,337.941,197.971 C338.541,197.265,339.039,196.246,339.435,194.916 C339.435,194.916,340.294,183.26,340.294,183.26 C339.762,183.047,339.216,182.94,338.657,182.94 C337.089,182.94,335.871,183.745,335.005,185.355 C334.139,186.965,333.576,189.314,333.317,192.402 z"/>
        </defs>
        <use xlink:href="#17" style="fill:#000000;fill-opacity:1;fill-rule:nonzero;opacity:1;stroke:none;"/>
        <use xlink:href="#17" style="fill:none;opacity:1;stroke:#000000;stroke-linecap:butt;stroke-linejoin:miter;stroke-miterlimit:10;stroke-opacity:1;stroke-width:1;"/>
      </g>
    </defs>
    <use xlink:href="#16"/>
  </g>
</svg>
