<svg xmlns="http://www.w3.org/2000/svg" width="106.005" height="121.19" viewBox="0 0 106.005 121.19">
  <g id="Group_86" data-name="Group 86" transform="translate(0 53.167)">
    <path id="Path_56" data-name="Path 56" d="M18.681,20.045,58.5-53.167,82.1-40.33,42.285,32.882l-23.6-12.838Z" transform="translate(23.901 0)" fill="#0072D9" fill-rule="evenodd"/>
    <path id="Path_57" data-name="Path 57" d="M39.819,32.939,0-40.273,23.6-53.11,63.422,20.1Z" transform="translate(0 0.073)" fill="#0072D9" fill-rule="evenodd"/>
    <path id="Path_58" data-name="Path 58" d="M79.05,3.083A35.749,35.749,0,1,1,43.3-32.665,35.749,35.749,0,0,1,79.05,3.083" transform="translate(9.663 26.231)" fill="#FFD34D" fill-rule="evenodd"/>
    <path id="Path_59" data-name="Path 59" d="M40.362,30.655A30.513,30.513,0,0,1,9.85.144a30.511,30.511,0,1,1,61.023,0A30.513,30.513,0,0,1,40.362,30.655Zm0-58.746A28.229,28.229,0,0,0,12.127.144,28.085,28.085,0,0,0,40.362,28.378,28.229,28.229,0,0,0,68.6.144,28.229,28.229,0,0,0,40.362-28.091Z" transform="translate(12.602 29.17)" fill="#fff" fill-rule="evenodd"/>
    <path id="Path_60" data-name="Path 60" d="M33.716-25.673,38.27-12.011H52.615L41-3.586l4.326,13.662L33.716,1.651,22.1,10.076,26.657-3.586,15.044-12.011H29.389Z" transform="translate(19.248 35.177)" fill="#fff" fill-rule="evenodd"/>
    <path id="Path_61" data-name="Path 61" d="M39.017-.453V-4.1H36.968V-.453H33.325V1.6h3.643V5.24h2.049V1.6h3.643V-.453Z" transform="translate(42.636 62.783)" fill="#FFD34D" fill-rule="evenodd"/>
    <path id="Path_62" data-name="Path 62" d="M8.71-26.109v-2.96H7.116v2.96H4.156v1.594h2.96v2.96H8.71v-2.96h2.732v-1.594Z" transform="translate(5.317 30.832)" fill="#FFD34D" fill-rule="evenodd"/>
    <path id="Path_63" data-name="Path 63" d="M7.356-17.63A2.041,2.041,0,0,1,5.306-15.58,2.041,2.041,0,0,1,3.257-17.63a2.041,2.041,0,0,1,2.049-2.049A2.041,2.041,0,0,1,7.356-17.63Z" transform="translate(4.167 42.845)" fill="#FFD34D" fill-rule="evenodd"/>
    <path id="Path_64" data-name="Path 64" d="M10.808-6.514A2.277,2.277,0,0,1,8.531-4.237,2.277,2.277,0,0,1,6.254-6.514,2.277,2.277,0,0,1,8.531-8.791a2.277,2.277,0,0,1,2.277,2.277" transform="translate(8.001 56.776)" fill="#FFD34D" fill-rule="evenodd"/>
    <path id="Path_65" data-name="Path 65" d="M14.427-2.306A3.113,3.113,0,0,1,11.24.881,3.113,3.113,0,0,1,8.052-2.306,3.113,3.113,0,0,1,11.24-5.494,3.113,3.113,0,0,1,14.427-2.306Z" transform="translate(10.302 60.993)" fill="#FFD34D" fill-rule="evenodd"/>
    <path id="Path_66" data-name="Path 66" d="M49.657-14.609a3.871,3.871,0,0,1-3.871,3.871,3.871,3.871,0,0,1-3.871-3.871,3.871,3.871,0,0,1,3.871-3.871,3.871,3.871,0,0,1,3.871,3.871" transform="translate(53.627 44.379)" fill="#FFD34D" fill-rule="evenodd"/>
  </g>
</svg>
