<?xml version="1.0" encoding="utf-8"?>
<svg x="86.5554pt" y="134.198pt" width="140.201pt" height="140.236pt" viewBox="86.5554 134.198 140.201 140.236" xmlns="http://www.w3.org/2000/svg" xmlns:xlink="http://www.w3.org/1999/xlink">
  <g id="1">
    <title>Whatsapp</title>
    <defs>
      <title>CompoundGroup</title>
      <g id="2">
        <defs>
          <path id="3" d="M96.2849,238.689 C90.4313,228.474,87.085,216.64,87.085,204.024 C87.085,165.46,118.351,134.198,156.921,134.198 C195.49,134.198,226.756,165.46,226.756,204.024 C226.756,242.587,195.49,273.85,156.921,273.85 C144.655,273.85,133.127,270.688,123.109,265.135 C110.925,268.234,98.74,271.334,86.5554,274.433 C89.7986,262.518,93.0417,250.604,96.2849,238.689 z M128.827,254.769 C137.137,259.376,146.7,261.999,156.876,261.999 C188.871,261.999,214.809,236.065,214.809,204.073 C214.809,172.082,188.871,146.148,156.876,146.148 C124.88,146.148,98.9421,172.082,98.9421,204.073 C98.9421,214.539,101.718,224.357,106.574,232.83 C107.323,234.03,108.071,235.229,108.82,236.429 C106.87,243.736,104.921,251.043,102.972,258.35 C110.429,256.418,117.885,254.486,125.342,252.554 C126.504,253.293,127.665,254.031,128.827,254.769 z"/>
        </defs>
        <use xlink:href="#3" style="fill:#000000;fill-opacity:1;fill-rule:evenodd;opacity:1;stroke:none;"/>
      </g>
    </defs>
    <use xlink:href="#2"/>
    <defs>
      <title>Shape 240</title>
      <g id="4">
        <defs>
          <path id="5" d="M138.757,198.379 C141.215,195.486,143.747,192.466,144.185,191.875 C145.212,190.491,144.72,188.238,144.72,188.238 C144.72,188.238,140.541,176.36,138.193,173.498 C137.809,173.03,136.846,172.121,135.839,171.816 C134.831,171.511,130.632,171.71,130.632,171.71 C130.632,171.71,118.717,174.03,121.326,192.939 C129.362,218.065,155.853,234.269,170.242,237.177 C182.918,239.739,190.573,229.941,190.573,229.941 C190.573,229.941,193.188,224.908,192.321,220.783 C189.692,217.902,178.762,212.551,174.284,212.164 C171.804,212.609,165.871,221.578,165.871,221.578 C165.871,221.578,147.883,217.521,138.757,198.379 z"/>
        </defs>
        <use xlink:href="#5" style="fill:#000000;fill-opacity:1;fill-rule:evenodd;opacity:1;stroke:none;"/>
      </g>
    </defs>
    <use xlink:href="#4"/>
  </g>
</svg>
