<?xml version="1.0" encoding="utf-8"?>
<svg x="443.905pt" y="134.198pt" width="143.148pt" height="146.524pt" viewBox="443.905 134.198 143.148 146.524" xmlns="http://www.w3.org/2000/svg" xmlns:xlink="http://www.w3.org/1999/xlink">
  <g id="1">
    <title>Form</title>
    <clipPath id="3">
      <use xlink:href="#2"/>
      <path id="2" d="M553.382,168.326 C553.382,156.387,553.446,146.155,553.446,134.215 C502.534,134.215,494.818,134.198,443.905,134.198 C443.905,194.631,443.905,220.288,443.905,280.722 C494.818,280.722,502.398,280.722,553.31,280.722 C553.31,249.236,553.377,252.599,553.377,221.113 C539.987,234.223,546.438,230.242,533.048,243.352 C533.048,243.352,514.043,251.028,503.729,242.891 C495.426,236.341,507.916,213.792,507.916,213.792 C529.508,192.2,531.872,189.836,553.464,168.244 z"/>
    </clipPath>
    <g id="4" style="clip-path:url(#3);">
      <title>ClipGroup</title>
      <g id="5">
        <title>Group</title>
        <defs>
          <title>Path</title>
          <g id="6">
            <defs>
              <path id="7" d="M545.021,167.564 C545.021,168.416,545.021,168.416,545.021,172.252 C545.021,177.366,545.021,177.366,545.021,184.611 C545.021,201.658,545.021,201.658,545.021,222.115 C545.021,242.572,545.021,242.572,545.021,259.619 C545.021,266.864,545.021,266.864,545.021,271.978 C545.021,275.814,545.021,275.814,545.021,276.666 C545.021,276.666,548.89,272.797,548.89,272.797 C548.106,272.797,548.106,272.797,544.578,272.797 C539.874,272.797,539.874,272.797,533.21,272.797 C517.529,272.797,517.529,272.797,498.712,272.797 C479.896,272.797,479.896,272.797,464.215,272.797 C457.551,272.797,457.551,272.797,452.846,272.797 C449.318,272.797,449.318,272.797,448.534,272.797 C448.534,272.797,452.404,276.666,452.404,276.666 C452.404,275.588,452.404,275.588,452.404,270.735 C452.404,264.264,452.404,264.264,452.404,255.097 C452.404,233.529,452.404,233.529,452.404,207.646 C452.404,181.764,452.404,181.764,452.404,160.195 C452.404,151.028,452.404,151.028,452.404,144.557 C452.404,139.704,452.404,139.704,452.404,138.626 C452.404,138.626,448.534,142.496,448.534,142.496 C449.318,142.496,449.318,142.496,452.846,142.496 C457.551,142.496,457.551,142.496,464.215,142.496 C479.896,142.496,479.896,142.496,498.712,142.496 C517.529,142.496,517.529,142.496,533.21,142.496 C539.874,142.496,539.874,142.496,544.578,142.496 C548.106,142.496,548.106,142.496,548.89,142.496 C548.89,142.496,545.021,138.626,545.021,138.626 C545.021,139.53,545.021,139.53,545.021,143.148 C545.021,147.669,545.021,147.669,545.021,153.095 C545.021,158.521,545.021,158.521,545.021,163.042 C545.021,166.66,545.021,166.66,545.021,167.564 C545.021,167.564,552.76,167.564,552.76,167.564 C552.76,166.66,552.76,166.66,552.76,163.042 C552.76,158.521,552.76,158.521,552.76,153.095 C552.76,147.669,552.76,147.669,552.76,143.148 C552.76,139.53,552.76,139.53,552.76,138.626 C552.76,138.626,552.76,134.757,552.76,134.757 C552.76,134.757,548.89,134.757,548.89,134.757 C548.106,134.757,548.106,134.757,544.578,134.757 C539.874,134.757,539.874,134.757,533.21,134.757 C517.529,134.757,517.529,134.757,498.712,134.757 C479.896,134.757,479.896,134.757,464.215,134.757 C457.551,134.757,457.551,134.757,452.846,134.757 C449.318,134.757,449.318,134.757,448.534,134.757 C448.534,134.757,444.665,134.757,444.665,134.757 C444.665,134.757,444.665,138.626,444.665,138.626 C444.665,139.704,444.665,139.704,444.665,144.557 C444.665,151.028,444.665,151.028,444.665,160.195 C444.665,181.764,444.665,181.764,444.665,207.646 C444.665,233.529,444.665,233.529,444.665,255.097 C444.665,264.264,444.665,264.264,444.665,270.735 C444.665,275.588,444.665,275.588,444.665,276.666 C444.665,276.666,444.665,280.536,444.665,280.536 C444.665,280.536,448.534,280.536,448.534,280.536 C449.318,280.536,449.318,280.536,452.846,280.536 C457.551,280.536,457.551,280.536,464.215,280.536 C479.896,280.536,479.896,280.536,498.712,280.536 C517.529,280.536,517.529,280.536,533.21,280.536 C539.874,280.536,539.874,280.536,544.578,280.536 C548.106,280.536,548.106,280.536,548.89,280.536 C548.89,280.536,552.76,280.536,552.76,280.536 C552.76,280.536,552.76,276.666,552.76,276.666 C552.76,275.814,552.76,275.814,552.76,271.978 C552.76,266.864,552.76,266.864,552.76,259.619 C552.76,242.572,552.76,242.572,552.76,222.115 C552.76,201.658,552.76,201.658,552.76,184.611 C552.76,177.366,552.76,177.366,552.76,172.252 C552.76,168.416,552.76,168.416,552.76,167.564 C552.76,167.564,545.021,167.564,545.021,167.564 z"/>
            </defs>
            <use xlink:href="#7" style="fill:#000000;fill-opacity:1;fill-rule:nonzero;opacity:1;stroke:none;"/>
          </g>
        </defs>
        <use xlink:href="#6"/>
        <defs>
          <title>Path</title>
          <g id="8">
            <defs>
              <path id="9" d="M467.567,164.011 C468.058,164.011,468.058,164.011,470.267,164.011 C473.213,164.011,473.213,164.011,477.386,164.011 C487.205,164.011,487.205,164.011,498.988,164.011 C510.771,164.011,510.771,164.011,520.59,164.011 C524.763,164.011,524.763,164.011,527.709,164.011 C529.918,164.011,529.918,164.011,530.409,164.011 C532.546,164.011,534.278,162.278,534.278,160.141 C534.278,158.004,532.546,156.272,530.409,156.272 C529.918,156.272,529.918,156.272,527.709,156.272 C524.763,156.272,524.763,156.272,520.59,156.272 C510.771,156.272,510.771,156.272,498.988,156.272 C487.205,156.272,487.205,156.272,477.386,156.272 C473.213,156.272,473.213,156.272,470.267,156.272 C468.058,156.272,468.058,156.272,467.567,156.272 C465.43,156.272,463.697,158.004,463.697,160.141 C463.697,162.278,465.43,164.011,467.567,164.011 z"/>
            </defs>
            <use xlink:href="#9" style="fill:#000000;fill-opacity:1;fill-rule:nonzero;opacity:1;stroke:none;"/>
          </g>
        </defs>
        <use xlink:href="#8"/>
        <defs>
          <title>Path</title>
          <g id="10">
            <defs>
              <path id="11" d="M467.567,183.703 C468.058,183.703,468.058,183.703,470.267,183.703 C473.213,183.703,473.213,183.703,477.386,183.703 C487.205,183.703,487.205,183.703,498.988,183.703 C510.771,183.703,510.771,183.703,520.59,183.703 C524.763,183.703,524.763,183.703,527.709,183.703 C529.918,183.703,529.918,183.703,530.409,183.703 C532.546,183.703,534.278,181.97,534.278,179.833 C534.278,177.696,532.546,175.964,530.409,175.964 C529.918,175.964,529.918,175.964,527.709,175.964 C524.763,175.964,524.763,175.964,520.59,175.964 C510.771,175.964,510.771,175.964,498.988,175.964 C487.205,175.964,487.205,175.964,477.386,175.964 C473.213,175.964,473.213,175.964,470.267,175.964 C468.058,175.964,468.058,175.964,467.567,175.964 C465.43,175.964,463.697,177.696,463.697,179.833 C463.697,181.97,465.43,183.703,467.567,183.703 z"/>
            </defs>
            <use xlink:href="#11" style="fill:#000000;fill-opacity:1;fill-rule:nonzero;opacity:1;stroke:none;"/>
          </g>
        </defs>
        <use xlink:href="#10"/>
        <defs>
          <title>Path</title>
          <g id="12">
            <defs>
              <path id="13" d="M467.567,203.557 C468.058,203.557,468.058,203.557,470.267,203.557 C473.213,203.557,473.213,203.557,477.386,203.557 C487.205,203.557,487.205,203.557,498.988,203.557 C510.771,203.557,510.771,203.557,520.59,203.557 C524.763,203.557,524.763,203.557,527.709,203.557 C529.918,203.557,529.918,203.557,530.409,203.557 C532.546,203.557,534.278,201.824,534.278,199.687 C534.278,197.55,532.546,195.818,530.409,195.818 C529.918,195.818,529.918,195.818,527.709,195.818 C524.763,195.818,524.763,195.818,520.59,195.818 C510.771,195.818,510.771,195.818,498.988,195.818 C487.205,195.818,487.205,195.818,477.386,195.818 C473.213,195.818,473.213,195.818,470.267,195.818 C468.058,195.818,468.058,195.818,467.567,195.818 C465.43,195.818,463.697,197.55,463.697,199.687 C463.697,201.824,465.43,203.557,467.567,203.557 z"/>
            </defs>
            <use xlink:href="#13" style="fill:#000000;fill-opacity:1;fill-rule:nonzero;opacity:1;stroke:none;"/>
          </g>
        </defs>
        <use xlink:href="#12"/>
        <defs>
          <title>Path</title>
          <g id="14">
            <defs>
              <path id="15" d="M467.291,222.564 C467.782,222.564,467.782,222.564,469.991,222.564 C472.937,222.564,472.937,222.564,477.11,222.564 C486.929,222.564,486.929,222.564,498.712,222.564 C510.495,222.564,510.495,222.564,520.314,222.564 C524.487,222.564,524.487,222.564,527.433,222.564 C529.643,222.564,529.643,222.564,530.133,222.564 C532.271,222.564,534.003,220.832,534.003,218.695 C534.003,216.558,532.271,214.825,530.133,214.825 C529.643,214.825,529.643,214.825,527.433,214.825 C524.487,214.825,524.487,214.825,520.314,214.825 C510.495,214.825,510.495,214.825,498.712,214.825 C486.929,214.825,486.929,214.825,477.11,214.825 C472.937,214.825,472.937,214.825,469.991,214.825 C467.782,214.825,467.782,214.825,467.291,214.825 C465.154,214.825,463.422,216.558,463.422,218.695 C463.422,220.832,465.154,222.564,467.291,222.564 z"/>
            </defs>
            <use xlink:href="#15" style="fill:#000000;fill-opacity:1;fill-rule:nonzero;opacity:1;stroke:none;"/>
          </g>
        </defs>
        <use xlink:href="#14"/>
        <defs>
          <title>Path</title>
          <g id="16">
            <defs>
              <path id="17" d="M467.567,242.395 C468.058,242.395,468.058,242.395,470.267,242.395 C473.213,242.395,473.213,242.395,477.386,242.395 C487.205,242.395,487.205,242.395,498.988,242.395 C510.771,242.395,510.771,242.395,520.59,242.395 C524.763,242.395,524.763,242.395,527.709,242.395 C529.918,242.395,529.918,242.395,530.409,242.395 C532.546,242.395,534.278,240.662,534.278,238.525 C534.278,236.388,532.546,234.656,530.409,234.656 C529.918,234.656,529.918,234.656,527.709,234.656 C524.763,234.656,524.763,234.656,520.59,234.656 C510.771,234.656,510.771,234.656,498.988,234.656 C487.205,234.656,487.205,234.656,477.386,234.656 C473.213,234.656,473.213,234.656,470.267,234.656 C468.058,234.656,468.058,234.656,467.567,234.656 C465.43,234.656,463.697,236.388,463.697,238.525 C463.697,240.662,465.43,242.395,467.567,242.395 z"/>
            </defs>
            <use xlink:href="#17" style="fill:#000000;fill-opacity:1;fill-rule:nonzero;opacity:1;stroke:none;"/>
          </g>
        </defs>
        <use xlink:href="#16"/>
      </g>
    </g>
    <clipPath id="19">
      <use xlink:href="#18"/>
      <path id="18" d="M553.382,168.326 C553.382,156.387,553.446,146.155,553.446,134.215 C502.534,134.215,494.818,134.198,443.905,134.198 C443.905,194.631,443.905,220.288,443.905,280.722 C494.818,280.722,502.398,280.722,553.31,280.722 C553.31,249.236,553.377,252.599,553.377,221.113 C539.987,234.223,546.438,230.242,533.048,243.352 C533.048,243.352,514.043,251.028,503.729,242.891 C495.426,236.341,507.916,213.792,507.916,213.792 C529.508,192.2,531.872,189.836,553.464,168.244 z"/>
    </clipPath>
    <g id="20" style="clip-path:url(#19);"/>
    <g id="21">
      <title>Matita</title>
      <defs>
        <title>Path</title>
        <g id="22">
          <defs>
            <path id="23" d="M571.09,163.618 C570.667,164.041,570.667,164.041,568.764,165.944 C566.226,168.482,566.226,168.482,562.63,172.078 C554.17,180.538,554.17,180.538,544.018,190.69 C533.866,200.842,533.866,200.842,525.406,209.302 C521.81,212.898,521.81,212.898,519.272,215.436 C517.369,217.339,517.369,217.339,516.946,217.762 C513.294,221.414,513.294,227.335,516.946,230.987 C520.598,234.639,526.518,234.639,530.17,230.987 C530.593,230.564,530.593,230.564,532.497,228.661 C535.035,226.123,535.035,226.123,538.63,222.527 C547.091,214.067,547.091,214.067,557.243,203.915 C567.395,193.763,567.395,193.763,575.855,185.303 C579.45,181.707,579.45,181.707,581.988,179.169 C583.892,177.266,583.892,177.266,584.315,176.843 C587.967,173.191,587.967,167.27,584.315,163.618 C580.663,159.966,574.742,159.966,571.09,163.618 z"/>
          </defs>
          <use xlink:href="#23" style="fill:#000000;fill-opacity:1;fill-rule:nonzero;opacity:1;stroke:none;"/>
        </g>
      </defs>
      <use xlink:href="#22"/>
      <defs>
        <title>Path</title>
        <g id="24">
          <defs>
            <path id="25" d="M515.007,220.562 C515.007,220.562,508.719,233.64,509.724,238.525 C516.363,239.034,527.431,232.912,527.431,232.912 C527.431,232.912,515.007,220.562,515.007,220.562 z"/>
          </defs>
          <use xlink:href="#25" style="fill:#000000;fill-opacity:1;fill-rule:nonzero;opacity:1;stroke:none;"/>
        </g>
      </defs>
      <use xlink:href="#24"/>
    </g>
  </g>
</svg>
